<?xml version="1.0" encoding="utf-8"?>
<!-- Generator: Adobe Illustrator 24.0.0, SVG Export Plug-In . SVG Version: 6.00 Build 0)  -->
<svg version="1.1" xmlns="http://www.w3.org/2000/svg" xmlns:xlink="http://www.w3.org/1999/xlink" x="0px" y="0px"
	 viewBox="0 0 1242 2688" style="enable-background:new 0 0 1242 2688;" xml:space="preserve">
<style type="text/css">
	.st0{fill:#7CCCBD;}
	.st1{clip-path:url(#SVGID_2_);}
	.st2{fill:#009082;}
	.st3{fill:none;stroke:#FFFFFF;stroke-width:4.2655;stroke-miterlimit:10;}
</style>
<g id="Layer_1">
</g>
<g id="Layer_3">
	<rect class="st0" width="1242" height="2688"/>
	<g>
		<defs>
			<rect id="SVGID_1_" x="0" width="1242" height="2688"/>
		</defs>
		<clipPath id="SVGID_2_">
			<use xlink:href="#SVGID_1_"  style="overflow:visible;"/>
		</clipPath>
		<g class="st1">
			<g>
				<g>
					<path class="st2" d="M1605.4,1340.6c-399.8-37.8-712.6-374.4-712.6-784.3c-434.9,0-787.6,352.8-787.6,787.8
						c0,434.8,352.8,787.6,787.6,787.6c0-409.9,312.9-746.3,712.6-784.1V1340.6z"/>
					<path class="st2" d="M892.7,2131.7c0,434.9,352.8,787.7,787.5,787.7c435.1,0,788-352.8,788-787.7H892.7z"/>
					<path class="st2" d="M892.7,556.3c0-435,352.8-787.7,787.5-787.7c435.1,0,788,352.7,788,787.7H892.7z"/>
					<path class="st2" d="M1755.5,1347.7c399.8,37.8,712.8,374.2,712.8,784.1c434.9,0,787.5-352.8,787.5-787.6
						c0-435-352.6-787.8-787.5-787.8c0,409.9-312.9,746.5-712.8,784.3V1347.7z"/>
				</g>
				<g>
					<path class="st3" d="M2467.2,2134c0,436.3-352.3,790-786.9,790c-434.6,0-786.9-353.7-786.9-790c0-436.3,352.3-790,786.9-790
						C2114.9,1344,2467.2,1697.7,2467.2,2134z M893.5,2134c-434.6,0-786.9-353.7-786.9-790c0-436.3,352.3-790,786.9-790h1573.9
						c434.6,0,786.9,353.7,786.9,790c0,436.3-352.3,790-786.9,790H893.5z M2467.4,554c0,436.3-352.3,790-786.9,790
						S893.5,990.3,893.5,554s352.3-790,786.9-790S2467.4,117.7,2467.4,554z"/>
				</g>
			</g>
		</g>
	</g>
</g>
</svg>
