<?xml version="1.0" encoding="utf-8"?>
<!-- Generator: Adobe Illustrator 23.0.6, SVG Export Plug-In . SVG Version: 6.00 Build 0)  -->
<svg version="1.1" id="Layer_3" xmlns="http://www.w3.org/2000/svg" xmlns:xlink="http://www.w3.org/1999/xlink" x="0px" y="0px"
	 viewBox="0 0 750 1334" style="enable-background:new 0 0 750 1334;" xml:space="preserve">
<style type="text/css">
	.st0{fill:#97CABD;}
	.st1{clip-path:url(#SVGID_2_);}
	.st2{fill:#2B8E81;}
	.st3{display:none;}
	.st4{display:inline;}
	.st5{display:inline;clip-path:url(#SVGID_4_);}
	.st6{fill:#207167;}
	.st7{fill:#FFFFFF;}
	.st8{fill:none;stroke:#FFFFFF;stroke-width:2.9636;stroke-miterlimit:10;}
</style>
<rect class="st0" width="750" height="1334"/>
<g>
	<defs>
		<rect id="SVGID_1_" width="750" height="1334"/>
	</defs>
	<clipPath id="SVGID_2_">
		<use xlink:href="#SVGID_1_"  style="overflow:visible;"/>
	</clipPath>
	<g class="st1">
		<g>
			<g>
				<path class="st2" d="M1094.4,626.5C816.6,600.2,599.2,366.3,599.2,81.5C297.1,81.5,52,326.7,52,628.9
					c0,302.1,245.1,547.2,547.2,547.2c0-284.8,217.4-518.5,495.1-544.8V626.5z"/>
				<path class="st2" d="M599.2,1176.1c0,302.2,245.1,547.3,547.1,547.3c302.3,0,547.5-245.1,547.5-547.3H599.2z"/>
				<path class="st2" d="M599.2,81.5c0-302.2,245.1-547.3,547.1-547.3c302.3,0,547.5,245.1,547.5,547.3H599.2z"/>
				<path class="st2" d="M1198.6,631.3c277.8,26.3,495.2,260,495.2,544.8c302.1,0,547.1-245.1,547.1-547.2
					c0-302.2-245-547.4-547.1-547.4c0,284.8-217.4,518.7-495.2,544.9V631.3z"/>
			</g>
			<g class="st3">
				<defs>
					<path id="SVGID_3_" d="M756.8,465.8C659.4,367,599.2,231.3,599.2,81.5C297.1,81.5,52,326.7,52,628.9
						c0,302.1,245.1,547.2,547.2,547.2c0-150.9,61.1-287.5,159.8-386.5C760,790,760,465,756.8,465.8z"/>
				</defs>
				<clipPath id="SVGID_4_" class="st4">
					<use xlink:href="#SVGID_3_"  style="overflow:visible;"/>
				</clipPath>
				<g class="st5">
					<g>
						<g>
							<path class="st6" d="M421.8,456.1c0,0,34.9,146.6,82.1,139.8c47.2-6.7-6.7-173-6.7-173"/>
							<g>
								<path class="st7" d="M410.7,457.5c1.3,5.6,2.9,11.1,4.4,16.6c3.7,13,7.8,26,12.4,38.7c5.6,15.5,11.8,30.8,19.6,45.3
									c6.7,12.6,14.5,24.8,25.5,33.9c4.5,3.8,9.9,6.8,15.6,8.1c8.6,2.1,18.3,1.8,26.5-1.8c5.7-2.5,10.2-6.4,13.4-11.8
									c2.6-4.4,3.9-9.4,4.8-14.3c2.4-13.8,1.7-28,0.2-41.9c-1.7-15.6-4.6-31.1-8-46.4c-3-13.4-6.4-26.8-10.1-40
									c-2-7.2-4.1-14.3-6.3-21.4c-0.1-0.3-0.2-0.6-0.3-1c-0.6-1.8-1.9-2.6-3.7-3.2c-2.4-0.8-5.6-0.9-8.1-0.5
									c-2.6,0.4-5.5,1-7.7,2.5c-1.1,0.8-3.4,2.3-2.8,4c1.1,3.5,2.2,7,3.2,10.4c2.6,8.8,5.1,17.6,7.4,26.5
									c3.1,11.9,5.9,23.9,8.3,35.9c2.6,12.7,4.7,25.5,6,38.3c1.1,11.2,1.7,22.6,0.4,33.8c-0.1,1.2-0.3,2.4-0.5,3.6
									c0.1-0.5,0.2-0.9,0.2-1.4c-1,5.9-2.6,11.9-6.1,16.8c0.3-0.5,0.6-0.9,1-1.4c-1.1,1.6-2.4,3-3.9,4.2c0.5-0.4,1.1-0.8,1.6-1.3
									c-0.5,0.4-1,0.7-1.5,1.1c-0.2,0.2-0.5,0.3-0.8,0.4c-1.3,0.7,2.7-1.3,1.2-0.6c-0.6,0.2-1.1,0.5-1.7,0.7
									c4.1-1.5,2.9-0.9,2-0.7c-0.1,0-0.3,0.1-0.4,0.1c-0.3,0.1-0.7,0.2-1,0.2c-1.4,0.3,3.4-0.6,2.3-0.4c-0.2,0-0.3,0.1-0.5,0.1
									c-0.4,0.1-0.8,0.1-1.1,0.1c-0.2,0-0.4,0-0.5,0c-1.3,0.1,3.7-0.2,2.3-0.1c-0.4,0-0.8,0-1.1,0c-0.4,0-0.7,0-1.1,0
									c-1,0,3.4,0.3,2,0.1c-0.2,0-0.4,0-0.6-0.1c-0.7-0.1-1.4-0.2-2.2-0.4c4.1,0.8,0.9,0.2-0.2-0.2c-0.8-0.3-1.7-0.6-2.5-0.9
									c0.6,0.3,1.2,0.5,1.9,0.8c-3.5-1.5-6.6-3.7-9.5-6.1c0.4,0.4,0.9,0.7,1.3,1.1c-5.5-4.7-10.2-10.5-14.3-16.5
									c-4.8-7-8.9-14.5-12.7-22.1c-2.3-4.5-4.4-9.2-6.4-13.8c0.2,0.4,0.4,0.9,0.6,1.3c-6.1-14.1-11.3-28.6-16-43.3
									c-3.2-10.1-6.2-20.3-8.9-30.6c-0.5-1.8-1-3.7-1.4-5.5c-0.4-1.8-2.1-2.7-3.7-3.2c-2.4-0.8-5.6-0.9-8.1-0.5
									c-2.6,0.4-5.5,1-7.7,2.5C412.3,454.3,410.3,455.7,410.7,457.5L410.7,457.5z"/>
							</g>
						</g>
						<g>
							<path class="st6" d="M218.2,379.2c0,0-60.2,93.2-53.5,113.4c6.7,20.2,49.3,2.9,110-68.2"/>
							<g>
								<path class="st7" d="M208.9,382.3c-1.8,2.7-3.5,5.5-5.2,8.2c-4.3,6.9-8.5,13.8-12.5,20.7c-5.3,9-10.4,18-15.3,27.2
									c-5,9.4-9.9,18.9-14.1,28.7c-3,7.1-6.1,14.6-7.2,22.3c-0.7,4.8-0.3,10,3.5,13.4c4.7,4.2,11.2,3.9,17.1,2.8
									c4.9-0.9,9.7-2.6,14.3-4.5c5.8-2.4,11.3-5.4,16.7-8.6c11.6-6.9,22.3-15.4,32.4-24.3c12.5-10.9,24.1-22.9,35.2-35.3
									c3.5-3.9,6.9-7.8,10.3-11.8c0.8-0.9,1.1-2.2-0.2-2.7c-1.4-0.6-4.3,0.4-5.4,0.8c-4.8,1.7-9.6,4.4-13,8.3
									c-2.2,2.6-4.5,5.2-6.7,7.8c-1.1,1.2,0.8-0.9,0.1-0.2c-0.3,0.3-0.5,0.6-0.8,0.9c-0.5,0.6-1,1.2-1.6,1.8
									c-1.1,1.3-2.3,2.5-3.4,3.8c-4,4.4-8.2,8.7-12.4,13c-3.9,3.9-7.9,7.8-12,11.6c-1.8,1.7-3.6,3.3-5.4,4.9
									c-0.9,0.8-1.8,1.5-2.7,2.3c-1.1,1,1.9-1.6,0.7-0.6c-0.2,0.1-0.3,0.3-0.5,0.4c-0.5,0.4-1,0.9-1.6,1.3
									c-3.4,2.8-6.8,5.5-10.3,8.2c-0.7,0.6-1.5,1.1-2.2,1.6c-0.4,0.3-0.8,0.6-1.2,0.8c-1.2,0.9,2.5-1.8,1.3-0.9
									c-0.2,0.2-0.5,0.3-0.7,0.5c-1.5,1.1-3.1,2.1-4.7,3.1c-0.7,0.5-1.4,0.9-2.2,1.3c-0.4,0.2-0.7,0.4-1.1,0.6
									c-0.1,0.1-0.3,0.2-0.4,0.3c-1.3,0.8,3.1-1.8,1.6-1c-1.4,0.8-2.7,1.6-4.1,2.3c-0.3,0.2-0.7,0.3-1,0.5
									c-0.2,0.1-0.4,0.2-0.6,0.3c-0.8,0.4-1.9,0.9,2.1-1c-0.7,0.3-1.4,0.7-2.1,1c-0.6,0.3-1.2,0.5-1.8,0.8
									c-0.3,0.1-0.6,0.2-0.9,0.4c-1.1,0.5,2.4-0.9,2-0.8c-0.2,0.1-0.5,0.2-0.7,0.3c-0.6,0.2-1.2,0.5-1.9,0.7c-1,0.3-3.8,1.1,0.1,0
									c-1.2,0.3-2.3,0.6-3.5,0.8c-0.3,0.1-0.6,0.1-0.9,0.1c2.9-0.5,1.6-0.2,0.9-0.1c-0.5,0.1-1,0.1-1.5,0.1c-1,0.1-2,0-3-0.1
									c0.5,0,0.9,0.1,1.4,0.1c-2.2-0.2-4.3-0.9-6.1-2.2c0.3,0.2,0.5,0.4,0.8,0.6c-2.7-2-4.2-5.2-4.4-8.5c0,0.3,0,0.6,0,0.9
									c-0.3-5.5,1.6-11.2,3.4-16.3c2.6-7.6,6-15,9.5-22.2c2.2-4.6,4.5-9.2,6.9-13.7c-0.2,0.4-0.4,0.8-0.6,1.2
									c5.8-11,11.9-21.7,18.2-32.4c4.4-7.4,8.9-14.7,13.4-22c0.8-1.3,1.7-2.6,2.5-3.9c0.6-0.9,1.2-2.1-0.2-2.7
									c-1.4-0.6-4.3,0.4-5.4,0.8c-2.7,1-5.4,2.2-7.8,3.8C212.3,379.1,210.1,380.4,208.9,382.3L208.9,382.3z"/>
							</g>
						</g>
						<g>
							<path class="st6" d="M153.5,238.7c0,0,31.4,190.9,177.5,213.4s170.7-18,222.4-44.9c51.7-27,103.3-119.1,107.8-175.2"/>
							<g>
								<path class="st7" d="M145.6,231.3c1.2,7.3,3,14.6,4.8,21.8c4.4,17,9.9,33.7,16.6,50c9.2,22.4,20.5,44.1,34.3,64
									c16.5,23.8,36.6,45.4,60.2,62.3c23.7,17,50.8,27.5,79.6,31.8c35.2,5.2,71.5,8.6,106.9,3.9c21.9-2.9,43-9.4,62.5-19.7
									c16-8.5,30.8-19.1,46.7-27.8c5.5-3,11-6,16.1-9.7c6.3-4.5,12.2-9.6,17.7-15c12.3-12,23-25.6,32.6-39.8
									c18.9-28.3,34.6-60.2,42.2-93.5c1.5-6.6,2.7-13.3,3.2-20c0.1-1.5-1.5-3.9-2.2-4.9c-1.6-2.3-3.6-4.7-5.7-6.6
									c-0.8-0.8-7.6-6.7-7.9-3.4c-1.2,14.6-5,29-9.9,42.8c-5.7,16.2-13,31.9-21.4,46.9c-8.5,15.2-18.2,29.8-29.2,43.4
									c-9.9,12.2-21,23.7-33.7,33c-8.8,6.4-18.8,11.1-28.1,16.7c-7.6,4.6-15,9.4-22.5,14c-16.6,10.1-34.2,18.4-53.1,23
									c-29.3,7.1-60,7-89.9,4.4c-18.8-1.6-38-3.5-56.3-8c-12.7-3.1-25.4-8-37.3-14.3c-0.7-0.4-1.5-0.8-2.2-1.2
									c-1-0.5,1.5,0.9-0.1,0c-0.3-0.2-0.6-0.4-1-0.5c-1.4-0.8-2.9-1.7-4.3-2.5c-2.8-1.7-5.5-3.5-8.2-5.4c-0.6-0.4-1.2-0.8-1.8-1.2
									c-0.3-0.2-2.5-1.8-1.3-0.9c1.2,0.9-1-0.7-1.2-0.9c-0.7-0.5-1.4-1.1-2.1-1.6c-2.5-1.9-4.9-3.9-7.3-5.9
									c-1.8-1.5,1.9,1.7-0.2-0.2c-0.5-0.5-1.1-0.9-1.6-1.4c-1.2-1.1-2.3-2.2-3.5-3.3c-1.1-1.1-2.3-2.2-3.4-3.3
									c-1.9-1.9,1.5,1.5,0.2,0.3c-0.6-0.6-1.2-1.3-1.8-1.9c-2.2-2.3-4.3-4.6-6.4-7c-0.2-0.3-0.5-0.5-0.7-0.8
									c-1.1-1.3,0.9,1.1,0.9,1.1c-0.5-0.6-1-1.2-1.5-1.8c-1.1-1.3-2.1-2.5-3.1-3.8c-0.9-1.1-1.7-2.2-2.6-3.3
									c-0.5-0.6-0.9-1.2-1.4-1.8c-0.3-0.4-2.1-2.8-0.9-1.2c1.2,1.6-0.4-0.6-0.7-1c-0.4-0.6-0.8-1.1-1.2-1.7
									c-0.9-1.3-1.9-2.6-2.8-4c-1.7-2.4-3.3-4.9-4.9-7.4c-0.8-1.2-1.5-2.7-2.4-3.8c0.1,0.1,1.2,1.9,0.4,0.7
									c-0.2-0.3-0.3-0.6-0.5-0.9c-0.4-0.7-0.9-1.4-1.3-2.1c-5.8-9.8-11-19.9-15.8-30.2c-0.7-1.4,0.5,1.2,0.1,0.2
									c-0.1-0.3-0.3-0.6-0.4-0.8c-0.3-0.6-0.6-1.2-0.8-1.9c-0.5-1.2-1.1-2.5-1.6-3.7c-1-2.4-2.1-4.9-3.1-7.3
									c-1.9-4.6-3.6-9.2-5.3-13.9c-2.9-8.2-5.6-16.4-8-24.7c-1.8-6.1-3.4-12.3-4.8-18.5c-0.3-1.2-0.5-2.3-0.8-3.5
									c-0.1-0.5-0.2-1-0.3-1.4c-0.2-0.9-0.4-1.8-0.1-0.3c-0.3-1.3-0.5-2.6-0.8-3.9c-0.1-0.4-0.2-0.9-0.2-1.3
									c-0.7-4.4-4.7-8.6-7.9-11.5c-1.6-1.5-3.4-3.2-5.5-4C147.3,230.4,145.4,229.8,145.6,231.3L145.6,231.3z"/>
							</g>
						</g>
						<g>
							<path class="st6" d="M307.4,412.8c0,0-49.4,168.5,2.2,177.5c51.7,9,80.9-173,80.9-173"/>
							<g>
								<path class="st7" d="M296.8,409c-0.5,1.6-0.9,3.2-1.4,4.9c-1.2,4.4-2.4,8.9-3.5,13.3c-1.6,6.5-3.2,13-4.7,19.6
									c-1.8,7.9-3.4,15.8-4.9,23.8c-1.7,9.2-3.2,18.4-4.4,27.7c-1.1,8.7-2,17.4-2.5,26.2c-0.4,8-0.5,16.1,0.2,24.1
									c0.6,7.4,1.8,14.9,4.1,22c2.2,6.8,5.9,12.8,10.9,17.8c2.4,2.3,5.2,4.3,8.2,5.7c4,1.9,8.2,3.5,12.7,3.9
									c7.4,0.7,14.5-0.3,21-4c5.5-3.1,10.3-7.5,14.3-12.4c4.8-5.9,8.8-12.4,12.4-19.1c3.8-7.1,7.1-14.5,10.2-21.9
									c3.2-8,6.1-16.2,8.8-24.5c2.7-8.3,5.2-16.8,7.4-25.2c2.1-7.9,4.1-15.9,6-23.9c1.6-6.9,3.1-13.8,4.5-20.7
									c1.1-5.2,2.1-10.4,3.1-15.6c0.5-2.9,1.1-5.8,1.5-8.7c0.1-0.4,0.1-0.7,0.2-1.1c0.4-1,0.4-2,0.1-3c-0.2-1.1-0.6-2.1-1.4-3
									c-1.5-2.1-4.3-3.9-6.7-4.7c-2.6-0.8-5.6-1.4-8.2-0.6c-1.8,0.5-4.5,1.7-4.9,3.8c-0.6,3.4-1.2,6.9-1.8,10.3
									c-1.6,8.8-3.4,17.6-5.3,26.3c-2.6,11.9-5.5,23.8-8.8,35.6c-3.5,12.9-7.5,25.6-12.1,38.2c-4.3,11.6-9.1,23.2-15.2,33.9
									c-0.7,1.2-1.4,2.4-2.1,3.5c0.3-0.6,0.7-1.1,1-1.7c-3.6,5.8-7.6,11.5-12.5,16.3c-1.2,1.2-2.5,2.3-3.8,3.3
									c0.6-0.4,1.1-0.9,1.7-1.3c-2.4,1.8-5,3.4-7.8,4.5c0.7-0.3,1.4-0.5,2.2-0.8c-1.7,0.6-3.4,1.1-5.2,1.3
									c0.8-0.1,1.7-0.2,2.5-0.3c-1.4,0.2-2.8,0.2-4.1,0.1c0.9,0.1,1.9,0.1,2.8,0.2c-1.4-0.1-2.7-0.3-4-0.7c1,0.3,1.9,0.5,2.9,0.8
									c-1.2-0.3-2.4-0.8-3.6-1.3c0.9,0.4,1.8,0.8,2.7,1.3c-1.1-0.5-2.2-1.1-3.2-1.9c0.8,0.5,1.5,1.1,2.3,1.6
									c-1.2-0.9-2.3-1.8-3.3-2.9c0.6,0.6,1.2,1.2,1.7,1.9c-1.5-1.6-2.8-3.5-4-5.4c0.4,0.7,0.8,1.3,1.1,2c-2.4-4.2-4-8.9-5.1-13.6
									c0.2,0.7,0.3,1.4,0.5,2c-1.9-8.1-2.5-16.4-2.6-24.7c-0.1-9.5,0.5-19.1,1.5-28.6c0.6-5.6,1.3-11.2,2.1-16.8
									c-0.1,0.7-0.2,1.3-0.3,2c1.2-8.1,2.5-16.1,4.1-24.1c1.4-7.3,2.9-14.6,4.6-21.9c1.4-6,2.8-12.1,4.3-18.1
									c1.1-4.2,2.2-8.4,3.3-12.5c0.5-1.8,1-3.5,1.5-5.3c0,0,0,0,0-0.1c1.5-5-3.8-9.4-8.1-10.7c-2.6-0.8-5.6-1.4-8.2-0.6
									C299.7,405.8,297.4,406.9,296.8,409L296.8,409z"/>
							</g>
						</g>
						<g>
							<path class="st6" d="M509.5,385.9c0,0,92.1,123.5,125.8,110.1c33.7-13.5-65.1-164-65.1-164"/>
							<g>
								<path class="st7" d="M498.7,386.9c3.9,5.3,8,10.4,12.1,15.5c8.8,11.1,17.9,22.1,27.4,32.8c11.1,12.6,22.6,24.9,35,36.3
									c5.7,5.2,11.5,10.2,17.7,14.8c5.6,4.1,11.4,8.1,17.8,11c4,1.8,7.8,3.2,12,4.2c4,1,8.1,1.2,12.3,1c6.3-0.3,12.9-2.3,17-7.3
									c2.5-3,3.4-7.4,3.6-11.2c0.2-5.4-0.9-10.7-2.1-15.9c-3.2-13.4-8.7-26.2-14.5-38.7c-6.7-14.5-14.2-28.6-22.1-42.5
									c-6.8-12.1-13.9-24.1-21.2-36c-3.9-6.4-7.9-12.7-12-19c-0.2-0.3-0.4-0.6-0.6-0.9c-1.2-1.8-3-2.8-5-3.5
									c-2.6-0.9-5.9-1.2-8.6-0.9c-2.3,0.3-5.1,0.7-6.8,2.3c-1.1,1-2.3,2.6-1.3,4.2c2,3.1,4,6.2,6,9.4c5,8,10,16,14.8,24.1
									c6.5,10.8,12.8,21.8,18.8,32.9c6.3,11.7,12.4,23.5,17.9,35.6c4.7,10.5,9.2,21.2,12.1,32.3c0.3,1.1,0.6,2.3,0.9,3.4
									c-0.1-0.5-0.2-1-0.3-1.5c1.2,5.2,2.1,10.6,1.5,15.9c-0.1,1.2-0.4,2.3-0.7,3.4c0.2-0.5,0.3-1,0.5-1.5
									c-0.5,1.7-1.3,3.2-2.5,4.5c0.4-0.4,0.8-0.8,1.2-1.3c-0.6,0.7-1.4,1.3-2.2,1.8c0.6-0.3,1.2-0.7,1.8-1c-1.2,0.7-4,1.3,0,0.2
									c-0.4,0.1-0.8,0.2-1.1,0.3c-0.2,0-0.4,0.1-0.6,0.1c-1.3,0.3,3.6-0.5,1.8-0.3c-0.4,0-0.8,0.1-1.2,0.1c-1.5,0.1,3.9,0,2.1-0.1
									c-0.3,0-0.5,0-0.8,0c-0.2,0-0.4,0-0.7,0c-0.1,0-0.3,0-0.4,0c-1-0.1-2.3-0.4,2.4,0.3c-0.5-0.1-1-0.1-1.5-0.2
									c-0.5-0.1-1-0.2-1.5-0.3c-1.5-0.3,3.3,0.9,1.8,0.5c-0.3-0.1-0.6-0.2-0.9-0.2c-1.1-0.3-2.2-0.7-3.3-1.1
									c-0.3-0.1-0.6-0.2-0.8-0.3c-1.4-0.6,2.7,1.2,1.3,0.6c-0.6-0.3-1.2-0.6-1.9-0.9c-1.2-0.6-2.4-1.2-3.5-1.8
									c-2.9-1.6-5.6-3.4-8.3-5.2c0.6,0.4,1.1,0.8,1.7,1.2c-6.3-4.4-12.3-9.3-18-14.4c-6.4-5.7-12.5-11.6-18.4-17.8
									c-6.1-6.2-12-12.7-17.8-19.2c-5.4-6-10.6-12.2-15.8-18.4c-4.3-5.2-8.6-10.4-12.8-15.7c-0.4-0.5-0.9-1.1-1.3-1.6
									c0.4,0.5,0.7,0.9,1.1,1.4c-3.2-4.1-6.5-8.2-9.6-12.4c-0.2-0.2-0.4-0.5-0.5-0.7c-1.3-1.8-2.9-2.8-5-3.5
									c-2.6-0.9-5.9-1.2-8.6-0.9c-2.3,0.3-5.1,0.7-6.8,2.3C498.9,383.7,497.6,385.4,498.7,386.9L498.7,386.9z"/>
							</g>
						</g>
					</g>
					<polyline class="st6" points="177,195 419,65 624,42 633.6,240.9 536,293 193.8,286.5 					"/>
				</g>
			</g>
			<g>
				<path class="st8" d="M1693.1,1177.7c0,303.1-244.8,548.9-546.8,548.9c-302,0-546.8-245.8-546.8-548.9
					c0-303.2,244.8-548.9,546.8-548.9C1448.3,628.8,1693.1,874.6,1693.1,1177.7z M599.7,1177.7c-302,0-546.8-245.8-546.8-548.9
					C53,325.6,297.8,79.9,599.7,79.9h1093.5c302,0,546.8,245.8,546.8,548.9c0,303.1-244.8,548.9-546.8,548.9H599.7z M1693.3,79.9
					c0,303.1-244.8,548.9-546.8,548.9S599.7,383.1,599.7,79.9S844.5-469,1146.5-469S1693.3-223.2,1693.3,79.9z"/>
			</g>
		</g>
	</g>
</g>
</svg>
