<?xml version="1.0" encoding="utf-8"?>
<!-- Generator: Adobe Illustrator 23.0.6, SVG Export Plug-In . SVG Version: 6.00 Build 0)  -->
<svg version="1.1" id="Layer_3" xmlns="http://www.w3.org/2000/svg" xmlns:xlink="http://www.w3.org/1999/xlink" x="0px" y="0px"
	 viewBox="0 0 750 601" style="enable-background:new 0 0 750 601;" xml:space="preserve">
<style type="text/css">
	.st0{clip-path:url(#SVGID_2_);}
	.st1{fill:#2B8E81;}
	.st2{display:none;}
	.st3{display:inline;}
	.st4{display:inline;clip-path:url(#SVGID_4_);}
	.st5{fill:#207167;}
	.st6{fill:#FFFFFF;}
	.st7{fill:none;stroke:#FFFFFF;stroke-width:2.9636;stroke-miterlimit:10;}
	.st8{fill:#199793;}
	.st9{fill:#DE8C41;}
	.st10{fill:#97CABD;}
</style>
<g>
	<defs>
		<rect id="SVGID_1_" width="750" height="1334"/>
	</defs>
	<clipPath id="SVGID_2_">
		<use xlink:href="#SVGID_1_"  style="overflow:visible;"/>
	</clipPath>
	<g class="st0">
		<g>
			<g>
				<path class="st1" d="M347.2-1.3C198.9-15.3,82.9-140.1,82.9-292.1C-78.4-292.1-209.2-161.3-209.2,0
					c0,161.3,130.8,292.1,292.1,292.1c0-152,116-276.8,264.3-290.8V-1.3z"/>
				<path class="st1" d="M82.9,292.1c0,161.3,130.8,292.1,292.1,292.1c161.4,0,292.3-130.8,292.3-292.1H82.9z"/>
				<path class="st1" d="M82.9-292.1c0-161.3,130.8-292.1,292.1-292.1c161.4,0,292.3,130.8,292.3,292.1H82.9z"/>
				<path class="st1" d="M402.8,1.4c148.3,14,264.3,138.8,264.3,290.8c161.3,0,292.1-130.9,292.1-292.1
					c0-161.3-130.8-292.2-292.1-292.2c0,152-116.1,276.9-264.3,290.9V1.4z"/>
			</g>
			<g class="st2">
				<defs>
					<path id="SVGID_3_" d="M167-87c-52-52.8-84.1-125.2-84.1-205.1C-78.4-292.1-209.2-161.3-209.2,0
						c0,161.3,130.8,292.1,292.1,292.1c0-80.6,32.6-153.5,85.3-206.3C168.7,86,168.7-87.4,167-87z"/>
				</defs>
				<clipPath id="SVGID_4_" class="st3">
					<use xlink:href="#SVGID_3_"  style="overflow:visible;"/>
				</clipPath>
				<g class="st4">
					<g>
						<g>
							<path class="st5" d="M-11.8-92.2c0,0,18.6,78.2,43.8,74.6s-3.6-92.3-3.6-92.3"/>
							<g>
								<path class="st6" d="M-17.5-90.2c0.7,3,1.5,6,2.4,8.9c2,7,4.2,13.9,6.6,20.8c2.9,8.1,6.2,16.1,10.2,23.6
									c3.5,6.5,7.6,13.1,13.4,17.8c2.4,1.9,5,3.3,8,3.9c4.4,0.9,9.2-0.3,13.3-2.1c3.3-1.4,6.1-3.5,8-6.5c1.4-2.3,2.2-4.9,2.7-7.5
									c1.3-7.2,0.9-14.7,0.2-21.9c-0.9-8.4-2.4-16.7-4.2-25c-1.6-7.2-3.4-14.4-5.4-21.6c-1.1-3.9-2.2-7.7-3.4-11.5
									c-0.1-0.2-0.1-0.4-0.2-0.5c-0.2-0.6-1.7-0.5-2-0.5c-1.4,0.1-2.9,0.5-4.2,1c-1.3,0.5-2.7,1.1-3.8,1.9c-0.4,0.3-1.5,1-1.3,1.7
									c0.8,2.6,1.6,5.1,2.3,7.7c1.8,6.3,3.5,12.7,5.1,19.1c1.9,8,3.6,16,4.8,24.1c1.1,7.6,2,15.3,1.6,23c-0.2,3-0.4,5.6-1.3,8.7
									c-0.4,1.2-0.8,2.4-1.4,3.6c-0.3,0.5-0.6,1-0.9,1.5c-0.1,0.1-0.2,0.2-0.2,0.3c-0.2,0.4,0.4-0.5,0.1-0.2
									c-0.2,0.2-0.4,0.4-0.5,0.6c-0.2,0.2-0.4,0.4-0.5,0.5c-0.8,0.7,0.7-0.5,0,0c-0.1,0.1-0.2,0.1-0.3,0.2
									c-0.5,0.4,0.9-0.5,0.6-0.4c-0.1,0-0.2,0.1-0.3,0.2c-0.7,0.4,1.4-0.7,0.8-0.4c-0.8,0.4,1.8-0.7,0.7-0.3
									c-0.7,0.2,1.8-0.5,1-0.3c-0.8,0.2,1.1-0.2,0.8-0.2C35-20,34.8-20,34.7-20c-0.8,0.1,1.3-0.1,0.6-0.1c-0.3,0-0.7,0-1,0.1
									c-0.2,0,1,0,0.4,0c-0.2,0-0.3,0-0.5,0c-0.3,0-0.7,0-1-0.1c-0.3,0-0.6-0.1-0.9-0.2c0.9,0.1-0.2-0.1-0.5-0.1
									c-1.3-0.4-2.5-1-3.7-1.7c-5.6-3.4-9.6-9.3-13.1-15.1c-4.2-7.2-7.6-14.9-10.6-22.6C1.8-67-0.6-74.2-2.7-81.5
									c-1.2-4-2.3-8.1-3.3-12.1c0-0.2-0.1-0.4-0.1-0.6c-0.2-0.6-1.7-0.5-2-0.5c-1.4,0.1-2.9,0.5-4.2,1c-1.3,0.5-2.7,1.1-3.8,1.9
									C-16.7-91.5-17.6-90.9-17.5-90.2L-17.5-90.2z"/>
							</g>
						</g>
						<g>
							<path class="st5" d="M-120.5-133.3c0,0-32.1,49.7-28.5,60.5c3.6,10.8,26.3,1.6,58.7-36.4"/>
							<g>
								<path class="st6" d="M-125.3-136.9c-3.3,5.2-6.5,10.4-9.6,15.7c-5.8,9.8-11.4,19.8-15.8,30.3c-1.6,3.8-3.2,7.8-3.7,11.8
									c-0.5,4.1,0.5,8,3.5,11c7.3,7.3,17.6,3.7,25.4-0.8c5.6-3.3,10.7-7.3,15.6-11.5c6.9-6,13.3-12.5,19.4-19.3
									c1.7-1.9,3.4-3.9,5.1-5.8c1.8-2.1-0.7-5.5-2.4-6.8c-1.9-1.4-5.3-2.7-7.2-0.5c-6,7-12.3,13.8-19,20.2
									c-1.4,1.3-2.8,2.6-4.2,3.9c-0.5,0.4,0.5-0.4,0,0c-0.2,0.2-0.4,0.3-0.5,0.5c-0.3,0.3-0.6,0.5-0.9,0.8
									c-0.7,0.6-1.4,1.2-2.2,1.8c-2.4,2-4.9,3.9-7.5,5.6c-2.1,1.4-4.3,2.8-6.5,3.9c-1,0.5-2,1-3,1.4c-0.2,0.1-0.4,0.2-0.6,0.3
									c-0.2,0.1-1.1,0.4-0.3,0.1c0.8-0.3,0,0-0.2,0c-0.2,0.1-0.5,0.2-0.7,0.2c-0.8,0.2-1.6,0.5-2.5,0.6c-0.4,0.1-0.7,0.1-1.1,0.1
									c-0.2,0-0.3,0-0.5,0c0,0,1.4,0,0.5,0c-0.3,0-0.6,0-0.9,0c-0.2,0-0.3,0-0.5-0.1c-0.8-0.1,1.6,0.4,0.7,0.1
									c-0.2-0.1-0.5-0.1-0.7-0.2c-0.8-0.2,1.5,0.7,0.9,0.4c-0.1-0.1-0.3-0.1-0.4-0.2c-0.8-0.4,1.6,1.2,0.6,0.4
									c-1-0.8,1.2,1.3,0.5,0.5c-0.1-0.1-0.2-0.2-0.3-0.3c-0.5-0.5,1,1.5,0.6,0.8c-0.3-0.6-0.5-1.4,0.1,0.4
									c-0.1-0.3-0.2-0.5-0.3-0.8c0-0.1-0.1-0.2-0.1-0.3c-0.1-0.3,0.2,1.5,0.2,0.6c0-0.6-0.1-1.2-0.1-1.8c0-0.5-0.1,1.3,0,0.4
									c0-0.2,0-0.4,0.1-0.6c0.1-0.4,0.1-0.8,0.2-1.2c0.2-0.9,0.4-1.8,0.7-2.7c0.6-2,1.3-4,2.1-6c0.9-2.3,2-4.6,3-6.9
									c0.2-0.5,0.4-0.7,0-0.1c0.2-0.3,0.3-0.6,0.4-0.9c0.3-0.6,0.6-1.2,0.9-1.9c0.6-1.3,1.3-2.5,1.9-3.7c2.5-4.9,5.2-9.7,8-14.4
									c3.5-6,7.1-11.8,10.7-17.6c0.1-0.1,0.1-0.2,0.2-0.3c1.5-2.3-0.4-5.4-2.4-6.8C-119.8-137.6-123.7-139.3-125.3-136.9
									L-125.3-136.9z"/>
							</g>
						</g>
						<g>
							<path class="st5" d="M-155.1-208.2c0,0,16.8,101.9,94.7,113.9s91.1-9.6,118.7-24s55.2-63.6,57.6-93.5"/>
							<g>
								<path class="st6" d="M-161-207.9c0.6,3.7,1.5,7.4,2.5,11.1c2.4,9.3,5.4,18.5,9.1,27.4c4.7,11.5,10.5,22.5,17.6,32.7
									c7.9,11.3,17.4,21.5,28.8,29.4c6.1,4.2,12.7,7.8,19.7,10.5c8.5,3.3,17.1,5.1,26.1,6.4C-38-87.7-18.2-86.3,1.2-89
									c12.3-1.7,24-5.6,35-11.5c8.5-4.6,16.4-10.2,24.9-14.9c7-3.8,13.2-8.4,18.9-13.9c6.7-6.6,12.5-14,17.7-21.8
									c10.1-15,18.5-32,22.5-49.8c0.8-3.7,1.5-7.5,1.8-11.3c0.1-1-1.2-1.9-1.9-2.2c-1.2-0.6-2.9-0.8-4.3-0.7
									c-2.2,0.2-5.6,0.9-5.8,3.6c-0.1,1.8-0.4,3.6-0.7,5.4c-0.1,0.4-0.1,0.8-0.2,1.2c-0.2,1,0.1-0.4,0,0.2c0,0.2-0.1,0.4-0.1,0.6
									c-0.2,1-0.4,2-0.7,3c-1,4-2.2,8-3.5,11.9c-3.1,8.7-7,17-11.4,25.1c-2.3,4-4.7,8-7.3,11.9c-0.8,1.2-0.9,1.3-1.7,2.4
									c-0.7,1-1.4,1.9-2.1,2.9c-1.4,1.9-2.8,3.7-4.3,5.5c-2.8,3.4-5.7,6.6-8.8,9.7c-1.5,1.5-3,2.9-4.6,4.2c-0.4,0.3-0.8,0.7-1.2,1
									c-0.2,0.1-0.3,0.3-0.5,0.4c0.1-0.1,0.8-0.6,0.1-0.1c-0.8,0.6-1.6,1.2-2.4,1.8c-4.7,3.3-9.9,5.8-14.8,8.8c-4,2.4-8,5-12,7.5
									c-2,1.2-4.1,2.4-6.2,3.6c-1.1,0.6-2.1,1.1-3.2,1.7c-1.1,0.5,1.1-0.5,0.1-0.1c-0.3,0.1-0.6,0.3-0.9,0.4
									c-0.6,0.3-1.2,0.5-1.8,0.8c-2.4,1.1-4.9,2.1-7.4,2.9c-0.6,0.2-1.3,0.4-1.9,0.6c-0.3,0.1-0.7,0.2-1,0.3
									c-0.2,0-0.3,0.1-0.5,0.1c-1.1,0.3,1.1-0.3,0.5-0.1c-1.4,0.4-2.9,0.8-4.3,1.1c-3.2,0.8-6.5,1.3-9.8,1.8
									c-1.4,0.2,1.1-0.1,0.1,0c-0.4,0.1-0.9,0.1-1.3,0.2c-1,0.1-1.9,0.2-2.9,0.3c-1.9,0.2-3.8,0.3-5.7,0.4c-2,0.1-4.1,0.2-6.1,0.2
									c-1.1,0-2.2,0-3.3,0c-0.5,0-1,0-1.5,0c-1,0,0.3,0,0.5,0c-0.4-0.1-0.8,0-1.2,0c-5-0.1-10-0.5-15-0.9
									c-5.7-0.5-11.3-1.2-17-2.1c-1.3-0.2-2.6-0.4-3.8-0.6c-0.2,0-0.4-0.1-0.7-0.1c1.5,0.2,0.8,0.1,0.5,0.1
									c-0.5-0.1-1.1-0.2-1.6-0.3c-1.9-0.4-3.8-0.8-5.6-1.3c-1.8-0.5-3.6-1-5.4-1.6c-0.4-0.1-0.8-0.3-1.2-0.4
									c-0.8-0.3,0.3,0.1,0.4,0.1c-0.2-0.1-0.5-0.2-0.7-0.3c-0.9-0.3-1.7-0.7-2.6-1c-3.3-1.3-6.5-2.9-9.6-4.6
									c-0.8-0.4-1.5-0.9-2.3-1.3c-0.3-0.2-0.7-0.4-1-0.6c-0.2-0.1-0.3-0.2-0.5-0.3c-0.8-0.5,0.7,0.5,0,0c-1.5-0.9-2.9-1.9-4.3-2.9
									c-2.8-2-5.4-4.1-7.9-6.4c-2.5-2.2-4.9-4.6-7.2-7c-1.1-1.2-2.3-2.5-3.4-3.7c0.7,0.7-0.1-0.1-0.3-0.3c-0.3-0.3-0.5-0.6-0.8-1
									c-0.6-0.7-1.1-1.4-1.7-2c-7.8-9.8-14.1-20.7-19.3-32c-2.3-5-4.4-10.1-6.2-15.3c-0.8-2.3-1.6-4.6-2.3-6.9
									c-0.3-1.1-0.7-2.2-1-3.3c0.3,1.1,0.1,0.2,0,0c-0.1-0.3-0.2-0.5-0.2-0.8c-0.2-0.5-0.3-1.1-0.5-1.6c-1.4-5-2.7-10.1-3.7-15.3
									c0-0.2-0.1-0.5-0.1-0.7c-0.4-2.6-4-3.1-6.2-3C-156.9-211.4-161.5-210.5-161-207.9L-161-207.9z"/>
							</g>
						</g>
						<g>
							<path class="st5" d="M-72.9-115.3c0,0-26.4,89.9,1.2,94.7s43.2-92.3,43.2-92.3"/>
							<g>
								<path class="st6" d="M-77.9-118.6c-1,3.4-1.9,6.9-2.8,10.3c-1.9,7.7-3.7,15.5-5.1,23.3c-1.7,9.3-3.1,18.6-3.5,28.1
									c-0.4,8-0.3,16.6,2.3,24.3c2.7,7.9,9.8,14.9,18.4,16c3.1,0.4,6.3,0,9.1-1.5c2.8-1.5,5.3-3.8,7.3-6.2
									c5.2-6.1,8.7-13.6,11.7-21c3.6-8.8,6.4-17.9,8.9-27.1c2.2-7.9,4-16,5.7-24c0.9-4.4,1.8-8.8,2.5-13.2c0-0.2,0.1-0.4,0.1-0.6
									c0.1-0.9-0.9-2.2-1.4-2.8c-1-1.1-2.4-2.1-3.7-2.8c-1.3-0.6-4.8-2.1-5.2,0.3c-0.5,3-1,5.9-1.6,8.8c-1.4,7.2-3,14.3-4.7,21.4
									c-1.1,4.3-2.2,8.7-3.5,13c-0.2,0.6,0-0.1-0.1,0.4c-0.1,0.3-0.2,0.5-0.2,0.8c-0.2,0.6-0.4,1.2-0.5,1.8
									c-0.3,1.1-0.7,2.2-1,3.3c-0.7,2.2-1.4,4.3-2.2,6.5c-2.8,8-6,15.9-10.5,23.1c-1.8,2.9-3.8,5.6-6.3,8
									c-0.3,0.3-0.5,0.5-0.8,0.8c-0.1,0.1-0.3,0.2-0.4,0.4c-0.5,0.4,0.2-0.2,0,0c-0.6,0.4-1.1,0.8-1.7,1.2
									c-1.1,0.7-2.3,1.2-3.5,1.6c-0.1,0-0.3,0.1-0.5,0.1c-0.6,0.2,0-0.1,0.3,0c-0.2-0.1-0.7,0.1-1,0.1c-0.6,0.1-1.2,0.1-1.9,0
									c-0.7,0,1,0.1,0.5,0c-0.1,0-0.3,0-0.4-0.1c-0.4-0.1-0.7-0.1-1.1-0.2c-0.8-0.2,1.2,0.4,0.6,0.2c-0.2-0.1-0.3-0.1-0.5-0.2
									c-0.2-0.1-0.3-0.1-0.5-0.2c-0.9-0.3,1.2,0.6,0.7,0.3c-0.3-0.2-1.4-0.8-0.2,0c1.4,0.8,0-0.1-0.2-0.2c0,0,1.5,1.2,0.8,0.6
									c-0.1-0.1-0.2-0.2-0.4-0.3c-0.1,0-0.3-0.3-0.4-0.3c0.2,0,1.2,1.3,0.6,0.5c-0.2-0.2-0.4-0.5-0.7-0.7
									c-0.5-0.5,0.8,1.1,0.4,0.6c-0.1-0.2-0.2-0.3-0.3-0.5c-0.4-0.6-0.7-1.2-1.1-1.8c0.8,1.2,0.1,0.3-0.1-0.2
									c-0.2-0.4-0.3-0.7-0.5-1.1c-0.3-0.7-0.5-1.5-0.8-2.3c-0.2-0.8-0.4-1.6-0.6-2.4c0-0.2-0.1-0.4-0.1-0.6c0-0.1,0-0.2-0.1-0.4
									c0,0,0.1,0.7,0.1,0.4c-0.1-0.5-0.2-1-0.2-1.4c-0.6-3.9-0.8-7.9-0.8-11.9c0.1-9.2,1.2-18.3,2.7-27.3c1.4-8.2,3.1-16.4,5-24.6
									c1.1-4.5,2.2-9,3.5-13.5c0.1-0.3,0.4-1.4,0,0c0.7-2.3-1.8-4.4-3.6-5.5c-1.2-0.8-2.5-1.5-3.9-1.7
									C-76-119.2-77.7-119.5-77.9-118.6L-77.9-118.6z"/>
							</g>
						</g>
						<g>
							<path class="st5" d="M35-129.7c0,0,49.2,65.9,67.1,58.8c18-7.2-34.8-87.5-34.8-87.5"/>
							<g>
								<path class="st6" d="M29.2-129.1c2.1,2.8,4.3,5.6,6.5,8.3c4.7,6,9.6,11.8,14.7,17.6c5.9,6.7,12.1,13.3,18.8,19.4
									c5.7,5.2,11.9,10.5,19,13.7c3.8,1.7,7.7,2.8,11.9,2.7c3.6-0.1,7.3-1,9.8-3.8c3.2-3.7,2.1-9.7,1.1-13.9
									c-1.7-7.3-4.6-14.2-7.7-20.9c-3.6-7.8-7.6-15.3-11.8-22.8c-3.7-6.6-7.5-13-11.4-19.4c-2.1-3.4-4.3-6.8-6.4-10.2
									c-0.1-0.2-0.2-0.3-0.3-0.5c-1.4-2.2-4.9-2.6-7.3-2.4c-1.2,0.1-5.8,1.2-4.3,3.5c1.5,2.3,2.9,4.6,4.4,6.9
									c3.5,5.6,7,11.3,10.3,17.1c4.2,7.2,8.2,14.4,11.9,21.8c3.5,7,6.8,14.1,9.3,21.5c0.5,1.6,1,3.1,1.4,4.7
									c0.1,0.3,0.2,0.7,0.3,1c0.2,0.6-0.1-0.3,0-0.1c0,0.2,0.1,0.4,0.1,0.6c0.1,0.7,0.3,1.4,0.4,2.1c0.4,2.2,0.5,4.6,0,6.8
									c0,0.1-0.1,0.2-0.1,0.3c-0.1,0.5,0-0.3,0.1-0.4c-0.1,0.1-0.2,0.5-0.3,0.7c-0.2,0.4-0.4,0.7-0.6,1.1
									c-0.1,0.2-0.3,0.3-0.4,0.5c-0.2,0.3,0.7-0.6,0.4-0.4c-0.1,0.1-0.2,0.2-0.2,0.2c-0.2,0.1-0.3,0.2-0.5,0.4
									c-0.7,0.5,1.1-0.5,0.3-0.2c-0.2,0.1-0.4,0.2-0.6,0.2c-0.7,0.3,1.3-0.3,0.7-0.2c-0.1,0-0.3,0.1-0.4,0.1
									c-1.1,0.3,1.2-0.1,0.6-0.1c-0.4,0-1.5,0.1-0.1,0c1.4,0,0.3,0,0,0c-1.1,0,1.9,0.3,0.5,0.1c-0.3,0-0.6-0.1-0.8-0.1
									c-1.1-0.2,1.6,0.5,0.4,0.1c-0.6-0.2-1.3-0.4-1.9-0.6c-0.2-0.1-0.3-0.1-0.5-0.2c-0.6-0.2,1.3,0.6,0.5,0.2
									c-0.3-0.2-0.7-0.3-1-0.5c-1.5-0.7-2.9-1.5-4.2-2.4c-0.3-0.2-0.7-0.4-1-0.7c-0.2-0.1-0.3-0.2-0.5-0.3c-0.8-0.6,0.5,0.4,0.1,0
									c-0.8-0.5-1.5-1.1-2.3-1.7c-1.6-1.2-3.1-2.4-4.5-3.7c-6.7-5.7-12.8-12-18.7-18.4c-5.4-5.9-10.6-12.1-15.7-18.3
									c-1-1.2-1.9-2.4-2.9-3.6c-0.1-0.1-0.6-0.7-0.1-0.2c0.4,0.5,0,0-0.1-0.1c-0.2-0.3-0.4-0.5-0.6-0.8c-0.4-0.5-0.8-1-1.1-1.4
									c-1-1.3-1.9-2.5-2.9-3.8c-0.1-0.2-0.3-0.3-0.4-0.5c-1.6-2.1-4.8-2.7-7.3-2.4c-1.2,0.2-2.6,0.4-3.6,1.2
									C29.3-130.9,28.6-129.9,29.2-129.1L29.2-129.1z"/>
							</g>
						</g>
					</g>
					<polyline class="st5" points="-142.5,-231.6 -13.3,-301 96.1,-313.2 101.2,-207.1 49.1,-179.2 -133.6,-182.7 					"/>
				</g>
			</g>
			<g>
				<path class="st7" d="M666.8,293c0,161.8-130.7,293-291.9,293C213.7,586,83.1,454.8,83.1,293C83.1,131.2,213.7,0,374.9,0
					C536.1,0,666.8,131.2,666.8,293z M83.1,293C-78,293-208.7,161.8-208.7,0c0-161.8,130.7-293,291.9-293h583.7
					C828-293,958.7-161.8,958.7,0c0,161.8-130.7,293-291.9,293H83.1z M666.9-293C666.9-131.2,536.2,0,375,0S83.1-131.2,83.1-293
					S213.8-586,375-586S666.9-454.8,666.9-293z"/>
			</g>
		</g>
	</g>
</g>
<g>
	<path class="st6" d="M173.2,158.3c-6.8,0-11.9-1.4-16.3-5.9l5.6-5.6c2.8,2.8,6.6,3.8,10.7,3.8c5.2,0,8-2,8-5.6
		c0-1.5-0.4-2.8-1.4-3.7c-0.9-0.8-1.8-1.2-4-1.5l-5.3-0.8c-4-0.6-6.6-1.8-8.7-3.7c-2.1-2.1-3.2-5-3.2-8.8c0-8,5.9-13.5,15.6-13.5
		c6.1,0,10.6,1.5,14.4,5.2l-5.5,5.5c-2.8-2.7-6.2-3.1-9.2-3.1c-4.6,0-6.8,2.6-6.8,5.6c0,1.2,0.3,2.3,1.3,3.2
		c0.9,0.8,2.2,1.4,4.1,1.7l5.3,0.8c4.1,0.6,6.6,1.6,8.5,3.5c2.4,2.2,3.5,5.4,3.5,9.4C189.8,153.4,182.6,158.3,173.2,158.3z"/>
	<path class="st6" d="M197.1,157.9v-44.7h29.4v7.8h-20.7v10.5h17.6v7.8h-17.6v10.9h20.7v7.8H197.1z"/>
	<path class="st6" d="M234.2,157.9v-44.7h8.7v36.9h20.3v7.8H234.2z"/>
	<path class="st6" d="M269.4,157.9v-44.7h29.4v7.8h-20.7v10.5h17.6v7.8h-17.6v10.9h20.7v7.8H269.4z"/>
	<path class="st6" d="M321.4,158.3c-5.1,0-8.9-1.7-12-4.7c-4.5-4.5-4.5-9.5-4.5-18s0.1-13.5,4.5-18c3.1-3,6.8-4.7,12-4.7
		c8.3,0,14.7,4.8,16.4,14.1h-8.9c-0.9-3.6-3.1-6.3-7.5-6.3c-2.4,0-4.3,0.9-5.6,2.3c-1.6,1.9-2.2,4.1-2.2,12.6s0.6,10.7,2.2,12.6
		c1.3,1.4,3.2,2.3,5.6,2.3c4.3,0,6.6-2.7,7.5-6.3h8.8C336.2,153.5,329.7,158.3,321.4,158.3z"/>
	<path class="st6" d="M360.9,121.1v36.9h-8.7v-36.9h-11.7v-7.8h32.1v7.8H360.9z"/>
	<path class="st6" d="M378.8,157.9v-44.7h8.7v44.7H378.8z"/>
	<path class="st6" d="M413.3,157.9h-6.5L392,113.3h9l9,29.1l9-29.1h9.1L413.3,157.9z"/>
	<path class="st6" d="M432.6,157.9v-44.7H462v7.8h-20.7v10.5h17.6v7.8h-17.6v10.9H462v7.8H432.6z"/>
	<path class="st6" d="M512.9,151.4c-3.2,4.5-7.4,6.5-13.5,6.5h-16.1v-44.7h16.1c6.1,0,10.3,2.1,13.5,6.5c2.8,3.8,2.8,8.4,2.8,15.8
		S515.7,147.6,512.9,151.4z M505.2,123.8c-1.4-1.8-3.6-2.8-6.5-2.8h-6.7v29.1h6.7c2.9,0,5.1-0.9,6.5-2.8c1.6-1.9,1.8-4.8,1.8-11.8
		C507,128.6,506.9,125.8,505.2,123.8z"/>
	<path class="st6" d="M547.5,157.9l-8.7-17.8h-6.3v17.8h-8.7v-44.7h17.5c9.1,0,14.5,6.2,14.5,13.7c0,6.3-3.8,10.2-8.2,11.7l10,19.3
		H547.5z M540.7,121.1h-8.2v11.8h8.2c3.8,0,6.3-2.4,6.3-5.9C547.1,123.5,544.6,121.1,540.7,121.1z"/>
	<path class="st6" d="M580.7,139.6v18.3H572v-18.3l-13.4-26.3h9.5l8.3,18l8.2-18h9.5L580.7,139.6z"/>
	<path class="st6" d="M132.6,219.3c-5.1,0-8.9-1.7-12-4.7c-4.5-4.5-4.5-9.5-4.5-18s0.1-13.5,4.5-18c3.1-3,6.8-4.7,12-4.7
		c8.3,0,14.7,4.8,16.4,14.1h-8.9c-0.9-3.6-3.1-6.3-7.5-6.3c-2.4,0-4.3,0.9-5.6,2.3c-1.6,1.9-2.2,4.1-2.2,12.6s0.6,10.7,2.2,12.6
		c1.3,1.4,3.2,2.3,5.6,2.3c4.3,0,6.6-2.7,7.5-6.3h8.8C147.4,214.5,140.9,219.3,132.6,219.3z"/>
	<path class="st6" d="M181.9,214.6c-3,3-6.8,4.7-11.9,4.7s-9-1.7-12-4.7c-4.5-4.5-4.5-9.5-4.5-18s0.1-13.5,4.5-18
		c3-3,6.8-4.7,12-4.7s8.9,1.7,11.9,4.7c4.5,4.5,4.6,9.5,4.6,18S186.4,210.2,181.9,214.6z M175.6,184.1c-1.3-1.4-3.2-2.4-5.6-2.4
		s-4.3,0.9-5.6,2.4c-1.6,1.9-2.1,4-2.1,12.5s0.5,10.6,2.1,12.5c1.3,1.4,3.3,2.4,5.6,2.4s4.3-1,5.6-2.4c1.6-1.9,2.2-4,2.2-12.5
		S177.2,185.9,175.6,184.1z"/>
	<path class="st6" d="M232,218.9h-7.3l-8.2-27.1l-8.2,27.1H201l-11.9-44.7h9.1l6.9,28.2l8.2-28.2h6.5l8.2,28.2l7-28.2h9.1L232,218.9
		z"/>
	<path class="st6" d="M279.4,182.1v36.9h-8.7v-36.9H259v-7.8h32.1v7.8H279.4z"/>
	<path class="st6" d="M321,218.9l-8.7-17.8H306v17.8h-8.7v-44.7h17.5c9.1,0,14.5,6.2,14.5,13.7c0,6.3-3.8,10.2-8.2,11.7l10,19.3H321
		z M314.2,182.1H306v11.8h8.2c3.8,0,6.3-2.4,6.3-5.9C320.6,184.5,318.1,182.1,314.2,182.1z"/>
	<path class="st6" d="M337.5,218.9v-44.7h29.4v7.8h-20.7v10.5h17.6v7.8h-17.6v10.9h20.7v7.8H337.5z"/>
	<path class="st6" d="M399.9,218.9l-2.6-7.9h-15.9l-2.7,7.9h-9.1l16.2-44.7h6.8l16.3,44.7H399.9z M389.5,187.4l-5.6,16.2H395
		L389.5,187.4z"/>
	<path class="st6" d="M426.3,182.1v36.9h-8.7v-36.9H406v-7.8H438v7.8H426.3z"/>
	<path class="st6" d="M476,218.9v-26l-8.5,16.9h-5.9l-8.6-16.9v26h-8.7v-44.7h8.6l11.7,24.2l11.6-24.2h8.6v44.7H476z"/>
	<path class="st6" d="M494.2,218.9v-44.7h29.4v7.8h-20.7v10.5h17.6v7.8h-17.6v10.9h20.7v7.8H494.2z"/>
	<path class="st6" d="M557.7,218.9L540,191.5v27.4h-8.7v-44.7h7.8l17.7,27.4v-27.4h8.7v44.7H557.7z"/>
	<path class="st6" d="M592.1,182.1v36.9h-8.7v-36.9h-11.7v-7.8h32.1v7.8H592.1z"/>
	<path class="st6" d="M632.2,194.3l-4.6,6.1c-0.6,0.8-1.1,2.1-1.1,3.2v1.3h-8.2v-1.9c0-2.7,0.8-4.4,2.4-6.5l4.6-6
		c1-1.3,1.8-2.8,1.8-4.2c0-2.9-1.9-5.1-5.1-5.1c-3.3,0-5,2.3-5,5.2h-8.2c0-7.8,5.9-12.5,13.2-12.5c7.1,0,13.2,4.6,13.2,12.5
		C635.3,189.6,634,192,632.2,194.3z M618.1,218.9v-8.3h8.7v8.3H618.1z"/>
</g>
<g>
	<path class="st8" d="M354.2,96.9V52.3h4.8v44.7H354.2z"/>
	<path class="st8" d="M383.3,97.3c-6.6,0-11.1-1.7-15.2-5.9l3.2-3.2c3.7,3.7,7.2,4.8,12.2,4.8c6.6,0,10.6-3,10.6-8.3
		c0-2.4-0.7-4.3-2.2-5.6c-1.4-1.3-2.6-1.7-5.8-2.2l-5.2-0.8c-3.5-0.6-6.1-1.6-8.2-3.4c-2.3-2-3.4-4.8-3.4-8.4
		c0-7.6,5.5-12.5,14.3-12.5c5.7,0,9.5,1.5,13.3,4.9l-3.1,3.1c-2.7-2.6-5.8-3.9-10.4-3.9c-6,0-9.5,3.3-9.5,8.3c0,2.2,0.6,4,2,5.2
		c1.4,1.2,3.5,1.9,5.8,2.3l5.2,0.8c4.1,0.6,6.1,1.4,8.1,3.2c2.4,2.1,3.8,5.1,3.8,8.8C398.8,92.5,392.7,97.3,383.3,97.3z"/>
</g>
<g>
	<path class="st8" d="M260.5,278.9h-4.5l-9.9-35.8l-9.9,35.8h-4.5l-11.4-44.7h5.1l8.7,36l9.8-36h4.3l9.8,36l8.7-36h5.1L260.5,278.9z
		"/>
	<path class="st8" d="M303.8,274.9c-2.8,2.8-6.5,4.4-11.1,4.4c-4.6,0-8.4-1.6-11.2-4.4c-4.2-4.2-4.5-8.1-4.5-18.3
		c0-10.2,0.3-14.1,4.5-18.3c2.8-2.8,6.5-4.4,11.2-4.4c4.6,0,8.3,1.6,11.1,4.4c4.2,4.2,4.5,8.1,4.5,18.3
		C308.3,266.8,308,270.7,303.8,274.9z M300.4,241.3c-2.1-2.1-4.7-3.1-7.7-3.1c-3,0-5.6,1.1-7.7,3.1c-2.8,2.9-3.1,6.1-3.1,15.3
		c0,9.2,0.3,12.4,3.1,15.3c2.1,2.1,4.7,3.1,7.7,3.1c3,0,5.6-1.1,7.7-3.1c2.8-2.9,3.1-6.1,3.1-15.3
		C303.6,247.4,303.3,244.2,300.4,241.3z"/>
	<path class="st8" d="M345.2,278.9l-10.2-19.8h-10.7v19.8h-4.8v-44.7h17.1c7.8,0,13.2,4.7,13.2,12.4c0,6.5-4,10.8-9.7,12l10.6,20.3
		H345.2z M336.3,238.5h-11.9v16.4h11.9c5.2,0,8.9-2.7,8.9-8.2C345.2,241.3,341.5,238.5,336.3,238.5z"/>
	<path class="st8" d="M388.5,278.9l-13.6-23.8l-9.4,11.3v12.5h-4.8v-44.7h4.8v25.7l20.8-25.7h5.8l-14.1,17.3l16.1,27.4H388.5z"/>
	<path class="st8" d="M401.5,278.9v-44.7h4.8v44.7H401.5z"/>
	<path class="st8" d="M447.7,278.9L424,243.1v35.8h-4.8v-44.7h4.5l23.7,35.7v-35.7h4.8v44.7H447.7z"/>
	<path class="st8" d="M491,274.2c-3.1,3.5-7.3,5.1-11.9,5.1c-4.6,0-8.4-1.6-11.2-4.4c-4.2-4.2-4.5-8.1-4.5-18.3
		c0-10.2,0.3-14.1,4.5-18.3c2.8-2.8,6.5-4.4,11.2-4.4c8.4,0,14.4,5.6,15.6,13.4h-4.8c-1.3-5.7-5.3-9.1-10.9-9.1
		c-3.1,0-5.7,1.1-7.7,3.1c-2.8,2.9-3.1,6.1-3.1,15.3c0,9.2,0.3,12.4,3.1,15.3c2,2.1,4.6,3.1,7.7,3.1c3.3,0,6.4-1.3,8.5-3.8
		c1.8-2.3,2.5-4.7,2.5-8.1v-3.5h-11v-4.1h15.7v7.1C494.8,267.8,493.8,271,491,274.2z"/>
	<path class="st8" d="M524.9,252.9l-5.1,7.4c-0.8,1.1-1.1,2.6-1.1,3.6v2.4h-4.5v-2.5c0-2.4,0.6-4,1.9-5.9l5.1-7.3
		c1.2-1.8,2.1-3.2,2.1-5.3c0-4.2-3-7.4-7.2-7.4c-4.5,0-7.3,3.5-7.3,7.5h-4.5c0-6.4,5-11.5,11.8-11.5c6.6,0,11.7,4.7,11.7,11.4
		C527.7,248.3,526.5,250.5,524.9,252.9z M513.7,278.9v-5.3h5.4v5.3H513.7z"/>
</g>
<g>
	<g>
		<g>
			<path class="st6" d="M494.7,448.1c-0.2,0.1,0.4,0.8,0.6,3.1c0.3,3.2-1.2,8.2-1.2,8.2s-3.5,16.1-6.5,22.1c-3,6-4.6,21-4.6,25.5
				c0.1,4.4-3.3,3.2-7.2,4.4c-3.9,1.2-1.4,6.2-1.4,6.2s-0.6,2.1-7.8,2.8c-7.2,0.8-11.3,0-11.3,0s1.9-1.4,3.2-4.4
				c1.3-3,5.4-5.8,5.4-5.8s2.5-3.1,4.6-6.5c2.1-3.4,6.5-15.2,6.5-15.2s2.6-13.2,3.9-20.6c0.8-4.6,0.2-8.4-0.3-10.6
				C478.6,457.1,484.8,455.8,494.7,448.1z"/>
			<g>
				<path class="st5" d="M493.2,447.6c-0.4,0.6-0.2,1.1,0,1.7c0.3,1.1,0.5,2.2,0.5,3.3c0,1.9-0.4,3.9-0.9,5.7
					c-0.4,1.6-0.8,3.2-1.1,4.8c-0.9,3.6-1.8,7.1-2.9,10.6c-0.6,1.8-1.1,3.6-1.8,5.4c-0.5,1.4-1.2,2.7-1.8,4.1
					c-1.4,3.8-2.1,7.9-2.7,11.9c-0.5,3.5-1,7.1-1.1,10.7c0,1,0.2,2.8-0.7,3.1c-1.7,0.6-3.6,0.5-5.3,1.1c-1.8,0.6-3.2,2-3.4,4
					c-0.1,1.1,0.1,2.8,0.7,3.8c0.3,0.4,0.1-0.1,0.1-0.5c0,0.2,0.1-0.4,0.1-0.2c-0.1,0.3,0.1-0.1,0,0c-0.4,0.4,0.1,0-0.2,0.2
					c-1.5,0.9-3.6,1.3-5.5,1.5c-3.7,0.4-7.6,0.7-11.3,0c0.3,0.7,0.5,1.4,0.8,2.1c2-1.5,2.7-3.8,4.1-5.8c1.2-1.9,3.1-3,4.5-4.4
					c0.6-0.6,1.1-1.4,1.6-2c1.1-1.4,2.1-2.9,3-4.4c1.1-1.9,2-3.9,2.8-5.9c1-2.2,1.9-4.5,2.7-6.8c0.4-1.1,1-2.2,1.3-3.3
					c0.3-1.1,0.5-2.3,0.7-3.4c0.5-2.6,1-5.2,1.5-7.8c1.3-6.8,3-13.7,1.4-20.6c-0.5,0.6-1.1,1.3-1.6,1.9c1.7-0.4,3.3-1.1,4.9-1.8
					c4.4-2.1,8.5-4.8,12.4-7.8c0.6-0.5,0.6-1.5,0-1.9c-0.8-0.5-1.8-0.1-2.4,0.3c-3.4,2.7-7.1,5.2-11.1,7c-1,0.5-2,0.9-3,1.2
					c-0.3,0.1-0.6,0.2-0.8,0.3c-0.5,0.2,0.1,0,0.1,0c-0.9,0.2-1.9,0.9-1.6,1.9c1.4,5.9,0,11.8-1.1,17.7c-0.8,4.2-1.4,8.5-2.4,12.6
					c-0.2,0.7-0.5,1.5-0.8,2.2c-0.8,2.1-1.6,4.2-2.5,6.2c-0.8,2-1.6,4-2.7,6c-1.3,2.4-3,4.6-4.6,6.8c-0.1,0.1-0.2,0.2-0.3,0.4
					c0,0,0.8-0.6,0.5-0.5c-0.4,0.2-0.8,0.6-1.1,0.8c-1.1,0.9-2.2,1.9-3.1,2.9c-1.8,2-2.4,4.9-4.6,6.6c-1.1,0.8-0.3,2,0.8,2.1
					c3.1,0.6,6.3,0.4,9.4,0.2c3.5-0.2,8.4-0.5,11-3.2c0.5-0.5,0.9-1.1,0.7-1.9c-0.3-1.1-0.9-2-0.7-3.1c0.2-1.7,2.5-1.5,3.8-1.7
					c1.8-0.3,3.7-0.7,4.8-2.2c0.9-1.4,0.7-3.1,0.8-4.6c0.1-1.7,0.2-3.4,0.4-5.1c0.4-4.2,1.1-8.3,2-12.4c0.4-1.8,0.9-3.6,1.7-5.3
					c0.6-1.5,1.3-2.9,1.9-4.4c1.4-3.8,2.4-7.6,3.4-11.5c0.6-2.3,1.1-4.7,1.7-7c0.4-1.7,0.9-3.4,1.1-5.2c0.2-1.3,0.2-2.5,0.1-3.8
					c-0.1-0.7-0.2-1.3-0.4-2c0-0.1-0.1-0.3-0.1-0.4c-0.3-0.4,0.1-0.1-0.3,0.5c0.5-0.7,0.1-1.5-0.6-1.8
					C494.7,446.5,493.7,446.9,493.2,447.6z"/>
			</g>
		</g>
	</g>
	<path class="st9" d="M494.7,448.1"/>
	<g>
		<g>
			<g>
				<path class="st10" d="M466.2,458c0,0-4.1,17-9.5,16.2c-5.5-0.8,0.8-20.1,0.8-20.1"/>
				<g>
					<path class="st5" d="M465,458.4c-0.5,2-1.1,4-1.8,5.9c-0.6,1.7-1.2,3.3-2,4.9c-0.7,1.4-1.5,2.8-2.6,3.9
						c-0.1,0.1-0.4,0.3-0.4,0.3c-0.1,0-0.2,0.1-0.2,0.1c0,0,0.2-0.1,0,0c0,0-0.1,0,0,0c-0.3,0-0.7,0-1.1-0.3
						c-0.9-0.6-1.1-1.9-1.2-2.9c-0.3-3.2,0.4-6.6,1.1-9.7c0.5-2.3,1.1-4.6,1.8-6.8c0.2-0.5-0.9-0.3-1.1-0.3c-0.5,0.1-1.1,0.5-1.3,1
						c-0.7,2.1-1.2,4.2-1.7,6.3c-0.8,3.4-1.6,7.1-1.2,10.6c0.1,1.1,0.4,2.5,1.5,3.1c1.2,0.8,3,0.3,4.2-0.3c3.1-1.7,4.7-5.4,5.9-8.5
						c1-2.6,1.9-5.4,2.6-8.1C467.6,457,465.2,457.6,465,458.4L465,458.4z"/>
				</g>
			</g>
			<g>
				<path class="st10" d="M489.8,449.1c0,0,7,10.8,6.2,13.1c-0.8,2.3-5.7,0.3-12.8-7.9"/>
				<g>
					<path class="st5" d="M488.6,449.6c1.9,2.9,3.7,5.9,5.1,9.1c0.4,0.8,0.8,1.7,1,2.6c0.1,0.5,0.3,1.2,0,1.7
						c-0.1,0.1-0.2,0.2-0.2,0.3c0,0,0,0,0,0c0.1,0,0.3-0.2,0.4-0.2c0.3-0.1,0.6-0.2,0.9-0.3c0,0,0,0-0.1,0c0,0,0.1,0,0,0
						c-0.1,0-0.1,0-0.1,0c-0.2,0-0.3,0-0.5-0.1c-0.9-0.2-1.7-0.6-2.5-1.1c-3.2-2-5.8-4.8-8.2-7.6c-0.4-0.4-2.5,0.9-2.4,0.9
						c2.3,2.7,4.9,5.5,7.9,7.5c0.8,0.5,1.8,1.1,2.7,1.3c1,0.2,2,0,3-0.4c0.7-0.3,1.4-0.7,1.6-1.4c0.2-0.7-0.1-1.5-0.4-2.2
						c-0.8-2.3-2-4.4-3.2-6.5c-0.8-1.5-1.7-2.9-2.7-4.4C490.8,448.3,488.5,449.4,488.6,449.6L488.6,449.6z"/>
				</g>
			</g>
			<g>
				<path class="st10" d="M497.3,432.8c0,0-3.6,22.1-20.6,24.7c-16.9,2.6-19.8-2.1-25.8-5.2c-6-3.1-12-13.8-12.5-20.3"/>
				<g>
					<path class="st5" d="M496.1,433c-1.3,7.6-5.1,15.9-11.4,20.5c-2.7,1.9-5.6,2.9-8.9,3.3c-3.8,0.5-7.7,0.9-11.6,0.3
						c-2.4-0.3-4.7-1.1-6.8-2.2c-1.8-1-3.4-2.1-5.2-3.1c-3.6-2-6.2-5.1-8.3-8.5c-2.1-3.5-4-7.4-4.3-11.5c-0.1-1.3-2.5-0.4-2.4,0.7
						c0.3,3.8,1.9,7.4,3.7,10.7c1.9,3.4,4.3,6.8,7.5,9.1c1.9,1.3,4,2.5,6,3.6c2.1,1.2,4.3,2.2,6.6,2.8c3.6,0.8,7.3,0.8,10.9,0.4
						c3.9-0.4,7.8-0.9,11.3-2.8c5.3-2.8,9.2-7.8,11.7-13.2c1.5-3.3,2.8-6.8,3.4-10.4C498.8,431.3,496.3,431.9,496.1,433L496.1,433z"
						/>
				</g>
			</g>
			<g>
				<path class="st10" d="M479.5,453c0,0,5.7,19.5-0.3,20.6c-6,1-9.4-20.1-9.4-20.1"/>
				<g>
					<path class="st5" d="M478.2,452.9c0.6,2.2,1.1,4.4,1.6,6.6c0.7,3.5,1.4,7.4,0.6,10.9c-0.1,0.6-0.3,1.2-0.7,1.7
						c-0.1,0.2-0.3,0.4-0.5,0.5c-0.2,0.1-0.5,0.2-0.5,0.2c-0.2,0-0.2,0-0.2,0c-0.3,0,0.1,0-0.1,0c-0.2-0.1,0.1,0.1-0.1,0
						c-0.1,0-0.1,0-0.3-0.2c-0.4-0.3-0.8-0.8-1.2-1.3c-2.1-2.9-3.1-6.6-4-10c-0.7-2.5-1.2-5.1-1.6-7.6c-0.2-0.9-2.7-1.3-2.5-0.3
						c0.4,2.4,0.9,4.8,1.5,7.2c1,3.7,2,7.8,4.3,10.9c0.9,1.3,2.1,2.4,3.7,2.8c1.5,0.3,3.1,0,4-1.3c0.9-1.3,1.1-3,1.1-4.5
						c0.1-2.1-0.1-4.1-0.5-6.2c-0.5-3.1-1.1-6.1-2-9.1C480.5,452.2,478,451.9,478.2,452.9L478.2,452.9z"/>
				</g>
			</g>
			<g>
				<path class="st10" d="M456.1,449.9c0,0-10.7,14.3-14.6,12.8s7.6-19,7.6-19"/>
				<g>
					<path class="st5" d="M454.8,449.7c-1.3,1.8-2.7,3.4-4.1,5.1c-2.2,2.5-4.6,5.3-7.5,6.9c-0.2,0.1-0.6,0.3-0.7,0.3
						c-0.2,0.1-0.6,0.1-0.3,0.1c-0.2,0,0.1,0,0,0c0.3,0.1,0,0,0,0c0,0,0.1,0.1,0,0c0,0-0.1-0.2-0.1-0.2c-0.4-0.9,0-2.1,0.2-2.9
						c0.9-3.2,2.6-6.2,4.3-9.1c1.2-2,2.4-4,3.7-6c0.5-0.8-2-1.2-2.5-0.4c-1.2,1.8-2.3,3.7-3.4,5.6c-1.8,3.1-3.6,6.4-4.6,9.8
						c-0.3,1-0.6,2.3-0.1,3.3c0.6,1.3,2.4,1.4,3.6,1.1c1.5-0.3,2.9-1.3,4-2.2c1.5-1.2,2.9-2.6,4.3-4.1c2-2.2,4-4.5,5.8-6.9
						C457.8,449.4,455.4,449,454.8,449.7L454.8,449.7z"/>
				</g>
			</g>
		</g>
		<polyline class="st10" points="494.6,427.8 466.6,412.7 442.8,410 441.7,433.1 453,439.1 492.7,438.4 		"/>
	</g>
	<g>
		<path class="st6" d="M532.9,429c5.4,9.1,15.2,29.8,15.2,29.8s-2.6,3.2-1.9,5.4c1.9,6.3-5.5,8.1-6,8c0.3,0,1.1-7.9-8.8-22.6
			c-11-16.2-7.4-20.6-9.5-28.8c-2.1-8.2-3.2-14.6-4.4-22.9c-1.3-8.3-2.9-31.5-3.4-40c-0.1-2.4-1-6.4-2.2-10.7
			c-0.6,3.5-1.5,10.5-1.9,17.6c-0.5,10.1-0.7,23.9-1.3,36.8c-0.6,13,2.4,22.3,3.7,27.4c1.3,5.1,10.7,13.8,10.7,13.8s3.1,2.5,3.8,5.6
			c0.7,3.1-1.5,27.6-1.9,35.7c-0.4,8.1,1.6,22.8,2.9,27.5c1.3,4.7-3.4,5.6-3.9,9.3c-0.4,3.7-2.6,9.6-2.6,9.6s-4.3,1.7-10.6,3.1
			c-6.3,1.5-7.6-3.2-7.6-3.2l3.2-4.4l4.6-6.5c0,0,0.5-2.5,2-4.2c1.4-1.8,1.4-6.2,1.6-11.5c0.3-5.3-0.1-20.1-1.4-24.4
			c-1.3-4.3-2.8-7.8-4.8-14.4c-1.8-6.4-12.8-16.1-13.8-17c0,0-25.9-13.2-35.8-24.3l-20.5,8.7c-4.3,1.7-9.3,3.8-13.3,4.9
			c-6.6,1.9-7.9,4.6-32.9,8.9c-25,4.3-33.4,2.8-45,0.3c-11.5-2.4-26-2.1-26-2.1s1.3,19.6,1.1,29.3c-0.2,9.7,4.5,20.1,6.4,26.3
			c1.9,6.3-0.1,2.8-3,6c-2.9,3.1,1.3,4.3,0.4,8c-0.8,3.7-7.1,5.6-7.1,5.6s-2.4,0.3-7.3,0c-4.9-0.3-1.7-4.7-4.3-2.8
			c-2.6,1.9,0.1,4.8,0.1,4.8l-3.6,8c0,0-4.1,2.9-10.9,3.6c-6.8,0.7-7.6-3.2-7.6-3.2s6.3-5.5,8.3-9.3c2-3.8,0.7-1.3,3.6-3.6
			c3-2.3,1.7-3,3.2-8c1.5-5,0-23.4-1.7-27.2c-1.6-3.9-2-7.8-2.9-12.6c-0.9-4.7-4.1-19.7-4.1-19.7l-6.7-2.5c0,0-12.3-1.5-19.2-6.4
			c-7-4.9-7-13-12.3-24.5c-5.3-11.5-14.5-22.7-19.3-26.6c-4.9-3.9-17.1-13.1-17.1-13.1s-7.5,4.8-13.9,2.3c-6.3-2.6-4.1-0.8-13-0.6
			c-8.9,0.1-4.7,0.9-10.6,3.1c-5.8,2.2-5.2,0.1-11.3-0.4c-6.1-0.6-9.6-3.4-12-10.4c-2.4-7,4.1-6.9,8.4-11.8
			c4.3-4.9,8.4-15.8,10.7-20.5c2.3-4.7,1.1-9,1.1-9s-3.4-2.1-6.2-5c-2.7-2.9-3.6-7.3-3.6-7.3s3.1-1.1,8.3-1.7c5.2-0.5,9,1.5,9,1.5
			s0-0.4,0.9-2.5c1-2.1,7.5-5.6,12.2-6.1c4.8-0.5,14.7,5.3,14.7,5.3s1.6-0.2,3.1-1.5c1.5-1.4,3.5-1.6,3.5-1.6l2.8,8.5
			c0.7,0.2,1.7,0.5,3,1c8.4,2.7,9.9,1.8,19.3,3.2c9.4,1.4,25.2,1.8,25.2,1.8c6.8-0.3,28.7-3,28.7-3s19.3,3.6,33.1,4.6
			c13.8,1,44,1,52.5,0.9c8.5-0.1,62.9-9.1,72.2-9.4c8.3-0.3,7.1-0.6,11.8-0.4c5.9,0.2,13.6,0.1,13.6,0.1s19.5-0.2,22.4,0.7
			c2.9,0.9,7.9,2,11.5,9.3c3.6,7.3,5,24.1,5.3,27.3c0.3,3.2,1.4,29,1.4,36.7c0,7.7,5.5,27.1,5.5,27.1S527.5,419.9,532.9,429"/>
		<g>
			<path class="st5" d="M532.6,429.7c5.6,9.5,10.3,19.5,15,29.4c-0.1-0.6-0.3-1.1-0.4-1.7c-0.9,1.1-1.7,2.4-2,3.8
				c-0.4,2,0.8,3.8-0.1,5.7c-0.7,1.7-3.5,4-5.5,3.8c0.5,1,1,2.1,1.4,3.1c0.8-0.2,0.2-3.4,0.1-3.8c-0.5-3.6-1.9-7.2-3.4-10.5
				c-4.3-9.3-12.3-17.2-13.7-27.6c-0.4-2.8-0.3-5.6-0.8-8.4c-1-5.8-2.6-11.4-3.6-17.2c-1.6-9.2-2.5-18.4-3.2-27.7
				c-0.4-5.1-0.8-10.2-1.1-15.3c-0.3-5.4-1.2-10.4-2.5-15.6c-0.1-0.3-1.6-3-1.8-1.7c-1.4,9.2-2,18.4-2.3,27.7
				c-0.2,5.2-0.3,10.5-0.5,15.7c-0.2,5.4-0.6,10.8-0.5,16.1c0.2,7.4,1.6,14.6,3.5,21.8c1.6,5.9,5.8,10.6,10.1,14.8
				c1.1,1.1,2.3,2.1,3.3,3.2c1.7,1.9,1.6,3.8,1.5,6.2c-0.2,6.3-0.7,12.7-1.2,19c-0.4,6.1-1.1,12.2-0.8,18.3c0.3,7.2,1,14.5,2.7,21.5
				c0.5,1.9,0.3,3.2-0.9,4.7c-0.9,1.2-2.2,2.2-2.7,3.7c-0.6,1.8-0.7,3.9-1.3,5.8c-0.3,1.2-0.7,3.5-1.5,4.5c0,0-0.1,0-0.4,0.2
				c-0.6,0.3-1.2,0.4-1.8,0.6c-2.2,0.7-4.5,1.4-6.8,2c-2,0.5-4.4,1.1-6.4,0c-0.4-0.2-0.7-0.6-1.1-0.9c-0.1-0.1,0,0,0,0.1
				c0,0.3,0,0.6,0.1,0.9c1.6-2.3,3.3-4.5,4.9-6.8c0.9-1.3,2.1-2.6,2.8-4c0.3-0.7,0.5-1.5,0.8-2.2c0.6-1.2,1.5-2.2,1.9-3.5
				c0.9-3,0.8-6.4,0.9-9.4c0.1-2.3,0.1-4.6,0.1-6.9c-0.1-5.3-0.2-10.7-0.9-15.9c-0.7-5.1-3-9.8-4.5-14.7c-0.8-2.7-1.6-5.2-3.1-7.6
				c-1.4-2.3-3.1-4.4-4.9-6.4c-1.6-1.8-3.4-3.6-5.1-5.3c-0.9-0.8-1.7-1.8-2.7-2.5c-1.9-1.2-4-2.1-6-3.2c-5.1-2.8-10.1-5.8-15-9.1
				c-5.1-3.4-10.3-7-14.4-11.6c-0.2-0.2-0.5-0.7-0.9-0.5c-6.2,2.7-12.4,5.3-18.6,8c-6.9,3-14.1,5.2-21.1,8
				c-9.7,3.9-20.3,5.6-30.6,7.3c-11.1,1.8-22.4,2.9-33.6,1.1c-6.2-1-12.2-2.4-18.4-2.9c-5-0.4-10-0.7-15.1-0.6
				c-0.2,0-0.3,0.1-0.3,0.4c0.4,5.9,0.7,11.9,0.9,17.8c0.2,4.2,0.1,8.3,0.2,12.5c0.1,5.6,1.5,11,3.2,16.3c0.8,2.3,1.6,4.6,2.4,6.9
				c0.4,1,0.7,2.1,1,3.1c0.2,0.6,0.8,2,0.5,2.6c-0.3,0.6-2,0.8-2.6,1.2c-1.3,0.9-2.3,2.4-2.1,4c0.2,1.6,1.7,3,1.5,4.7
				c-0.2,2-2.1,3.4-3.8,4.3c-2.4,1.3-3.6,1.5-6.2,1.5c-1.5,0-3.1,0-4.7-0.2c-0.2,0-0.4-0.1-0.7-0.1c-0.8-0.1-0.3-0.5-0.4,0.1
				c-0.1,0.3,0.2,0.5,0.1-0.1c-0.1-0.9-0.8-3-1.9-3.1c-1.6-0.1-2.5,2.2-2.3,3.5c0.2,1.6,1.1,3.2,2.1,4.4c-0.3-0.8-0.6-1.6-0.9-2.4
				c-0.8,1.8-1.6,3.6-2.4,5.4c-0.8,1.7-0.8,2.4-2.2,3.2c-3.2,1.7-6.9,2.8-10.5,2.9c-1.5,0.1-3.3,0-4.6-0.9c-0.1-0.1-0.6-0.6-0.7-0.6
				c0.2,0,0.2,0.4,0.2,0.6c0,0.2-0.1,0.4-0.1,0.6c2.1-1.9,4.1-3.9,5.9-6c1.2-1.4,2.1-2.9,3-4.5c0.5-1,0.7-1.1,1.6-1.5
				c3-1.5,3.5-3.6,4.1-6.6c0.5-3,1.2-5.6,1.2-8.6c0.1-6.6-0.3-13.7-1.8-20.1c-0.3-1.2-0.8-2.4-1.2-3.6c-0.9-2.6-1.3-5.4-1.8-8.1
				c-0.6-3.3-1.3-6.5-1.9-9.8c-0.7-3.2-1.3-6.4-2-9.5c-0.4-1.7-0.5-4.3-2.2-5.2c-1.8-1-4.2-1.6-6.2-2.3c-1.5-0.5-3.2-0.6-4.8-0.9
				c-7.5-1.6-16.1-4-19.5-11.5c-1.7-3.8-2.8-8-4.3-11.9c-1.8-4.9-4.1-9.5-6.8-13.9c-4.7-7.7-10.4-15.1-17.6-20.7
				c-5.1-4-10.2-7.8-15.3-11.7c-0.1-0.1-0.2-0.1-0.4-0.1c-3.1,2-7.2,3.3-10.9,2.9c-2.3-0.2-4.2-1.5-6.5-1.9c-1.1-0.2-2.2,0-3.4,0.1
				c-2.6,0.4-5.2,0.4-7.9,0.5c-1.4,0.1-3.1,0-4.4,0.7c-0.9,0.5-1.7,1.2-2.6,1.7c-2,1-4.4,2-6.7,1.6c-2.2-0.4-4.3-1.1-6.6-1.4
				c-2.3-0.3-4.6-0.9-6.5-2.5c-1.9-1.6-3.2-4.3-3.8-6.7c-0.5-2.3,0.6-3.9,2.4-5.1c1.8-1.3,3.7-2.3,5.3-3.8c1.7-1.6,3-3.6,4.1-5.5
				c2.6-4.6,4.6-9.4,6.8-14.2c1.2-2.7,2.3-5.2,2.3-8.2c0-1.6-0.1-3.7-1.3-4.9c-0.4-0.5-1-0.7-1.5-1.1c-1.2-0.8-2.4-1.8-3.5-2.8
				c-1.9-1.7-3.4-4.4-3.9-6.5c0,0.2-0.1,0.4-0.1,0.6c5.1-1.8,11.9-2.9,16.9-0.3c0.3,0.1,0.5,0.1,0.5-0.3c0-1.2,1.1-2.7,1.9-3.5
				c1.5-1.4,3.5-2.4,5.4-3.2c1.9-0.8,4.2-1.6,6.3-1.6c1.8,0,3.5,0.6,5.2,1.2c1.9,0.7,3.6,1.5,5.4,2.4c1,0.5,2,1.2,3,1.6
				c0.8,0.3,1.4,0.1,2.2-0.3c1.7-0.9,2.8-2.3,4.9-2.6c-0.6-0.7-1.1-1.4-1.7-2.1c0.8,2.4,1.6,4.8,2.4,7.2c0.3,1,0.6,2.4,1.5,3.1
				c0.6,0.5,1.5,0.6,2.2,0.8c1.4,0.4,2.8,0.9,4.2,1.3c4,1.1,8,1.3,12.1,1.7c4.9,0.5,9.8,1.3,14.7,1.6c6.2,0.4,12.4,1,18.5,0.4
				c7.2-0.6,14.5-1.5,21.7-2.4c0.9-0.1,1.9-0.3,2.8-0.3c0.6-0.1,0.2-0.1,0.8,0c2.9,0.5,5.8,1,8.7,1.5c9.3,1.5,18.7,2.8,28.1,3.2
				c16.1,0.8,32.4,1.1,48.5,0.7c4.5-0.1,9.1-0.9,13.6-1.5c7.4-1,14.8-2.1,22.3-3.1c7.5-1.1,14.9-2.2,22.4-3.2
				c4.8-0.7,9.7-1.4,14.6-1.6c12.7-0.5,25.4-0.5,38.1-0.2c6.2,0.1,12.8,0.2,17.2,5.4c2.9,3.5,3.9,8.3,4.7,12.7
				c0.8,4.1,1.3,8.3,1.8,12.5c1.4,12.7,1.6,25.6,1.8,38.4c0.1,7.2,1.6,14.1,3.3,21c0.9,3.6,1.5,7.4,3.1,10.8
				C528.7,423.2,530.7,426.4,532.6,429.7c0.2,0.3,0.8,1.2,1.2,0.7c0.4-0.4-0.4-1.8-0.6-2.1c-1.3-2.1-2.5-4.3-3.7-6.5
				c-0.4-0.8-1.1-2.1-1.3-2.5c-0.1-0.2-0.2-0.4-0.2-0.5c0,0,0.2,0.5,0.1,0.2c-0.2-0.5-0.3-1.1-0.4-1.6c-1.9-6.9-3.7-13.9-4.6-20.9
				c-0.4-2.8-0.3-5.5-0.4-8.3c-0.1-3.7-0.2-7.5-0.3-11.2c-0.2-6.7-0.5-13.4-0.9-20.1c-0.4-6-1.2-12.1-2.3-18
				c-1.5-7.8-4.1-16.8-11.7-20.7c-5.1-2.6-10.9-2.2-16.5-2.3c-4.7-0.1-9.4,0-14.2,0c-4.2,0-8.4-0.3-12.7-0.2
				c-3.1,0.1-6.2,0.3-9.3,0.5c-4.7,0.2-9.3,1-14,1.6c-14.5,2-29,4.2-43.6,6.2c-4.6,0.6-9.2,1.4-13.8,1.5c-6.5,0.2-13,0.1-19.4,0
				c-8.9-0.1-17.8-0.2-26.7-0.5c-9-0.4-18-1.4-26.9-2.7c-3.6-0.6-7.3-1.1-10.9-1.8c-1.1-0.2-1.9-0.4-3-0.3
				c-6.5,0.8-13.1,1.6-19.7,2.2c-2.7,0.3-5.5,0.7-8.2,0.7c-2.7,0-5.3-0.2-8-0.3c-9.1-0.4-18.1-1.6-27.2-2.6
				c-4.2-0.5-8.2-1.8-12.3-3.1c0.5,0.7,1,1.4,1.5,2.1c-0.9-2.8-1.9-5.7-2.8-8.5c-0.2-0.6-0.8-2.2-1.7-2.1c-2,0.3-3.2,1.7-4.9,2.6
				c-0.4,0.2-0.8,0.4-1.3,0.5c-0.4,0.1-0.1,0.1,0,0.1c-0.3-0.1-0.6-0.3-0.8-0.5c-3.1-1.7-6.3-3.3-9.7-4.3c-4.1-1.2-8-0.2-11.8,1.7
				c-2.5,1.2-6.1,3.4-6,6.7c0.2-0.1,0.4-0.2,0.5-0.3c-5.3-2.7-12.3-1.8-17.7,0.2c-0.2,0.1-0.2,0.5-0.1,0.6
				c1.3,6.4,5.7,11.3,11.1,14.6c-0.4-0.7-0.9-1.3-1.3-2c1,3.8-0.9,7.5-2.4,10.9c-1.9,4.3-3.7,8.6-6.1,12.7c-1.1,2-2.3,4-4,5.6
				c-1.4,1.4-3.2,2.4-4.9,3.5c-3.1,2.1-4.1,4.6-3,8.2c1.1,3.8,3.1,7.7,6.3,10.2c3.4,2.6,7.4,2.3,11.3,3.4c1.5,0.4,2.8,0.8,4.4,0.5
				c1.9-0.3,4-1.1,5.6-2.1c0.7-0.4,1.2-1,1.9-1.3c1.5-0.7,3.5-0.5,5.1-0.6c2.1,0,4.2-0.1,6.3-0.4c1.1-0.2,2.2-0.4,3.3-0.3
				c1.7,0.2,3.3,1.1,4.9,1.6c2.1,0.6,4.3,0.6,6.5,0.1c1.9-0.4,3.7-1.1,5.4-1.9c0.4-0.2,0.8-0.5,1.2-0.7c0.3-0.2-0.4-0.3,0,0
				c2.4,1.5,4.6,3.5,6.9,5.2c3.1,2.4,6.2,4.7,9.2,7.1c3.1,2.5,5.8,5.5,8.3,8.7c3.6,4.5,6.8,9.2,9.4,14.3c2.6,5,4.2,10.3,6.1,15.5
				c1.3,3.7,2.9,7.5,5.5,10.4c2.8,3.1,6.5,5,10.4,6.4c3.5,1.3,7.1,2.1,10.7,2.7c1.8,0.3,3.4,1,5.1,1.6c1,0.4,2,0.7,3,1.1
				c-0.5-0.8-1.1-1.6-1.6-2.4c1,4.7,2,9.4,3,14.1c0.7,3.2,1.3,6.5,1.9,9.7c0.4,2,0.7,4,1.3,5.9c0.4,1.4,1,2.8,1.4,4.2
				c1.6,5.9,1.8,12.5,1.8,18.5c0,2.9-0.4,5.5-1,8.3c-0.3,1.2-0.3,2.5-0.7,3.7c-0.4,1.4-1.6,2.3-2.7,3c-0.6,0.4-1.3,0.5-1.8,1.1
				c-1.1,1.2-1.6,3-2.7,4.4c-1.9,2.5-4.3,4.8-6.7,6.9c-0.2,0.2-0.2,0.4-0.1,0.6c1.7,7.6,10.8,6.1,16.3,4c2-0.7,3.7-1.3,4.6-3.2
				c1-2.3,2.1-4.6,3.1-6.9c0.3-0.7-0.5-2-0.9-2.4c-0.4-0.4-0.4-0.7-0.2-1.3c0.3-0.9,1.3-0.9,1.7-1.5c-1.3,1.9-1.4-3.2-1.3-1.6
				c0,0.2,0.1,0.5,0.1,0.8c0.2,0.7,0.5,1.4,0.9,2.1c0.9,1.3,2,1.8,3.6,2c2.1,0.2,4.4,0.2,6.5,0.1c2-0.1,4-1.2,5.5-2.4
				c3.1-2.3,3.1-5.4,1.5-8.7c-0.8-1.6,0.5-3,2-3.8c0.7-0.4,1.8-0.4,2.3-1.1c0.6-1.1-0.2-3-0.5-4c-0.6-2.2-1.4-4.4-2.2-6.6
				c-1.8-5.2-3.6-10.5-4.1-16c-0.4-4.2-0.1-8.6-0.3-12.9c-0.2-6.7-0.5-13.4-1-20.1c-0.1,0.1-0.2,0.2-0.3,0.4
				c4.1-0.1,8.2,0.1,12.3,0.3c6.2,0.4,12.1,1.5,18.2,2.6c10,1.9,20,1.6,30.1,0.3c11.8-1.5,24.1-3.3,35.4-7.5
				c7.2-2.7,14.5-5.1,21.6-8.1c6.7-2.8,13.4-5.7,20.1-8.6c-0.3-0.2-0.6-0.3-0.9-0.5c8.1,9,19.4,15.5,29.8,21.3
				c1.7,0.9,3.3,1.8,5,2.7c0.4,0.2,0.8,0.4,1.2,0.6c0.4,0.3-0.1-0.2,0.5,0.4c3.9,3.6,8,7.4,10.9,12c1.8,2.9,2.4,6.4,3.5,9.6
				c1,2.8,2.2,5.6,2.8,8.6c1.2,5.9,1.1,12.1,1.1,18.1c0,3.1-0.1,6.2-0.3,9.4c-0.1,1.8-0.1,3.7-0.7,5.4c-0.5,1.5-1.7,2.7-2.3,4.3
				c-1,2.9-3.3,5.5-5.1,8c-0.6,0.9-1.3,1.8-2,2.7c-0.4,0.6-1.1,1.2-1.1,1.9c0,1.3,1.2,2.9,2,3.8c1.8,2,4.2,2.4,6.7,2
				c3.5-0.6,7-1.7,10.3-2.9c1.5-0.5,1.6-2.1,2-3.6c0.5-1.5,0.9-3,1.2-4.6c0.3-1.6,0.4-3,1.4-4.3c1.5-2.1,3.3-3.5,3-6.3
				c-0.3-2.6-1.1-5.3-1.5-7.9c-1-6.8-1.8-13.7-1.5-20.6c0.2-5.4,0.7-10.7,1.1-16.1c0.4-5.4,0.9-10.9,0.9-16.4c0-4.5-1.8-8-5.1-11.1
				c-3.2-3-6.6-6.3-8.8-10.2c-1.2-2-1.6-4.6-2.2-6.9c-0.8-3.4-1.5-6.8-1.9-10.2c-1.1-9.3,0-18.8,0.3-28.1c0.3-9,0.4-18,1.2-27
				c0.4-3.6,0.8-7.3,1.4-10.9c-0.6-0.6-1.2-1.1-1.8-1.7c1.2,4.7,2,9.2,2.3,14c0.3,4.2,0.6,8.3,0.9,12.5c0.6,8.5,1.2,17,2.5,25.4
				c1,6.2,2.1,12.4,3.5,18.5c0.8,3.4,1.4,6.7,1.6,10.2c0.6,8.5,4.3,15.8,9,22.8c3.2,4.8,6.3,9.9,7.8,15.6c0.3,1.2,0.6,2.5,0.7,3.8
				c0,0.4,0,0.8,0,1.1c0,0.2-0.1,0.2,0,0.1c-0.8,0.2,0.8,3,1.4,3.1c2.1,0.2,4.8-1.8,5.8-3.4c1-1.6,0.8-3.3,0.5-5.1
				c-0.3-1.9,0.7-3.6,1.9-5c0.3-0.4-0.2-1.4-0.4-1.7c-4.9-10.2-9.7-20.5-15.5-30.2c-0.2-0.3-0.8-1.2-1.2-0.7
				C531.6,428,532.4,429.4,532.6,429.7L532.6,429.7z"/>
		</g>
	</g>
</g>
</svg>
