<?xml version="1.0" encoding="utf-8"?>
<!-- Generator: Adobe Illustrator 23.1.1, SVG Export Plug-In . SVG Version: 6.00 Build 0)  -->
<svg version="1.1" id="Layer_3" xmlns="http://www.w3.org/2000/svg" xmlns:xlink="http://www.w3.org/1999/xlink" x="0px" y="0px"
	 viewBox="0 0 393.9 541.1" style="enable-background:new 0 0 393.9 541.1;" xml:space="preserve">
<style type="text/css">
	.st0{fill:url(#SVGID_1_);}
	.st1{fill:url(#SVGID_2_);}
	.st2{fill:#259592;}
	.st3{fill:#2E3945;}
</style>
<g>
	<g>
		
			<linearGradient id="SVGID_1_" gradientUnits="userSpaceOnUse" x1="755.2319" y1="35.0372" x2="754.4941" y2="491.0102" gradientTransform="matrix(-1 0 0 1 809.8672 0)">
			<stop  offset="0" style="stop-color:#FFFFFF"/>
			<stop  offset="9.202450e-02" style="stop-color:#FFFFFF"/>
			<stop  offset="0.7607" style="stop-color:#269491"/>
		</linearGradient>
		<path class="st0" d="M0,35.1C67.4,88.5,110.5,171,110.4,263.6C110.2,355.8,67.1,438,0,491.1L0,35.1z"/>
		
			<linearGradient id="SVGID_2_" gradientUnits="userSpaceOnUse" x1="172.8081" y1="-168.7071" x2="398.0282" y2="-168.7071" gradientTransform="matrix(4.489700e-11 -1 -1 -4.489700e-11 -113.5252 663.9337)">
			<stop  offset="0" style="stop-color:#FFFFFF"/>
			<stop  offset="0.2478" style="stop-color:#EBEBED"/>
			<stop  offset="0.7319" style="stop-color:#C3C7CD"/>
			<stop  offset="0.7975" style="stop-color:#BEC2C9"/>
		</linearGradient>
		<path class="st1" d="M0,491.1c0-49.8,0-47.2,0-46.5c0,0,18.8-16.6,28.2-31.3c0.4-0.6,1.2-2,1.3-2.1c2.9-4.9,5.7-9.9,8.3-15.1
			c8.6-17.2,17.3-40.6,22.7-70.9c19.1-16.4,36-36.4,49.8-59.3C109.3,369.2,57.7,445.5,0,491.1z"/>
	</g>
	<g>
		<path class="st2" d="M167.6,409.4c0-8.9,7.2-16.2,16.2-16.2c8.9,0,16.2,7.2,16.2,16.2H167.6z M167.6,441.7
			c0,8.9,7.2,16.2,16.2,16.2c8.9,0,16.2-7.2,16.2-16.2H167.6z M182.2,425.5c-8.2-0.8-14.6-7.7-14.6-16.1c-8.9,0-16.2,7.2-16.2,16.2
			c0,8.9,7.2,16.2,16.2,16.2c0-8.4,6.4-15.3,14.6-16.1V425.5z M185.3,425.6c8.2,0.8,14.6,7.7,14.6,16.1c8.9,0,16.2-7.2,16.2-16.2
			c0-8.9-7.2-16.2-16.2-16.2c0,8.4-6.4,15.3-14.6,16.1V425.6z"/>
		<g>
			<rect x="261.5" y="455.7" class="st3" width="2.4" height="2.2"/>
			<polygon class="st3" points="249.2,425.9 242.6,409.4 232.3,409.4 232.3,441.7 239.2,441.7 239.2,418.8 249.2,442 249.2,442 
				259.2,418.8 259.2,441.7 266.1,441.7 266.1,409.4 255.8,409.4 			"/>
			<path class="st3" d="M280.4,460.1c-2.4,0-3.3,1.4-3.7,2c-0.4-0.8-1.2-2-3.6-2c-0.9,0-2.4,0.2-3.5,1.9v-1.6h-2.1l0,1.5v9.4h2.1
				v-6.2c0-0.7,0-1.6,0.5-2.2c0.2-0.3,1-1.2,2.4-1.2c1.6,0,2.4,1,2.4,2.4v7.2h2.1v-6.1c0-0.5,0-1.7,0.5-2.3c0.3-0.4,1-1.2,2.3-1.2
				c1,0,1.7,0.5,2.1,1c0.2,0.3,0.4,0.7,0.4,1.6v7h2.1V464C284.4,460.8,281.9,460.1,280.4,460.1z"/>
			<path class="st3" d="M237.7,455.6l-6.6,15.7h2.2l1.7-4.1h7.3l1.7,4.1h2.4l-6.3-15.7H237.7z M235.7,465.5l3-7.7l2.9,7.7H235.7z"/>
			<rect x="261.7" y="460.4" class="st3" width="2" height="10.9"/>
			<path class="st3" d="M254,460.2c-2.5,0-3.3,1.5-3.5,2l0-1.8h-2l0,1.3v9.6h2V465c0-2.2,1.4-3.3,2.8-3.3c0.7,0,1.4,0.2,1.9,0.7
				c0.5,0.5,0.6,1.1,0.6,1.9v6.9h2.1v-7.4C258,460.6,255,460.2,254,460.2z"/>
			<path class="st3" d="M268.7,431.5c-0.2,8,5.2,11,11.6,11.2c7.4,0.2,13-3,13-10.1c0-7.2-6.4-8.3-11.4-9.9
				c-1.9-0.6-5.5-1.2-5.5-4.5c0-2.8,2.4-4.1,4.8-4.1c3.1,0,4.8,1.6,5,4.8h6.3c0-6.4-4.9-10.1-10.8-10.1c-5.8,0-12.2,3.4-12.2,10
				c0,5.7,6.3,8.7,9.9,9.6c2,0.5,7,1.1,7,4.7c0,3.4-3.5,4.3-6.1,4.3c-3.4,0-5.4-2.4-5.1-5.9H268.7z"/>
			<path class="st3" d="M359.9,457.4l-2,0.6v2.3h-1.9v1.5h1.9v7.3c0,1.8,0.9,2.3,2.8,2.3c0.7,0,1.3-0.1,1.7-0.1v-1.6
				c-0.2,0-0.6,0.1-1,0.1c-1.5,0-1.5-0.9-1.5-1.5v-6.5h2.4v-1.5h-2.4V457.4z"/>
			<rect x="351.9" y="455.7" class="st3" width="2" height="15.6"/>
			<path class="st3" d="M348.4,463.4c0-0.5,0-1-0.4-1.7c-0.6-1.1-2.3-1.6-3.9-1.6c-1.1,0-2.7,0.3-3.5,1.2c-0.6,0.7-0.7,1.5-0.8,2.1
				h2c0-0.4,0.1-1.8,2.2-1.8c0.6,0,1.5,0.2,1.9,0.7c0.4,0.5,0.4,1.1,0.4,2.4c-0.6,0-0.9-0.1-1.5-0.1c-0.9,0-2.6,0.1-3.8,0.7
				c-1.6,0.9-1.9,2.3-1.9,3.2c0,1.8,1.3,3.2,3.8,3.2c0.9,0,2.4-0.2,3.4-2c0,0.6,0,1.1,0.2,1.6h1.8c-0.2-1.1-0.2-2.6-0.2-2.7
				L348.4,463.4z M345.9,468.9c-0.5,0.8-1.3,1.2-2.3,1.2c-1.8,0-2.3-1.2-2.3-1.9c0-2.2,3.1-2.2,3.9-2.2c0.5,0,0.8,0,1.2,0.1
				C346.4,467.5,346.4,468.1,345.9,468.9z"/>
			<path class="st3" d="M373.8,461.9c-0.6-1.3-2.3-1.7-3.4-1.7c-1.5,0-2.9,0.7-3.5,1.8v-6.3h-2.1v15.6h2.1v-5.8c0-0.7,0-1.7,0.3-2.3
				c0.3-0.5,1-1.5,2.6-1.5c2.3,0,2.3,2.1,2.3,3.1v6.4h2.1v-6.8C374.2,462.9,374.1,462.4,373.8,461.9z"/>
			<path class="st3" d="M332.3,460.1c-0.6,0-1.9,0.1-3,0.8c-1.7,1.2-2.1,3-2.1,5.1c0,3.4,1.6,5.6,5,5.6c2.2,0,3.3-0.9,3.8-1.5
				c0.8-0.8,0.9-1.7,0.9-2.3h-2c-0.2,1.6-1.2,2.2-2.6,2.2c-2.2,0-3.2-1.7-3.1-3.9h7.8C337.1,464.4,337.2,460.1,332.3,460.1z
				 M329.3,464.8c0-2.4,1.6-3.2,3-3.2c2.5,0,2.7,2.2,2.7,3.2H329.3z"/>
			<path class="st3" d="M323.8,425.5c0-11.2-8.7-16.2-17.3-16.2h-10.3v32.3h10.3C315.1,441.7,323.8,436.7,323.8,425.5z M306.1,435.8
				l-2.9,0v0v-20.5h2.9c7.9,0,10.7,5.1,10.7,10.3C316.8,430.7,313.9,435.8,306.1,435.8z"/>
			<rect x="300.3" y="455.7" class="st3" width="2" height="15.6"/>
			<polygon class="st3" points="321.9,462.4 314.5,462.4 314.5,455.6 312.3,455.6 312.3,471.3 314.5,471.3 314.5,464.2 321.9,464.2 
				321.9,471.3 324.1,471.3 324.1,455.6 321.9,455.6 			"/>
			<path class="st3" d="M296.6,463.4c0-0.5,0-1-0.4-1.7c-0.6-1.1-2.3-1.6-3.9-1.6c-1.1,0-2.7,0.3-3.5,1.2c-0.6,0.7-0.7,1.5-0.8,2.1
				h2c0-0.4,0.1-1.8,2.2-1.8c0.6,0,1.5,0.2,1.9,0.7c0.4,0.5,0.4,1.1,0.4,2.4c-0.6,0-1-0.1-1.5-0.1c-0.9,0-2.6,0.1-3.8,0.7
				c-1.6,0.9-1.9,2.3-1.9,3.2c0,1.8,1.3,3.2,3.8,3.2c0.9,0,2.4-0.2,3.4-2c0,0.6,0,1.1,0.2,1.6h1.8c-0.2-1.1-0.2-2.6-0.2-2.7
				L296.6,463.4z M294.1,468.9c-0.5,0.8-1.3,1.2-2.3,1.2c-1.8,0-2.3-1.2-2.3-1.9c0-2.2,3.1-2.2,3.9-2.2c0.5,0,0.8,0,1.2,0.1
				C294.5,467.5,294.5,468.1,294.1,468.9z"/>
		</g>
	</g>
</g>
</svg>
