<?xml version="1.0" encoding="utf-8"?>
<!-- Generator: Adobe Illustrator 23.1.1, SVG Export Plug-In . SVG Version: 6.00 Build 0)  -->
<svg version="1.1" id="Layer_3" xmlns="http://www.w3.org/2000/svg" xmlns:xlink="http://www.w3.org/1999/xlink" x="0px" y="0px"
	 viewBox="0 0 113 148.8" style="enable-background:new 0 0 113 148.8;" xml:space="preserve">
<style type="text/css">
	.st0{fill:url(#SVGID_1_);}
	.st1{fill:url(#SVGID_2_);}
	.st2{fill:#259592;}
	.st3{fill:#2E3945;}
</style>
<g>
	<g>
		
			<linearGradient id="SVGID_1_" gradientUnits="userSpaceOnUse" x1="-3427.6533" y1="3.9046" x2="-3427.8638" y2="133.8969" gradientTransform="matrix(-1 0 0 1 -3412.0737 0)">
			<stop  offset="0" style="stop-color:#FFFFFF"/>
			<stop  offset="9.202450e-02" style="stop-color:#FFFFFF"/>
			<stop  offset="0.7607" style="stop-color:#269491"/>
		</linearGradient>
		<path class="st0" d="M0,3.9c19.2,15.2,31.5,38.7,31.5,65.1c0,26.3-12.3,49.7-31.5,64.9L0,3.9z"/>
		
			<linearGradient id="SVGID_2_" gradientUnits="userSpaceOnUse" x1="-533.3192" y1="-1192.5837" x2="-469.1117" y2="-1192.5837" gradientTransform="matrix(4.489700e-11 -1 -1 -4.489700e-11 -1176.8483 -399.3894)">
			<stop  offset="0" style="stop-color:#FFFFFF"/>
			<stop  offset="0.2478" style="stop-color:#EBEBED"/>
			<stop  offset="0.7319" style="stop-color:#C3C7CD"/>
			<stop  offset="0.7975" style="stop-color:#BEC2C9"/>
		</linearGradient>
		<path class="st1" d="M0,133.9c0-14.2,0-13.5,0-13.3c0,0,5.4-4.7,8-8.9c0.1-0.2,0.4-0.6,0.4-0.6c0.8-1.4,1.6-2.8,2.4-4.3
			c2.4-4.9,4.9-11.6,6.5-20.2c5.5-4.7,10.3-10.4,14.2-16.9C31.2,99.2,16.4,120.9,0,133.9z"/>
	</g>
	<g>
		<path class="st2" d="M47.8,110.6c0-2.5,2.1-4.6,4.6-4.6c2.5,0,4.6,2.1,4.6,4.6H47.8z M47.8,119.8c0,2.5,2.1,4.6,4.6,4.6
			c2.5,0,4.6-2.1,4.6-4.6H47.8z M52,115.2c-2.3-0.2-4.2-2.2-4.2-4.6c-2.5,0-4.6,2.1-4.6,4.6c0,2.5,2.1,4.6,4.6,4.6
			C47.8,117.4,49.6,115.5,52,115.2L52,115.2z M52.8,115.2c2.3,0.2,4.2,2.2,4.2,4.6c2.5,0,4.6-2.1,4.6-4.6c0-2.5-2.1-4.6-4.6-4.6
			C57,113,55.2,115,52.8,115.2L52.8,115.2z"/>
		<g>
			<rect x="74.6" y="123.8" class="st3" width="0.7" height="0.6"/>
			<polygon class="st3" points="71.1,115.3 69.2,110.6 66.2,110.6 66.2,119.8 68.2,119.8 68.2,113.3 71.1,119.9 71.1,119.9 
				73.9,113.3 73.9,119.8 75.9,119.8 75.9,110.6 73,110.6 			"/>
			<path class="st3" d="M80,125.1c-0.7,0-0.9,0.4-1,0.6c-0.1-0.2-0.3-0.6-1-0.6c-0.3,0-0.7,0-1,0.5v-0.5h-0.6l0,0.4v2.7h0.6v-1.8
				c0-0.2,0-0.5,0.1-0.6c0.1-0.1,0.3-0.3,0.7-0.3c0.5,0,0.7,0.3,0.7,0.7v2.1H79v-1.7c0-0.1,0-0.5,0.1-0.7c0.1-0.1,0.3-0.3,0.7-0.3
				c0.3,0,0.5,0.1,0.6,0.3c0.1,0.1,0.1,0.2,0.1,0.5v2h0.6v-2.1C81.1,125.3,80.4,125.1,80,125.1z"/>
			<path class="st3" d="M67.8,123.8l-1.9,4.5h0.6l0.5-1.2h2.1l0.5,1.2h0.7l-1.8-4.5H67.8z M67.2,126.6l0.9-2.2l0.8,2.2H67.2z"/>
			<rect x="74.6" y="125.2" class="st3" width="0.6" height="3.1"/>
			<path class="st3" d="M72.4,125.1c-0.7,0-0.9,0.4-1,0.6l0-0.5h-0.6l0,0.4v2.7h0.6v-1.8c0-0.6,0.4-0.9,0.8-0.9
				c0.2,0,0.4,0.1,0.6,0.2c0.1,0.1,0.2,0.3,0.2,0.5v2h0.6v-2.1C73.6,125.2,72.7,125.1,72.4,125.1z"/>
			<path class="st3" d="M76.6,116.9c-0.1,2.3,1.5,3.1,3.3,3.2c2.1,0,3.7-0.9,3.7-2.9c0-2-1.8-2.4-3.3-2.8c-0.6-0.2-1.6-0.3-1.6-1.3
				c0-0.8,0.7-1.2,1.4-1.2c0.9,0,1.4,0.4,1.4,1.4h1.8c0-1.8-1.4-2.9-3.1-2.9c-1.7,0-3.5,1-3.5,2.9c0,1.6,1.8,2.5,2.8,2.7
				c0.6,0.1,2,0.3,2,1.3c0,1-1,1.2-1.7,1.2c-1,0-1.5-0.7-1.4-1.7H76.6z"/>
			<path class="st3" d="M102.6,124.3l-0.6,0.2v0.6h-0.6v0.4h0.6v2.1c0,0.5,0.3,0.7,0.8,0.7c0.2,0,0.4,0,0.5,0v-0.5c0,0-0.2,0-0.3,0
				c-0.4,0-0.4-0.3-0.4-0.4v-1.9h0.7v-0.4h-0.7V124.3z"/>
			<rect x="100.3" y="123.8" class="st3" width="0.6" height="4.5"/>
			<path class="st3" d="M99.4,126c0-0.1,0-0.3-0.1-0.5c-0.2-0.3-0.7-0.5-1.1-0.5c-0.3,0-0.8,0.1-1,0.3c-0.2,0.2-0.2,0.4-0.2,0.6h0.6
				c0-0.1,0-0.5,0.6-0.5c0.2,0,0.4,0.1,0.5,0.2c0.1,0.1,0.1,0.3,0.1,0.7c-0.2,0-0.3,0-0.4,0c-0.2,0-0.7,0-1.1,0.2
				c-0.5,0.3-0.5,0.7-0.5,0.9c0,0.5,0.4,0.9,1.1,0.9c0.3,0,0.7-0.1,1-0.6c0,0.2,0,0.3,0.1,0.5h0.5c0-0.3,0-0.7,0-0.8L99.4,126z
				 M98.6,127.6c-0.1,0.2-0.4,0.3-0.7,0.3c-0.5,0-0.6-0.3-0.6-0.5c0-0.6,0.9-0.6,1.1-0.6c0.1,0,0.2,0,0.3,0
				C98.8,127.2,98.8,127.4,98.6,127.6z"/>
			<path class="st3" d="M106.6,125.6c-0.2-0.4-0.6-0.5-1-0.5c-0.4,0-0.8,0.2-1,0.5v-1.8H104v4.5h0.6v-1.6c0-0.2,0-0.5,0.1-0.7
				c0.1-0.1,0.3-0.4,0.7-0.4c0.7,0,0.7,0.6,0.7,0.9v1.8h0.6v-1.9C106.7,125.9,106.7,125.7,106.6,125.6z"/>
			<path class="st3" d="M94.8,125.1c-0.2,0-0.5,0-0.8,0.2c-0.5,0.3-0.6,0.8-0.6,1.5c0,1,0.5,1.6,1.4,1.6c0.6,0,0.9-0.3,1.1-0.4
				c0.2-0.2,0.2-0.5,0.3-0.6h-0.6c0,0.4-0.4,0.6-0.7,0.6c-0.6,0-0.9-0.5-0.9-1.1h2.2C96.1,126.3,96.2,125.1,94.8,125.1z M93.9,126.4
				c0-0.7,0.5-0.9,0.8-0.9c0.7,0,0.8,0.6,0.8,0.9H93.9z"/>
			<path class="st3" d="M92.3,115.2c0-3.2-2.5-4.6-4.9-4.6h-2.9v9.2h2.9C89.9,119.8,92.3,118.4,92.3,115.2z M87.3,118.2l-0.8,0v0
				v-5.8h0.8c2.2,0,3,1.5,3,2.9S89.5,118.2,87.3,118.2z"/>
			<rect x="85.6" y="123.8" class="st3" width="0.6" height="4.5"/>
			<polygon class="st3" points="91.8,125.7 89.7,125.7 89.7,123.8 89.1,123.8 89.1,128.3 89.7,128.3 89.7,126.3 91.8,126.3 
				91.8,128.3 92.4,128.3 92.4,123.8 91.8,123.8 			"/>
			<path class="st3" d="M84.6,126c0-0.1,0-0.3-0.1-0.5c-0.2-0.3-0.6-0.5-1.1-0.5c-0.3,0-0.8,0.1-1,0.3c-0.2,0.2-0.2,0.4-0.2,0.6h0.6
				c0-0.1,0-0.5,0.6-0.5c0.2,0,0.4,0.1,0.5,0.2c0.1,0.1,0.1,0.3,0.1,0.7c-0.2,0-0.3,0-0.4,0c-0.2,0-0.7,0-1.1,0.2
				c-0.5,0.3-0.5,0.7-0.5,0.9c0,0.5,0.4,0.9,1.1,0.9c0.3,0,0.7-0.1,1-0.6c0,0.2,0,0.3,0.1,0.5h0.5c0-0.3-0.1-0.7-0.1-0.8L84.6,126z
				 M83.9,127.6c-0.1,0.2-0.4,0.3-0.7,0.3c-0.5,0-0.6-0.3-0.6-0.5c0-0.6,0.9-0.6,1.1-0.6c0.1,0,0.2,0,0.3,0
				C84,127.2,84,127.4,83.9,127.6z"/>
		</g>
	</g>
</g>
</svg>
