<?xml version="1.0" encoding="utf-8"?>
<!-- Generator: Adobe Illustrator 23.1.1, SVG Export Plug-In . SVG Version: 6.00 Build 0)  -->
<svg version="1.1" id="Layer_3" xmlns="http://www.w3.org/2000/svg" xmlns:xlink="http://www.w3.org/1999/xlink" x="0px" y="0px"
	 viewBox="0 0 1280 1920" style="enable-background:new 0 0 1280 1920;" xml:space="preserve">
<style type="text/css">
	.st0{fill:#97CABD;}
	.st1{clip-path:url(#SVGID_2_);}
	.st2{fill:#2A8E82;}
	.st3{clip-path:url(#SVGID_4_);}
	.st4{fill:#2A7268;}
	.st5{fill:#FFFFFF;}
	.st6{fill:none;stroke:#FFFFFF;stroke-width:4.2655;stroke-miterlimit:10;}
	.st7{fill:#DCEDE7;}
</style>
<rect y="0.9" class="st0" width="1280" height="1920"/>
<g>
	<defs>
		<rect id="SVGID_1_" x="200.5" y="0" width="1079.5" height="1920"/>
	</defs>
	<clipPath id="SVGID_2_">
		<use xlink:href="#SVGID_1_"  style="overflow:visible;"/>
	</clipPath>
	<g class="st1">
		<g>
			<g>
				<path class="st2" d="M1775.6,901.6C1375.9,863.8,1063,527.2,1063,117.3c-434.9,0-787.6,352.8-787.6,787.8
					c0,434.8,352.8,787.6,787.6,787.6c0-409.9,312.9-746.3,712.6-784.1V901.6z"/>
				<path class="st2" d="M1063,1692.7c0,434.9,352.8,787.7,787.5,787.7c435.1,0,788-352.8,788-787.7H1063z"/>
				<path class="st2" d="M1063,117.3c0-435,352.8-787.7,787.5-787.7c435.1,0,788,352.7,788,787.7H1063z"/>
				<path class="st2" d="M1925.7,908.7c399.8,37.8,712.8,374.2,712.8,784.1c434.9,0,787.5-352.8,787.5-787.6
					c0-435-352.6-787.8-787.5-787.8c0,409.9-312.9,746.5-712.8,784.3V908.7z"/>
			</g>
			<g>
				<defs>
					<path id="SVGID_3_" d="M1775.6,901.6C1375.9,863.8,1063,527.2,1063,117.3c-434.9,0-787.6,352.8-787.6,787.8
						c0,434.8,352.8,787.6,787.6,787.6c0-409.9,312.9-746.3,712.6-784.1V901.6z"/>
				</defs>
				<clipPath id="SVGID_4_">
					<use xlink:href="#SVGID_3_"  style="overflow:visible;"/>
				</clipPath>
				<g class="st3">
					<g>
						<g>
							<path class="st4" d="M806.3,656.7c0,0,50.3,210.9,118.2,201.2c67.9-9.7-9.7-249-9.7-249"/>
							<g>
								<path class="st5" d="M791,653.7c0.5,2.2,1.1,4.3,1.6,6.5c1.5,5.8,3.1,11.6,4.7,17.3c2.4,8.5,4.9,16.9,7.6,25.3
									c3.2,10.1,6.6,20.2,10.2,30.2c3.9,10.8,8.1,21.6,12.6,32.2c4.5,10.6,9.4,21.1,14.8,31.3c5,9.4,10.5,18.7,16.8,27.3
									c5.7,7.8,12.1,15.5,19.6,21.7c9.3,7.7,20.4,13.3,32.2,16.3c11.2,2.8,23.8,4.6,34.8-0.2c5.8-2.5,10.4-7.5,13.5-12.9
									c3.6-6.3,5.5-13.5,6.8-20.6c1.5-8.9,1.9-18,1.8-27.1c-0.1-10.5-0.9-20.9-2-31.3c-1.2-11.2-2.9-22.4-4.9-33.5
									c-2-11.5-4.3-23-6.9-34.5c-2.3-10.4-4.8-20.7-7.4-31c-2.3-8.9-4.6-17.7-7.1-26.5c-1.9-6.6-3.8-13.2-5.8-19.8
									c-1.1-3.6-2.2-7.2-3.3-10.9c-0.1-0.5-0.3-0.9-0.4-1.4c-0.6-0.9-1.4-1.7-2.4-2.3c-1.2-1-2.6-1.7-4.1-2.3
									c-3.7-1.7-7.9-3.1-11.9-3.8c-1.3-0.2-2.6-0.4-3.8-0.6c-2-0.3-4-0.3-6,0c-0.6,0.2-1.2,0.4-1.9,0.6c-1,0.6-1.2,1.3-0.6,2.3
									c0.7,2.1,1.4,4.3,2,6.5c1.8,5.8,3.5,11.6,5.2,17.4c2.5,8.7,4.9,17.3,7.2,26c2.8,10.5,5.4,21.1,7.8,31.7
									c2.7,11.6,5.2,23.3,7.3,35.1c0.3,1.5,0.5,2.9,0.8,4.4c-0.1-0.4-0.2-0.9-0.2-1.3c1.7,9.6,3.2,19.3,4.4,29
									c1.1,9.2,2,18.4,2.5,27.6c0.4,8.3,0.5,16.7-0.1,25c-0.5,7.1-1.5,14.1-3.4,21c-1.6,5.5-3.8,11-7.4,15.5
									c-0.4,0.5-0.8,1-1.2,1.5c0.3-0.3,0.6-0.7,0.9-1c-3,3.4-6.7,5.9-11,7.3c0.6-0.2,1.2-0.4,1.9-0.6c-2.2,0.7-4.4,1.1-6.7,1.2
									c0.9-0.1,1.8-0.1,2.7-0.2c-0.8,0.1-1.7,0.1-2.5,0.1c-0.4,0-0.8,0-1.2,0c-1.7-0.1,3,0.2,2.7,0.2c-0.3,0-0.5,0-0.8-0.1
									c-0.4,0-0.8-0.1-1.2-0.1c-0.2,0-0.3,0-0.5-0.1c-2-0.3,4.6,0.8,3,0.5c-0.4-0.1-0.8-0.1-1.2-0.2c-2.2-0.5-1-0.3,2.8,0.7
									c-0.4-0.1-0.8-0.2-1.2-0.3c-0.2,0-0.3-0.1-0.5-0.2c-0.1,0-0.2-0.1-0.3-0.1c-0.1,0-0.1,0-0.2-0.1c-1.3-0.4-0.1,0,3.7,1.2
									c-0.8-0.3-1.6-0.5-2.3-0.9c-1.8-0.7,4.4,1.8,2.9,1.2c-0.2-0.1-0.4-0.2-0.6-0.2c-0.4-0.2-0.8-0.4-1.2-0.6
									c-0.4-0.2-0.8-0.4-1.2-0.6c-1.6-0.8,2.6,1.4,2.3,1.2c-0.2-0.1-0.5-0.3-0.7-0.4c-1.8-1-3.6-2.1-5.2-3.3
									c0.7,0.5,1.5,1,2.2,1.6c-5.5-3.9-10.3-8.6-14.7-13.7c0.4,0.5,0.9,1,1.3,1.5c-4.7-5.4-8.9-11.3-12.9-17.3
									c-4.3-6.6-8.2-13.4-11.9-20.4c-3.9-7.4-7.5-14.9-10.9-22.5c-3.4-7.7-6.7-15.5-9.8-23.4c-3-7.6-5.8-15.3-8.5-23
									c-2.5-7.2-5-14.5-7.3-21.8c-2-6.4-4-12.9-5.9-19.3c-1.5-5.2-3-10.4-4.4-15.6c-1-3.6-2-7.3-2.9-10.9
									c-0.4-1.7-0.7-3.4-1.3-5.1c0-0.1,0-0.1-0.1-0.2c-0.6-0.9-1.4-1.7-2.4-2.3c-1.2-1-2.6-1.7-4.1-2.3c-3.7-1.7-7.9-3.1-11.9-3.8
									c-1.3-0.2-2.6-0.4-3.8-0.6c-2-0.3-4-0.3-6,0c-0.6,0.2-1.2,0.4-1.9,0.6C790.6,651.9,790.4,652.7,791,653.7L791,653.7z"/>
							</g>
						</g>
						<g>
							<path class="st4" d="M513.2,546c0,0-86.7,134.1-77,163.2c9.7,29.1,71,4.2,158.4-98.1"/>
							<g>
								<path class="st5" d="M504.7,532.3c-2.5,3.9-5,7.9-7.5,11.8c-6.1,9.8-12.1,19.8-18,29.7c-7.5,12.8-14.9,25.7-21.9,38.9
									c-7,13.1-13.7,26.3-19.5,39.9c-4.5,10.5-8.9,21.5-10.6,32.8c-0.6,4.1-0.6,8,0.6,12c1.3,4.5,3.7,8.8,6,12.8
									c3.6,6.3,7.7,12.8,12.8,18c2.5,2.6,5.5,4.4,9,5.3c3.8,0.9,7.7,1,11.6,0.4c10.9-1.6,21.3-6.9,30.7-12.4
									c14.8-8.7,28.4-19.4,41.3-30.7c18-15.7,34.7-32.8,50.6-50.6c4.5-5.1,9-10.2,13.4-15.3c0.8-0.9-1-4.4-1.2-4.8
									c-1.5-3.5-3.5-6.9-5.5-10c-2-3.2-4.1-6.5-6.6-9.4c-0.4-0.5-3.2-3.9-3.8-3.2c-12.4,14.6-25.3,28.8-38.9,42.3
									c-11,11-22.4,21.7-34.5,31.5c-9.4,7.7-19.2,15-29.5,21.3c-7.6,4.6-15.6,8.9-24.1,11.6c-5.7,1.9-11.8,3.2-17.8,2.4
									c-0.6-0.1-1.2-0.2-1.7-0.3c0.3,0.1,0.5,0.1,0.8,0.2c-2.5-0.6-4.9-1.6-7-3.3c0.4,0.4,0.9,0.7,1.3,1.1c-1.1-0.9-2.7-3,0.1,0.3
									c-0.1-0.2-0.3-0.3-0.4-0.5c-0.8-1,2.6,3.5,1.7,2.1c-0.9-1.3,2.9,4.2,1.8,2.6c-0.9-1.4,3.1,4.9,2,3c-0.6-0.9,2.9,5,1.9,3.1
									c-0.2-0.3,2.4,4.6,1.5,2.8c-0.5-1,1.8,3.9,1.1,2.3c-0.1-0.2-0.2-0.4-0.2-0.5c-0.4-0.9,1.2,3.1,0.7,1.7
									c-0.1-0.2-0.1-0.4-0.2-0.6c-0.1-0.4-0.2-0.7-0.3-1.1c0.1,0.6,0.3,1.1,0.4,1.7c-1.2-5.1-0.1-10.7,1.1-15.8
									c-0.1,0.3-0.1,0.5-0.2,0.8c2.7-11,7.1-21.7,11.8-32c5.8-12.8,12.2-25.3,18.8-37.6c6.6-12.2,13.4-24.2,20.5-36.2
									c5.5-9.4,11.2-18.7,16.9-27.9c1.8-2.9,3.6-5.8,5.4-8.7c0.8-1.3,1.8-2.6,2.6-4c0-0.1,0.1-0.1,0.1-0.2
									c0.7-1.1-0.9-4.1-1.2-4.8c-1.5-3.5-3.5-6.9-5.5-10c-2-3.2-4.1-6.5-6.6-9.4C508.2,535.1,505.2,531.5,504.7,532.3L504.7,532.3
									z"/>
							</g>
						</g>
						<g>
							<path class="st4" d="M420.1,343.9c0,0,45.3,274.8,255.4,307.1c210.2,32.3,245.7-25.9,320.1-64.7
								c74.4-38.8,148.7-171.4,155.2-252.2"/>
							<g>
								<path class="st5" d="M404.3,340.2c1.7,10.1,4.1,20,6.7,29.9c6.4,24.7,14.5,49,24.2,72.6c12.7,30.9,28.2,60.7,47.3,88.1
									c21.1,30.2,46.9,57.4,77.3,78.3C598,635.5,642.3,650,688,656.6c52.5,7.6,106.6,12.6,159.5,5.7c31.7-4.2,62.2-13.5,90.5-28.5
									c23-12.3,44.3-27.5,67.2-40.1c8-4.3,15.8-8.6,23.2-13.9c9.1-6.5,17.6-13.8,25.5-21.6c17.7-17.3,33.2-36.7,47-57.2
									c27.3-40.6,50-86.4,61-134.2c2.2-9.5,3.8-19.1,4.6-28.9c0.1-1.6-3.2-3-4.1-3.4c-3.4-1.6-7.3-2.8-10.9-3.6
									c-1.6-0.4-16.2-3.7-16.5-0.3c-1.7,21.1-7.3,41.8-14.3,61.8c-8.2,23.4-18.6,45.9-30.7,67.5c-12.2,21.9-26.1,43-41.9,62.5
									c-14.2,17.6-30.1,34.2-48.4,47.5c-12.7,9.3-27,16-40.4,24.1c-10.9,6.6-21.6,13.5-32.4,20.1c-11.2,6.8-22.7,13.2-34.7,18.6
									c-6.5,2.9-13.1,5.6-19.9,8c-3.6,1.3-7.3,2.5-11,3.6c-1.8,0.5-3.6,1.1-5.4,1.5c-0.9,0.2-1.7,0.5-2.6,0.7
									c-0.4,0.1-3.2,0.8-2.2,0.6c-18.2,4.4-36.9,6.8-55.6,7.9c-1.4,0.1-2.7,0.1-4.1,0.2c-0.3,0-1.9,0.1-0.1,0
									c-0.6,0-1.2,0-1.8,0.1c-2.8,0.1-5.7,0.2-8.5,0.2c-6,0.1-11.9,0.1-17.9,0c-6.4-0.1-12.8-0.4-19.2-0.7c-1.5-0.1-3-0.2-4.5-0.3
									c2.4,0.1,0.4,0-0.1,0c-1-0.1-1.9-0.1-2.9-0.2c-3.7-0.3-7.4-0.6-11.1-0.9c-7.2-0.6-14.4-1.4-21.6-2.2
									c-3.7-0.4-7.3-0.9-11-1.3c-2-0.3-4-0.5-6-0.8c-0.4-0.1-3.2-0.4-1.4-0.2c1.6,0.2-2.4-0.3-2.8-0.4c-6.4-0.9-12.8-1.8-19.2-3.1
									c-4.3-0.8,3.1,0.7-0.5-0.1c-1.3-0.3-2.6-0.5-3.8-0.8c-1.1-0.3-2.3-0.5-3.4-0.8c-1.3-0.3-6.3-1.7-0.8-0.2
									c-2.3-0.7-4.7-1.3-7-2c-1.2-0.4-2.4-0.7-3.6-1.1c-0.5-0.2-1.1-0.3-1.6-0.5c-3-0.9,3.4,1.2,0.5,0.2c-4.6-1.6-9.1-3.3-13.6-5
									c-1.7-0.7,3,1.3,0.4,0.2c-0.5-0.2-1-0.4-1.5-0.6c-1-0.4-2-0.9-3-1.3c-2.3-1-4.7-2.1-7-3.2c-2.1-1-4.1-2-6.1-3.1
									c-0.9-0.5-1.9-1-2.8-1.5c-2.3-1.2,1.3,0.7-0.1-0.1c-0.6-0.3-1.2-0.6-1.7-1c-32.1-18-58.5-42.2-81.4-71.1
									c-20.9-26.4-37.9-55.7-51.9-86.3c-11.3-24.7-20.6-50.2-28.1-76.3c-3.9-13.6-7.4-27.3-9.9-41.2c-0.1-0.6-0.2-1.3-0.3-1.9
									c-0.3-1.8-2.7-2.8-4.1-3.4c-3.4-1.6-7.3-2.8-10.9-3.6C419.7,340.3,403.9,337.5,404.3,340.2L404.3,340.2z"/>
							</g>
						</g>
						<g>
							<path class="st4" d="M641.6,594.5c0,0-71.1,242.5,3.2,255.4s116.4-249,116.4-249"/>
							<g>
								<path class="st5" d="M627.8,586c-0.7,2.3-1.3,4.7-2,7.1c-1.7,6.3-3.4,12.7-5,19c-2.4,9.4-4.6,18.8-6.7,28.2
									c-2.7,11.9-5.1,23.8-7.3,35.7c-2.3,12.4-4.3,24.9-6,37.4c-1.6,12.5-2.9,25-3.6,37.6c-0.6,11.5-0.7,23.1,0.2,34.7
									c0.8,10.6,2.6,21,5.9,31c3.1,9.4,8.3,18,15.4,25c5.4,5.3,11.8,9.7,18.7,12.9c5.3,2.5,11.2,4.6,17.1,5.2
									c5.2,0.6,9.8,0.4,14.9-0.7c3.5-0.8,6.8-2.1,9.9-3.9c7.6-4.3,14-10.5,19.5-17.2c6.4-7.8,11.7-16.4,16.5-25.3
									c5.5-10.2,10.2-20.8,14.5-31.6c4.7-11.6,8.8-23.5,12.7-35.4c3.8-11.9,7.3-24,10.6-36c3.1-11.4,5.9-22.8,8.6-34.3
									c2.4-10.4,4.7-20.8,6.8-31.2c1.5-7.5,3-15,4.4-22.5c0.8-4.1,1.5-8.3,2.2-12.4c0.1-0.5,0.2-1.1,0.3-1.6
									c-0.2-1.2-0.6-2.3-1.4-3.3c-0.8-1.4-1.8-2.6-3-3.7c-2.9-2.8-6.7-5.4-10.3-7c-2.9-1.3-6.5-3-9.7-2.7
									c-0.7,0.1-1.4,0.3-2.1,0.4c-1.2,0.5-1.8,1.4-1.7,2.8c-0.4,2.4-0.8,4.7-1.2,7.1c-1.1,6.3-2.3,12.7-3.6,19c-1,5-2,9.9-3,14.9
									c0.1-0.6,0.2-1.1,0.4-1.7c-2.8,13.2-5.8,26.4-9,39.5c-3.7,15.1-7.8,30.1-12.3,44.9c-4.6,15.1-9.7,30.1-15.5,44.8
									c-5.3,13.5-11.3,26.7-18.6,39.3c-5.9,10.2-12.8,20.2-21.6,28.2c-0.9,0.8-1.8,1.6-2.8,2.4c0.4-0.4,0.9-0.7,1.3-1.1
									c-4.2,3.4-8.9,6.2-14,7.8c-1.4,0.4-2.8,0.8-4.2,1c0.7-0.1,1.4-0.3,2.1-0.4c-2.7,0.5-5.5,0.6-8.3,0.3
									c0.9,0.1,1.9,0.2,2.8,0.3c-1.8-0.2-3.6-0.5-5.4-1c1.1,0.3,2.2,0.6,3.3,0.9c-0.7-0.2-1.4-0.4-2.1-0.7
									c-0.4-0.1-0.7-0.3-1.1-0.4c-1.8-0.7,4.8,2,2.6,1.1c-0.6-0.3-1.3-0.6-1.9-0.9c-1.5-0.8,5,2.8,2.8,1.5
									c-0.3-0.2-0.6-0.4-0.9-0.5c-0.3-0.2-0.6-0.4-0.9-0.6c5.9,3.8,4.2,2.9,3,2.1c-0.1-0.1-0.3-0.2-0.4-0.3
									c-0.6-0.4-1.1-0.9-1.7-1.3c-1.3-1,3.8,3.3,2.4,2.1c-0.1-0.1-0.2-0.2-0.3-0.3c-0.3-0.3-0.6-0.5-0.8-0.8c-0.5-0.5-1-1-1.5-1.5
									c0.8,0.8,1.5,1.7,2.3,2.5c-1.5-1.7-2.9-3.5-4.1-5.4c0.5,0.8,1,1.6,1.5,2.4c-3-4.7-5.2-10-6.8-15.3c0.2,0.7,0.4,1.4,0.6,2.1
									c-2.5-8.4-3.8-17.1-4.6-25.7c-0.9-10.1-0.9-20.2-0.5-30.3c0.4-11,1.3-21.9,2.6-32.8c1.3-11.1,2.9-22.3,4.7-33.3
									c1.8-10.6,3.8-21.2,5.9-31.8c0.3-1.2,0.5-2.5,0.8-3.7c-0.1,0.6-0.2,1.1-0.4,1.7c1.5-7.1,3.1-14.2,4.7-21.3
									c1.4-6.1,2.9-12.1,4.4-18.1c1.2-4.8,2.4-9.6,3.7-14.3c0.8-3.2,1.7-6.3,2.6-9.5c0.4-1.3,0.8-2.6,1.1-3.9c0,0,0,0,0-0.1
									c0.5-0.9,0.5-1.8,0-2.7c-0.3-1.3-0.9-2.4-1.8-3.4c-2.2-2.9-5.7-5.6-8.8-7.5c-3.3-1.9-6.9-3.9-10.7-4.5
									c-0.9-0.1-1.9-0.2-2.8-0.3C629.8,584.5,628.7,584.9,627.8,586L627.8,586z"/>
							</g>
						</g>
						<g>
							<path class="st4" d="M932.5,555.7c0,0,132.6,177.8,181.1,158.4c48.5-19.4-93.8-236-93.8-236"/>
							<g>
								<path class="st5" d="M920.7,558.6c1.4,1.9,2.8,3.8,4.3,5.6c3.8,5,7.7,10,11.6,14.9c5.8,7.3,11.6,14.5,17.5,21.6
									c8,9.6,16,19,24.3,28.4c8,9.1,16.2,18,24.6,26.8c8.3,8.7,16.9,17.2,25.8,25.3c9.1,8.4,18.6,16.4,28.6,23.8
									c8.5,6.3,17.5,12,27.1,16.4c4.6,2.1,9.4,3.8,14.2,5.1c4.2,1.1,8.6,1.8,13,1.6c5.1-0.2,9.3-1.1,13.9-3.2
									c2.9-1.3,5.3-3.5,7.3-6c2-2.5,3.3-5.7,4.2-8.7c0.8-2.6,1.1-5.4,1.2-8.2c0.2-8.2-0.8-16.1-2.7-24.1
									c-2.4-9.9-5.6-19.6-9.3-29.2c-3.8-10-8.1-19.9-12.7-29.6c-4.8-10.4-9.9-20.6-15.2-30.7c-5.3-10.2-10.9-20.4-16.5-30.4
									c-5.8-10.3-11.7-20.6-17.8-30.8c-4.7-8-9.5-15.9-14.4-23.8c-3.6-5.9-7.3-11.7-11-17.5c-2-3.2-4.1-6.4-6.2-9.6
									c-0.3-0.4-0.5-0.8-0.8-1.2c-2.2-3.3-6.2-6.3-9.7-7.8c-2.9-1.3-7.5-2.4-10.7-1.4c-2.7,0.9-5.4,2.6-5.9,5.8
									c-0.5,3.4,0.8,6.5,2.7,9.3c0.8,1.2,1.6,2.5,2.4,3.7c2.2,3.5,4.5,6.9,6.7,10.4c3.3,5.3,6.7,10.6,9.9,16
									c4.1,6.7,8.2,13.5,12.3,20.3c4.6,7.8,9.2,15.6,13.7,23.5c0.6,1,1.2,2.1,1.7,3.1c-0.6-1.1-1.2-2.1-1.8-3.2
									c4.2,7.4,8.3,14.9,12.3,22.4c4.1,7.6,8.1,15.3,12,23c3.8,7.6,7.5,15.2,11,22.9c3.3,7.3,6.5,14.6,9.4,22.1
									c2.6,6.7,5.1,13.4,7.1,20.3c0.2,0.8,0.5,1.6,0.7,2.3c-0.3-1.1-0.6-2.1-0.9-3.2c2.1,7.1,3.8,14.4,4.4,21.8
									c0.1,1.7,0.2,3.4,0.2,5.2c0-1,0-2,0-3c-0.1,3.6-0.5,7.3-1.9,10.7c0.4-0.9,0.7-1.8,1.1-2.6c-0.8,2-2,3.8-3.5,5.3
									c0.7-0.7,1.4-1.3,2-2c-1.3,1.2-2.8,2.2-4.4,2.9c0.9-0.4,1.8-0.8,2.7-1.2c-1.9,0.8-3.8,1.2-5.8,1.5c1.1-0.1,2.2-0.2,3.3-0.3
									c-2.2,0.2-4.4,0.1-6.6-0.1c1.2,0.2,2.4,0.3,3.6,0.5c-2.8-0.4-5.6-1.1-8.3-2c1.3,0.4,2.5,0.9,3.8,1.3
									c-4.5-1.5-8.7-3.6-12.9-5.8c1.3,0.7,2.5,1.4,3.8,2.1c-6.8-3.8-13.3-8.2-19.5-13c-2-1.5-3.9-3-5.8-4.6
									c1.1,0.9,2.2,1.8,3.4,2.7c-10.5-8.5-20.4-17.6-30-27.1c-10.1-10-19.9-20.3-29.4-30.9c-5.2-5.8-10.3-11.6-15.4-17.5
									c0.9,1,1.7,2,2.6,3c-5.1-5.9-10.2-11.9-15.2-18c-4.3-5.2-8.6-10.5-12.9-15.8c-3.4-4.2-6.8-8.5-10.1-12.8
									c-2.2-2.9-4.5-5.8-6.7-8.7c-0.9-1.2-1.8-2.4-2.7-3.6c0,0,0,0,0,0c-2.5-3.3-5.9-6.2-9.7-7.8c-2.9-1.3-7.5-2.4-10.7-1.4
									c-2.7,0.9-5.4,2.6-5.9,5.8C917.6,552.6,918.8,556,920.7,558.6L920.7,558.6z"/>
							</g>
						</g>
					</g>
					<polyline class="st4" points="453.9,280.9 802.2,93.8 1097.3,60.7 1111.1,347 970.6,422 478.1,412.6 					"/>
				</g>
			</g>
			<g>
				<path class="st6" d="M2637.4,1695c0,436.3-352.3,790-786.9,790c-434.6,0-786.9-353.7-786.9-790c0-436.3,352.3-790,786.9-790
					C2285.1,905,2637.4,1258.7,2637.4,1695z M1063.7,1695c-434.6,0-786.9-353.7-786.9-790c0-436.3,352.3-790,786.9-790h1573.9
					c434.6,0,786.9,353.7,786.9,790c0,436.3-352.3,790-786.9,790H1063.7z M2637.6,115c0,436.3-352.3,790-786.9,790
					s-786.9-353.7-786.9-790s352.3-790,786.9-790S2637.6-321.3,2637.6,115z"/>
			</g>
		</g>
	</g>
	<g class="st1">
		<path class="st7" d="M529.4,1065.3c-24,0-43-16.2-43-41v-76.8h22.8v76c0,13.5,7.9,21.5,20.2,21.5s20.3-8,20.3-21.5v-76h22.6v76.8
			C572.4,1049.1,553.4,1065.3,529.4,1065.3z"/>
		<path class="st5" d="M645.9,1064.3v-51.7c0-11.6-7.4-15.6-14.1-15.6c-6.7,0-14.3,3.9-14.3,15.6v51.7h-21.3v-85.5H617v7.9
			c5.6-5.9,13.5-8.9,21.3-8.9c8.5,0,15.4,2.8,20.2,7.5c6.9,6.9,8.7,14.9,8.7,24.3v54.6H645.9z"/>
		<path class="st5" d="M769.3,1047.3c-8.4,11.6-19.4,17.1-35.3,17.1h-42.2V947.5H734c15.9,0,26.9,5.4,35.3,17.1
			c7.2,10,7.4,22,7.4,41.3C776.7,1025.3,776.5,1037.3,769.3,1047.3z M749.1,975.1c-3.8-4.8-9.4-7.2-17.1-7.2h-17.4v76.1H732
			c7.7,0,13.3-2.5,17.1-7.2c4.3-5.1,4.8-12.5,4.8-30.8C753.9,987.5,753.4,980.2,749.1,975.1z"/>
		<path class="st7" d="M877.4,1047.3c-8.4,11.6-19.4,17.1-35.3,17.1H800V947.5h42.2c15.9,0,26.9,5.4,35.3,17.1
			c7.2,10,7.4,22,7.4,41.3C884.8,1025.3,884.6,1037.3,877.4,1047.3z M857.2,975.1c-3.8-4.8-9.4-7.2-17.1-7.2h-17.4v76.1h17.4
			c7.7,0,13.3-2.5,17.1-7.2c4.3-5.1,4.8-12.5,4.8-30.8C862,987.5,861.5,980.2,857.2,975.1z"/>
		<path class="st7" d="M908.1,1064.3V947.5h77v20.3h-54.1v27.4H977v20.3h-46.1v28.4h54.1v20.3H908.1z"/>
		<path class="st7" d="M1069.4,1064.3l-22.8-46.6h-16.4v46.6h-22.8V947.5h45.8c23.8,0,37.9,16.2,37.9,35.8c0,16.4-10,26.6-21.3,30.7
			l26.1,50.4H1069.4z M1051.7,967.8h-21.5v30.8h21.5c10,0,16.6-6.4,16.6-15.4S1061.7,967.8,1051.7,967.8z"/>
		<path class="st5" d="M562,1195.8c-8.8,0-16-3.1-21.3-8.4c-8-8-8.5-15.4-8.5-34.9c0-19.5,0.5-26.9,8.5-34.9
			c5.3-5.3,12.4-8.4,21.3-8.4c15.4,0,26.5,9.4,29.5,25.3h-9.3c-2.3-10.5-9.6-17.2-20.2-17.2c-5.7,0-10.8,2-14.7,6
			c-5.4,5.5-6,11.7-6,29.1s0.6,23.7,6,29.1c3.9,3.9,9,6,14.7,6c10.6,0,18.2-6.7,20.4-17.2h9.1C588.5,1186.4,577.3,1195.8,562,1195.8
			z"/>
		<path class="st5" d="M658,1187.5c-5.3,5.3-12.3,8.4-21.1,8.4c-8.8,0-16-3.1-21.3-8.4c-8-8-8.5-15.4-8.5-34.9
			c0-19.5,0.5-26.9,8.5-34.9c5.3-5.3,12.4-8.4,21.3-8.4c8.8,0,15.9,3.1,21.1,8.4c8,8,8.6,15.4,8.6,34.9
			C666.6,1172.1,666,1179.5,658,1187.5z M651.6,1123.5c-3.9-3.9-9-6-14.7-6c-5.7,0-10.8,2-14.7,6c-5.4,5.5-6,11.7-6,29.1
			s0.6,23.7,6,29.1c3.9,3.9,9,6,14.7,6c5.7,0,10.8-2,14.7-6c5.4-5.5,6-11.7,6-29.1S657,1128.9,651.6,1123.5z"/>
		<path class="st5" d="M742.3,1195.1l-45.2-68.2v68.2H688v-85.1h8.6l45.2,68v-68h9.1v85.1H742.3z"/>
		<path class="st5" d="M800.4,1118.2v76.9h-9.1v-76.9h-24.6v-8.1H825v8.1H800.4z"/>
		<path class="st5" d="M889.8,1195.1l-19.4-37.8H850v37.8h-9.1v-85.1h32.6c14.8,0,25.2,9,25.2,23.7c0,12.4-7.5,20.5-18.5,22.8
			l20.2,38.6H889.8z M872.7,1118.2H850v31.2h22.7c9.9,0,17-5.1,17-15.5C889.7,1123.5,882.6,1118.2,872.7,1118.2z"/>
		<path class="st5" d="M966.4,1187.5c-5.3,5.3-12.3,8.4-21.1,8.4c-8.8,0-16-3.1-21.3-8.4c-8-8-8.5-15.4-8.5-34.9
			c0-19.5,0.5-26.9,8.5-34.9c5.3-5.3,12.4-8.4,21.3-8.4c8.8,0,15.9,3.1,21.1,8.4c8,8,8.6,15.4,8.6,34.9
			C975,1172.1,974.4,1179.5,966.4,1187.5z M959.9,1123.5c-3.9-3.9-9-6-14.7-6c-5.7,0-10.8,2-14.7,6c-5.4,5.5-6,11.7-6,29.1
			s0.6,23.7,6,29.1c3.9,3.9,9,6,14.7,6c5.7,0,10.8-2,14.7-6c5.4-5.5,6-11.7,6-29.1S965.3,1128.9,959.9,1123.5z"/>
		<path class="st5" d="M996.4,1195.1v-85.1h9.1v76.9h43.5v8.1H996.4z"/>
	</g>
	<g class="st1">
		<path class="st5" d="M530.8,1294.2v-33.5l-12.1,26.6h-4l-12.3-26.6v33.5h-4.7v-44.1h4.7l14.4,31.3l14-31.3h4.7v44.1H530.8z"/>
		<path class="st5" d="M573.9,1294.2l-3.5-10h-19.2l-3.5,10h-5l16.2-44.1h4l16.2,44.1H573.9z M560.9,1256.9l-8.3,23.3H569
			L560.9,1256.9z"/>
		<path class="st5" d="M614.1,1294.2l-23.4-35.3v35.3H586v-44.1h4.5l23.4,35.2v-35.2h4.7v44.1H614.1z"/>
		<path class="st5" d="M657,1294.2l-3.5-10h-19.2l-3.5,10h-5l16.2-44.1h4l16.2,44.1H657z M644,1256.9l-8.3,23.3h16.5L644,1256.9z"/>
		<path class="st5" d="M694,1289.5c-3.1,3.4-7.2,5.1-11.8,5.1c-4.6,0-8.3-1.6-11-4.3c-4.1-4.1-4.4-8-4.4-18.1
			c0-10.1,0.2-13.9,4.4-18.1c2.7-2.7,6.4-4.3,11-4.3c8.3,0,14.2,5.6,15.4,13.2H693c-1.2-5.6-5.2-9-10.7-9c-3,0-5.6,1.1-7.6,3.1
			c-2.8,2.8-3.1,6.1-3.1,15.1c0,9,0.3,12.3,3.1,15.1c2,2,4.6,3.1,7.6,3.1c3.2,0,6.3-1.3,8.4-3.8c1.8-2.2,2.5-4.6,2.5-8v-3.4h-10.8
			v-4h15.5v7C697.8,1283.3,696.9,1286.4,694,1289.5z"/>
		<path class="st5" d="M708.8,1294.2v-44.1h4.7v44.1H708.8z"/>
		<path class="st5" d="M754.3,1294.2l-23.4-35.3v35.3h-4.7v-44.1h4.5l23.4,35.2v-35.2h4.7v44.1H754.3z"/>
		<path class="st5" d="M797,1289.5c-3.1,3.4-7.2,5.1-11.8,5.1c-4.6,0-8.3-1.6-11-4.3c-4.1-4.1-4.4-8-4.4-18.1
			c0-10.1,0.2-13.9,4.4-18.1c2.7-2.7,6.4-4.3,11-4.3c8.3,0,14.2,5.6,15.4,13.2H796c-1.2-5.6-5.2-9-10.7-9c-3,0-5.6,1.1-7.6,3.1
			c-2.8,2.8-3.1,6.1-3.1,15.1c0,9,0.3,12.3,3.1,15.1c2,2,4.6,3.1,7.6,3.1c3.2,0,6.3-1.3,8.4-3.8c1.8-2.2,2.5-4.6,2.5-8v-3.4h-10.8
			v-4h15.5v7C800.8,1283.3,799.9,1286.4,797,1289.5z"/>
		<path class="st5" d="M860.2,1294.2v-33.5l-12.1,26.6h-4l-12.3-26.6v33.5h-4.7v-44.1h4.7l14.4,31.3l14-31.3h4.7v44.1H860.2z"/>
		<path class="st5" d="M903.3,1294.2l-3.5-10h-19.2l-3.5,10h-5l16.2-44.1h4l16.2,44.1H903.3z M890.3,1256.9l-8.3,23.3h16.5
			L890.3,1256.9z"/>
		<path class="st5" d="M926.8,1294.6c-6.6,0-11-1.7-15-5.8l3.2-3.2c3.7,3.7,7.1,4.8,12,4.8c6.5,0,10.5-3,10.5-8.2
			c0-2.4-0.7-4.2-2.2-5.5c-1.4-1.2-2.6-1.7-5.8-2.2l-5.1-0.7c-3.5-0.6-6.1-1.6-8-3.3c-2.2-2-3.4-4.7-3.4-8.3
			c0-7.5,5.4-12.4,14.1-12.4c5.6,0,9.3,1.5,13.1,4.8l-3,3c-2.7-2.5-5.7-3.8-10.3-3.8c-5.9,0-9.3,3.3-9.3,8.2c0,2.2,0.6,4,2,5.1
			c1.4,1.2,3.5,1.9,5.8,2.3l5.1,0.8c4.1,0.6,6,1.4,8,3.2c2.4,2,3.7,5,3.7,8.7C942,1289.8,936,1294.6,926.8,1294.6z"/>
		<path class="st5" d="M964.5,1254.4v39.9h-4.7v-39.9H947v-4.2h30.2v4.2H964.5z"/>
		<path class="st5" d="M985.5,1294.2v-44.1h4.7v44.1H985.5z"/>
		<path class="st5" d="M1015.9,1254.4v39.9h-4.7v-39.9h-12.8v-4.2h30.2v4.2H1015.9z"/>
		<path class="st5" d="M1036.8,1294.2v-44.1h4.7v44.1H1036.8z"/>
		<path class="st5" d="M1065.6,1294.6c-6.6,0-11-1.7-15-5.8l3.2-3.2c3.7,3.7,7.1,4.8,12,4.8c6.5,0,10.5-3,10.5-8.2
			c0-2.4-0.7-4.2-2.2-5.5c-1.4-1.2-2.6-1.7-5.8-2.2l-5.1-0.7c-3.5-0.6-6.1-1.6-8-3.3c-2.2-2-3.4-4.7-3.4-8.3
			c0-7.5,5.4-12.4,14.1-12.4c5.6,0,9.3,1.5,13.1,4.8l-3,3c-2.7-2.5-5.7-3.8-10.3-3.8c-5.9,0-9.3,3.3-9.3,8.2c0,2.2,0.6,4,2,5.1
			c1.4,1.2,3.5,1.9,5.8,2.3l5.1,0.8c4.1,0.6,6,1.4,8,3.2c2.4,2,3.7,5,3.7,8.7C1080.8,1289.8,1074.8,1294.6,1065.6,1294.6z"/>
		<path class="st5" d="M574.6,1352.9c-3,3.2-6.6,4.6-11.6,4.6h-15.1v-44.1H563c5,0,8.6,1.4,11.6,4.6c3.9,4.2,3.9,10.6,3.9,17.4
			C578.5,1342.3,578.5,1348.7,574.6,1352.9z M570.9,1320.9c-2.2-2.5-5.3-3.2-8.7-3.2h-9.6v35.6h9.6c3.3,0,6.4-0.7,8.7-3.2
			c2.8-3,2.9-8.5,2.9-14.6C573.8,1329.4,573.7,1323.9,570.9,1320.9z"/>
		<path class="st5" d="M604.3,1357.9c-8.9,0-15.3-6.1-15.3-14.9v-29.5h4.7v29.2c0,6.7,4.2,11.1,10.6,11.1s10.7-4.4,10.7-11.1v-29.2
			h4.7v29.5C619.7,1351.8,613.2,1357.9,604.3,1357.9z"/>
		<path class="st5" d="M657.2,1357.6l-10-19.6h-10.6v19.6h-4.7v-44.1h16.9c7.7,0,13.1,4.6,13.1,12.3c0,6.4-3.9,10.6-9.6,11.8
			l10.5,20H657.2z M648.3,1317.7h-11.8v16.2h11.8c5.1,0,8.8-2.7,8.8-8C657.1,1320.4,653.4,1317.7,648.3,1317.7z"/>
		<path class="st5" d="M672.4,1357.6v-44.1h4.7v44.1H672.4z"/>
		<path class="st5" d="M718,1357.6l-23.4-35.3v35.3h-4.7v-44.1h4.5l23.4,35.2v-35.2h4.7v44.1H718z"/>
		<path class="st5" d="M760.7,1352.8c-3.1,3.4-7.2,5.1-11.8,5.1c-4.6,0-8.3-1.6-11-4.3c-4.1-4.1-4.4-8-4.4-18.1
			c0-10.1,0.2-13.9,4.4-18.1c2.7-2.7,6.4-4.3,11-4.3c8.3,0,14.2,5.6,15.4,13.2h-4.7c-1.2-5.6-5.2-9-10.7-9c-3,0-5.6,1.1-7.6,3.1
			c-2.8,2.8-3.1,6.1-3.1,15.1c0,9,0.3,12.3,3.1,15.1c2,2,4.6,3.1,7.6,3.1c3.2,0,6.3-1.3,8.4-3.8c1.8-2.2,2.5-4.6,2.5-8v-3.4h-10.8
			v-4h15.5v7C764.5,1346.6,763.5,1349.7,760.7,1352.8z"/>
		<path class="st5" d="M817.5,1352.9c-3,3.2-6.6,4.6-11.6,4.6h-15.1v-44.1h15.1c5,0,8.6,1.4,11.6,4.6c3.9,4.2,3.9,10.6,3.9,17.4
			C821.4,1342.3,821.4,1348.7,817.5,1352.9z M813.8,1320.9c-2.2-2.5-5.3-3.2-8.7-3.2h-9.6v35.6h9.6c3.3,0,6.4-0.7,8.7-3.2
			c2.8-3,2.9-8.5,2.9-14.6C816.7,1329.4,816.6,1323.9,813.8,1320.9z"/>
		<path class="st5" d="M857.8,1357.6l-10-19.6h-10.6v19.6h-4.7v-44.1h16.9c7.7,0,13.1,4.6,13.1,12.3c0,6.4-3.9,10.6-9.6,11.8
			l10.5,20H857.8z M848.9,1317.7h-11.8v16.2h11.8c5.1,0,8.8-2.7,8.8-8C857.7,1320.4,854.1,1317.7,848.9,1317.7z"/>
		<path class="st5" d="M884.7,1339.4v18.2H880v-18.2l-13.1-25.9h5.1l10.4,21.1l10.3-21.1h5.1L884.7,1339.4z"/>
		<path class="st5" d="M900.4,1337.6v-4.1h17v4.1H900.4z"/>
		<path class="st5" d="M953.2,1353.6c-2.7,2.7-6.4,4.3-11,4.3s-8.3-1.6-11-4.3c-4.1-4.1-4.4-8-4.4-18.1c0-10.1,0.2-13.9,4.4-18.1
			c2.7-2.7,6.4-4.3,11-4.3s8.2,1.6,11,4.3c4.1,4.1,4.5,8,4.5,18.1C957.6,1345.6,957.3,1349.4,953.2,1353.6z M949.8,1320.4
			c-2-2-4.6-3.1-7.6-3.1s-5.6,1.1-7.6,3.1c-2.8,2.8-3.1,6.1-3.1,15.1c0,9,0.3,12.3,3.1,15.1c2,2,4.6,3.1,7.6,3.1s5.6-1.1,7.6-3.1
			c2.8-2.8,3.1-6.1,3.1-15.1C952.9,1326.5,952.6,1323.3,949.8,1320.4z"/>
		<path class="st5" d="M973.4,1317.7v16.2h19.3v4.2h-19.3v19.4h-4.7v-44.1h27.4v4.2H973.4z"/>
		<path class="st5" d="M1009.3,1317.7v16.2h19.3v4.2h-19.3v19.4h-4.7v-44.1h27.4v4.2H1009.3z"/>
	</g>
</g>
</svg>
