<?xml version="1.0" encoding="utf-8"?>
<!-- Generator: Adobe Illustrator 23.0.6, SVG Export Plug-In . SVG Version: 6.00 Build 0)  -->
<svg version="1.1" xmlns="http://www.w3.org/2000/svg" xmlns:xlink="http://www.w3.org/1999/xlink" x="0px" y="0px"
	 viewBox="0 0 750 1334" style="enable-background:new 0 0 750 1334;" xml:space="preserve">
<style type="text/css">
	.st0{display:none;}
	.st1{display:inline;}
	.st2{display:inline;opacity:0.3;clip-path:url(#SVGID_2_);}
	.st3{opacity:0.7;}
	.st4{fill:#2B8E81;}
	.st5{fill:none;stroke:#FFFFFF;stroke-width:2.9636;stroke-miterlimit:10;}
	.st6{display:inline;clip-path:url(#SVGID_4_);}
	.st7{fill:none;stroke:#FFFFFF;stroke-width:1.9577;stroke-miterlimit:10;}
	.st8{display:inline;clip-path:url(#SVGID_6_);}
	.st9{fill:#207167;}
	.st10{fill:#FFFFFF;}
	.st11{display:inline;fill:none;stroke:#3C8079;stroke-width:14;stroke-linecap:round;stroke-miterlimit:10;}
	.st12{fill:#97CABD;}
	.st13{clip-path:url(#SVGID_8_);}
	.st14{clip-path:url(#SVGID_10_);}
	.st15{fill:#E0EFEB;}
	.st16{fill:url(#SVGID_11_);}
	.st17{fill:url(#SVGID_12_);}
	.st18{fill:#249592;}
	.st19{fill:#2E3945;}
</style>
<g id="Layer_3">
	<g class="st0">
		<defs>
			<rect id="SVGID_1_" x="3777" y="9131" width="750" height="1334"/>
		</defs>
		<clipPath id="SVGID_2_" class="st1">
			<use xlink:href="#SVGID_1_"  style="overflow:visible;"/>
		</clipPath>
		<g class="st2">
			<g>
				<g class="st3">
					<path class="st4" d="M3350.4,9757.5c-277.7-26.3-495.1-260.1-495.1-544.9c-302.1,0-547.2,245.1-547.2,547.4
						c0,302.1,245.1,547.2,547.2,547.2c0-284.8,217.4-518.5,495.1-544.8V9757.5z"/>
					<path class="st4" d="M2855.2,10307.1c0,302.2,245.1,547.3,547.1,547.3c302.3,0,547.5-245.1,547.5-547.3H2855.2z"/>
					<path class="st4" d="M2855.2,9212.5c0-302.2,245.1-547.3,547.1-547.3c302.3,0,547.5,245.1,547.5,547.3H2855.2z"/>
					<path class="st4" d="M3454.6,9762.3c277.8,26.3,495.2,260,495.2,544.8c302.1,0,547.1-245.1,547.1-547.2
						c0-302.2-245-547.4-547.1-547.4c0,284.8-217.4,518.7-495.2,544.9V9762.3z"/>
				</g>
				<g>
					<path class="st5" d="M3949.1,10308.7c0,303.1-244.8,548.9-546.8,548.9c-302,0-546.8-245.8-546.8-548.9
						c0-303.2,244.8-548.9,546.8-548.9C3704.3,9759.8,3949.1,10005.6,3949.1,10308.7z M2855.7,10308.7
						c-302,0-546.8-245.8-546.8-548.9c0-303.2,244.8-548.9,546.8-548.9h1093.5c302,0,546.8,245.8,546.8,548.9
						c0,303.1-244.8,548.9-546.8,548.9H2855.7z M3949.3,9210.9c0,303.1-244.8,548.9-546.8,548.9s-546.8-245.8-546.8-548.9
						c0-303.1,244.8-548.9,546.8-548.9S3949.3,8907.8,3949.3,9210.9z"/>
				</g>
			</g>
		</g>
	</g>
	<g class="st0">
		<defs>
			<rect id="SVGID_3_" x="-1493" y="6659" width="750" height="1334"/>
		</defs>
		<clipPath id="SVGID_4_" class="st1">
			<use xlink:href="#SVGID_3_"  style="overflow:visible;"/>
		</clipPath>
		<g class="st6">
			<g>
				<g>
					<path class="st4" d="M-1082.4,6102.6c-183.5-17.3-327.1-171.8-327.1-360c-199.6,0-361.5,161.9-361.5,361.6
						c0,199.5,161.9,361.5,361.5,361.5c0-188.1,143.6-342.5,327.1-359.9V6102.6z"/>
					<path class="st4" d="M-1409.5,6465.7c0,199.6,161.9,361.5,361.4,361.5c199.7,0,361.7-161.9,361.7-361.5H-1409.5z"/>
					<path class="st4" d="M-1409.5,5742.7c0-199.6,161.9-361.5,361.4-361.5c199.7,0,361.7,161.9,361.7,361.5H-1409.5z"/>
					<path class="st4" d="M-1013.6,6105.9c183.5,17.3,327.1,171.7,327.1,359.9c199.6,0,361.4-161.9,361.4-361.5
						c0-199.6-161.8-361.6-361.4-361.6c0,188.1-143.6,342.6-327.1,360V6105.9z"/>
				</g>
				<g>
					<path class="st7" d="M-686.9,6466.8c0,200.3-161.7,362.6-361.2,362.6c-199.5,0-361.2-162.3-361.2-362.6
						c0-200.3,161.7-362.6,361.2-362.6C-848.6,6104.2-686.9,6266.5-686.9,6466.8z M-1409.2,6466.8c-199.5,0-361.2-162.3-361.2-362.6
						c0-200.3,161.7-362.6,361.2-362.6h722.4c199.5,0,361.2,162.3,361.2,362.6c0,200.3-161.7,362.6-361.2,362.6H-1409.2z
						 M-686.8,5741.6c0,200.3-161.7,362.6-361.2,362.6s-361.2-162.3-361.2-362.6S-1247.5,5379-1048,5379S-686.8,5541.3-686.8,5741.6
						z"/>
				</g>
			</g>
		</g>
	</g>
	<g class="st0">
		<defs>
			<path id="SVGID_5_" d="M-736.2,7124.8c-97.4-98.8-157.5-234.5-157.5-384.3c-302.1,0-547.2,245.1-547.2,547.4
				c0,302.1,245.1,547.2,547.2,547.2c0-150.9,61.1-287.5,159.8-386.5C-733,7449-733,7124-736.2,7124.8z"/>
		</defs>
		<clipPath id="SVGID_6_" class="st1">
			<use xlink:href="#SVGID_5_"  style="overflow:visible;"/>
		</clipPath>
		<g class="st8">
			<g>
				<g>
					<path class="st9" d="M-1071.2,7115.1c0,0,34.9,146.6,82.1,139.8c47.2-6.7-6.7-173-6.7-173"/>
					<g>
						<path class="st10" d="M-1076.3,7108.7c4.9,20.4,11.2,40.4,18.3,60.1c6.1,16.8,13,33.4,21.4,49.2c7.1,13.5,15.6,27.4,27.1,37.6
							c7.7,6.8,18.8,12.6,29.2,8.5c8.9-3.5,12.7-13.8,14.3-22.5c2.5-13.5,1.8-27.6,0.4-41.1c-1.7-16.4-4.6-32.6-8.2-48.7
							c-4.8-22.1-10.6-44.1-17.5-65.6c-1.4-4.2-3.5-10.9-7.4-13.5c-3.7-2.5-2.3,3.3-1.7,5.2c1.5,4.7,2.9,9.4,4.3,14.1
							c3.5,11.9,6.3,22.6,8.9,33.4c6.7,27.8,13.2,57.1,11.9,85.9c-0.4,9.2-1.6,20.8-8.1,27.9c-6.2,6.9-16,7-24,3.1
							c-11-5.4-17.2-15.1-22.9-24.4c1.1,1.7-1.1-2-1.5-2.5c-0.9-1.7-1.9-3.3-2.8-5c-0.5-0.9-0.9-1.7-1.3-2.6
							c1.1,2.1,0.1,0.1-0.2-0.4c-0.9-1.9-1.9-3.9-2.8-5.8c-0.8-1.8-1.7-3.6-2.5-5.5c-0.3-0.8-0.7-1.5-1-2.3c-0.8-1.8,1,2.5-0.2-0.5
							c-1.6-3.9-3.2-7.7-4.7-11.6c-5.5-14.1-9.5-26.6-14.1-42.3c-1.4-4.7-2.7-9.5-3.9-14.3c-0.8-2.9,0.2,0.9-0.2-0.6
							c-0.1-0.5-0.3-1-0.4-1.6c-0.1-0.5-0.3-1-0.4-1.5c-1.2-5-3.3-10.4-6.7-14.4C-1075.2,7104.3-1077.3,7104.4-1076.3,7108.7
							L-1076.3,7108.7z"/>
					</g>
				</g>
				<g>
					<path class="st9" d="M-1274.8,7038.2c0,0-60.2,93.2-53.5,113.4c6.7,20.2,49.3,2.9,110-68.2"/>
					<g>
						<path class="st10" d="M-1283.8,7042.2c-17.7,27.5-35.3,56.2-47.7,86.5c-3.7,9-12.4,27.2-1.9,35c5,3.7,11.7,3,17.4,1.7
							c9.1-2.1,17.8-6.5,25.7-11.3c30.9-18.8,56.6-45.8,80-73.1c2.8-3.3,0.9-5.1-2.8-4.1c-5,1.3-9.8,5.1-13.1,9
							c-10.9,12.7-22.3,25-34.6,36.5c-9,8.4-17.4,15.4-26.7,21.5c-0.6,0.4-1.2,0.8-1.8,1.1c0.1-0.1,1.5-0.9,0.4-0.2
							c-1,0.6-1.9,1.2-2.9,1.8c-0.9,0.5-1.9,1.1-2.8,1.6c-2.1,1.2,0.7-0.2-1.5,0.7c-0.9,0.4-1.7,0.8-2.6,1.2
							c-0.4,0.2-2.7,1.1-1.7,0.7c0.9-0.3-1.2,0.4-1.6,0.5c-0.8,0.3-1.7,0.5-2.5,0.7c-1.3,0.3,0.9-0.1-0.8,0.2
							c-0.7,0.1-1.3,0.2-2,0.3c-0.6,0.1-1.2,0.1-1.9,0.1c-1.2,0,0.1,0.1-1-0.1c-1.9-0.3-4.1-1-5.2-1.8c-9-6.9-1.1-22.9,2.4-31.2
							c7.6-18.1,17.2-35.4,27.1-52.3c6.5-11.1,13.1-22.2,20.1-33c2.7-4.3-4.6-2.4-6.1-1.7C-1276.5,7034.5-1281,7037.9-1283.8,7042.2
							L-1283.8,7042.2z"/>
					</g>
				</g>
				<g>
					<path class="st9" d="M-1339.5,6897.7c0,0,31.4,190.9,177.5,213.4s170.7-18,222.4-44.9c51.7-27,103.3-119.1,107.8-175.2"/>
					<g>
						<path class="st10" d="M-1350.5,6897c4.1,24.8,12.4,49.5,21.9,72.7c18.9,45.9,47.6,89.9,89,118.3
							c25.8,17.7,54.5,27.3,85.3,31.8c35.5,5.1,72.1,8.1,107.8,3.2c22.8-3.1,44.5-10.1,64.8-20.9c16.2-8.6,31.1-19.3,47.1-28.1
							c28.2-15.3,49.8-39.2,67.5-65.7c19.1-28.5,35.1-60.8,42.8-94.3c1.5-6.7,2.7-13.5,3.3-20.3c0.5-5.3-4.3-8.8-9.1-10
							c-3.4-0.9-12.3-0.8-12.7,4.5c-2.6,31.1-15.5,61.5-30.6,88.5c-15.7,28.2-35.7,56.6-62.2,75.6c-8.7,6.3-18.5,10.8-27.6,16.4
							c-7.5,4.5-14.8,9.3-22.3,13.8c-3.8,2.3-7.7,4.5-11.6,6.7c-1.9,1-3.8,2-5.7,3c-1.4,0.7,1.9-0.9-0.4,0.2
							c-0.5,0.2-0.9,0.5-1.4,0.7c-1.2,0.6-2.4,1.1-3.6,1.7c-9.5,4.2-19.3,7.6-29.4,10c-0.2,0.1-1.8,0.4-0.3,0.1
							c-0.6,0.1-1.3,0.3-1.9,0.4c-1.5,0.3-2.9,0.6-4.4,0.9c-3.2,0.6-6.5,1.1-9.8,1.6c-6.8,1-13.7,1.6-20.6,1.9
							c-15.9,0.9-33.2,0.1-49.8-1.4c-18.9-1.7-36.2-3.4-53.7-8c-3-0.8-6-1.7-8.9-2.6c-0.9-0.3-1.8-0.6-2.7-0.9
							c-1.8-0.6,1.4,0.5-0.4-0.1c-1.9-0.7-3.9-1.5-5.8-2.2c-6-2.4-11.8-5.3-17.5-8.3c-0.4-0.2-2.4-1.3-0.9-0.5
							c-0.6-0.4-1.2-0.7-1.9-1.1c-1.2-0.7-2.5-1.5-3.7-2.3c-2.9-1.8-5.7-3.7-8.5-5.7c-2.4-1.7-4.9-3.6-7.2-5.4c-1.2-1-2.5-2-3.7-3
							c-1.1-0.9-2.8-2.3-2.9-2.4c-9.3-8.2-17.8-17.4-25.5-27.1c-13.9-17.5-25.6-37.8-35.2-58.8c-8-17.5-14-34.1-18.9-51.2
							c-2.7-9.5-4.9-19-6.9-28.7c-0.1-0.5-0.2-0.9-0.2-1.4C-1330.1,6889.1-1352.3,6886.3-1350.5,6897L-1350.5,6897z"/>
					</g>
				</g>
				<g>
					<path class="st9" d="M-1185.6,7071.8c0,0-49.4,168.5,2.2,177.5c51.7,9,80.9-173,80.9-173"/>
					<g>
						<path class="st10" d="M-1196.4,7068.6c-6.1,20.7-10.8,41.9-14.7,63.2c-3.2,17.4-5.7,35-6.4,52.7c-0.6,14.7-0.5,30.6,4.7,44.6
							c5.5,14.8,19,22.6,34.3,24.7c12.9,1.8,23.1-3.2,31.6-12.7c10-11.1,16.7-25,22.4-38.7c6.8-16.4,12.2-33.4,16.9-50.5
							c4.1-15.1,7.7-30.3,10.9-45.6c1.7-8.3,3.9-16.9,4.8-25.3c0-0.4,0.1-0.8,0.2-1.2c0.8-5.3-20.9-10.5-21.5-6.6
							c-3,18.7-7.1,37.4-11.6,55.8c-7.7,31.2-16.6,63.9-33.3,91.6c-5.7,9.5-13.3,20.2-24.2,23.9c-0.4,0.1-1.4,0.4-2.6,0.6
							c-0.5,0.1-1,0.2-1.6,0.2c-0.8,0.1,0.5,0,0.5,0c-0.3,0-0.8-0.1-1.1,0c-1.1,0.5,1.4,0.2,0.2,0c-1.6-0.3,0.9,0.2,1,0.2
							c-0.4-0.1-1.5-0.4,0.3,0.1c0.6,0.2,1.3,0.4,1.8,0.6c-0.2-0.1,2.2,0.7,0.2,0.1c1.5,0.5,0.8,0.7-0.1-0.1
							c-0.3-0.3,0.8,0.8-0.2-0.2c-1-0.9-1.9-1.8-2.7-2.8c-0.9-1.2-2.6-4-3.6-6c-5.8-12.4-6.2-27-6-40.4c0.3-16.8,2.4-33.6,5.2-50.2
							c2.5-15.2,5.7-30.3,9.3-45.3c2-8.2,4.8-16.4,6.4-24.7c0.1-0.4,0.2-0.8,0.3-1.2C-1173.6,7070.6-1195.1,7064.1-1196.4,7068.6
							L-1196.4,7068.6z"/>
					</g>
				</g>
				<g>
					<path class="st9" d="M-983.5,7044.9c0,0,92.1,123.5,125.8,110.1c33.7-13.5-65.1-164-65.1-164"/>
					<g>
						<path class="st10" d="M-994.3,7045.9c12.6,16.9,26.1,33.2,40,49c11.3,12.7,22.9,25.1,35.5,36.6c10.6,9.7,22.3,19.4,35.6,25.3
							c11.1,4.9,28.3,8.5,38.4-0.6c7.1-6.4,5.9-17.3,4.1-25.7c-6.2-29.3-21.9-56.9-36.3-82.8c-10.7-19.2-21.8-38.5-34.2-56.7
							c-0.2-0.3-0.4-0.6-0.6-0.9c-2.7-4.1-9.1-4.9-13.7-4.4c-2.3,0.2-10.8,2.3-8.1,6.5c9.4,14.3,18.3,29,26.9,43.9
							c14.9,25.7,29.9,52.3,39.6,80.5c3.3,9.4,6.3,18.9,4.9,29c-0.1,0.9-0.6,2.1-0.2,1.3c-0.3,0.7-0.5,1.4-0.9,2
							c-0.4,0.7-0.8,1.3-1.3,1.8c1.8-2.2,0.1-0.2,0.1-0.2c-0.2,0.2-0.4,0.3-0.6,0.5c-0.7,0.4-0.4,0.3,0.8-0.4
							c-0.4,0.8-3.4,0.6-0.1,0.2c-2.5,0.3,2.7-0.2-0.6,0.1c3.7-0.3,1.9,0,1-0.1c-2.1-0.1,2.9,0.7,0.9,0.1c-0.5-0.1-1.1-0.3-1.6-0.3
							c-1.6-0.2,2.4,0.9-0.2-0.1c-1-0.4-2-0.7-3-1.1c-2.1-0.8,1.9,0.9-0.2-0.1c-0.6-0.3-1.3-0.6-1.9-0.9c-2.8-1.4-5.5-3-8.2-4.7
							c-4.6-3-10.4-7.6-15.4-11.9c-12.3-10.6-23.6-22.2-34.5-34.2c-16-17.6-30.7-35.2-44.3-53.4c-3-4-8.9-4.9-13.7-4.4
							C-988.3,7039.6-997.3,7041.9-994.3,7045.9L-994.3,7045.9z"/>
					</g>
				</g>
			</g>
			<polyline class="st9" points="-1316,6854 -1074,6724 -869,6701 -859.4,6899.9 -957,6952 -1299.2,6945.5 			"/>
		</g>
	</g>
	<g class="st0">
		<line class="st11" x1="-2510" y1="5195" x2="-2422" y2="5195"/>
		<line class="st11" x1="-2510" y1="5222" x2="-2422" y2="5222"/>
		<line class="st11" x1="-2510" y1="5249" x2="-2422" y2="5249"/>
	</g>
	<rect class="st12" width="750" height="1334"/>
	<g>
		<defs>
			<rect id="SVGID_7_" width="750" height="1334"/>
		</defs>
		<clipPath id="SVGID_8_">
			<use xlink:href="#SVGID_7_"  style="overflow:visible;"/>
		</clipPath>
		<g class="st13">
			<g>
				<g>
					<path class="st4" d="M1094.4,626.5C816.6,600.2,599.2,366.3,599.2,81.5C297.1,81.5,52,326.7,52,628.9
						c0,302.1,245.1,547.2,547.2,547.2c0-284.8,217.4-518.5,495.1-544.8V626.5z"/>
					<path class="st4" d="M599.2,1176.1c0,302.2,245.1,547.3,547.1,547.3c302.3,0,547.5-245.1,547.5-547.3H599.2z"/>
					<path class="st4" d="M599.2,81.5c0-302.2,245.1-547.3,547.1-547.3c302.3,0,547.5,245.1,547.5,547.3H599.2z"/>
					<path class="st4" d="M1198.6,631.3c277.8,26.3,495.2,260,495.2,544.8c302.1,0,547.1-245.1,547.1-547.2
						c0-302.2-245-547.4-547.1-547.4c0,284.8-217.4,518.7-495.2,544.9V631.3z"/>
				</g>
				<g>
					<defs>
						<path id="SVGID_9_" d="M756.8,465.8C659.4,367,599.2,231.3,599.2,81.5C297.1,81.5,52,326.7,52,628.9
							c0,302.1,245.1,547.2,547.2,547.2c0-150.9,61.1-287.5,159.8-386.5C760,790,760,465,756.8,465.8z"/>
					</defs>
					<clipPath id="SVGID_10_">
						<use xlink:href="#SVGID_9_"  style="overflow:visible;"/>
					</clipPath>
					<g class="st14">
						<g>
							<g>
								<path class="st9" d="M421.8,456.1c0,0,34.9,146.6,82.1,139.8c47.2-6.7-6.7-173-6.7-173"/>
								<g>
									<path class="st10" d="M411.2,454c4.6,19.4,10.6,38.5,17.5,57.2c5.6,15.2,11.8,30.3,19.6,44.5c6.7,12.2,14.7,24.8,26,33.2
										c11.3,8.4,29,15.1,43,10.1c9.1-3.2,13.3-12.6,15.2-21.5c2.8-13.4,1.9-27.6,0.5-41.2c-1.6-15.8-4.5-31.4-7.9-46.9
										c-4.7-21.7-10.3-43.2-17.2-64.3c-1.2-3.6-9.6-5.2-12.7-5.8c-1.5-0.3-9.7-1.8-8.6,1.6c5.2,16.1,9.6,32.4,13.6,48.8
										c6.8,28.2,13.3,57.8,12.3,86.9c-0.4,9.7-1.4,21.6-7.8,29.5c-2.5,3.1-6,5-9.1,5.6c-0.6,0.1-1.2,0.1-1.8,0.2
										c1.3-0.2,0.4-0.1,0-0.1c-2,0.2,1.8,0.5-0.1,0c-2.2-0.5,2.5,0.4,0.3,0c4.3,0.8-1.2-0.8,2.8,0.8c-0.7-0.3-2.4-1.2,0.2,0.1
										c-0.4-0.2-2.4-1.2-0.2-0.1c-0.6-0.3-1.2-0.6-1.7-1c-3.4-2.2-8.3-6.7-11.8-11c-4.3-5.3-8-11-11.4-16.9
										c-7.8-13.4-14-27.7-19.5-42.1c-7.9-20.7-14.7-42-19.9-63.6C431.3,453.1,410.2,449.9,411.2,454L411.2,454z"/>
								</g>
							</g>
							<g>
								<path class="st9" d="M218.2,379.2c0,0-60.2,93.2-53.5,113.4c6.7,20.2,49.3,2.9,110-68.2"/>
								<g>
									<path class="st10" d="M212.3,369.6c-17.8,27.6-35.5,56.5-47.9,87c-2.8,6.8-5.7,14.2-6.2,21.6c-0.6,9.3,6.4,19.1,12,25.8
										c9.4,11.2,24.7,4.3,35.2-1.7c29.4-16.5,53.6-43,75.2-68.3c1.4-1.7-3.7-8.9-4.6-10.3c-0.4-0.7-6.5-9.6-7.2-8.7
										c-19.2,22.5-40,44.7-64.5,61.6c-7.1,4.9-14.6,9.4-22.7,12.3c-4.8,1.7-10.7,3.3-15.6,1.5c-0.9-0.3-1.7-0.9-2.5-1.3
										c-0.5-0.2-0.5-0.2-0.5-0.4c0,0,2.4,3.1,1.8,2.3c2.1,2.9,6.3,6.7,5.9,10c0.1-0.8-0.3-0.7-0.4-2.2c0-1.3,0-2.6,0.2-3.9
										c0.9-7.2,3.7-14.2,6.5-20.8c7.6-18.3,17.4-35.6,27.3-52.7c6.4-11,13-21.9,19.9-32.6c1.3-2-3.6-8.7-4.6-10.3
										C219.1,377.7,212.8,368.9,212.3,369.6L212.3,369.6z"/>
								</g>
							</g>
							<g>
								<path class="st9" d="M153.5,238.7c0,0,31.4,190.9,177.5,213.4s170.7-18,222.4-44.9c51.7-27,103.3-119.1,107.8-175.2"/>
								<g>
									<path class="st10" d="M142.6,236.2c4.1,24.5,12.2,48.9,21.7,71.8c18.6,45.2,46.8,88.4,87.9,116.1
										c26,17.6,56,27.3,86.9,31.8c36.2,5.3,73.5,8.7,110,4.2c22.1-2.8,43.5-9.1,63.2-19.4c16.2-8.5,31.1-19.2,47.2-28.1
										c12.4-6.8,23.5-14.5,33.8-24.3c12.2-11.8,22.9-25.1,32.5-39.2c19.4-28.4,35.4-60.6,43.2-94.3c1.5-6.7,2.7-13.5,3.3-20.3
										c0.4-4.3-21.7-7.7-21.9-5.1c-2.7,31.3-15.7,61.8-30.7,89c-15.9,28.8-36.2,57.5-62.9,77.1c-8.8,6.4-18.6,11.1-28,16.7
										c-7.4,4.5-14.6,9.1-22,13.6c-16.6,10.1-33.9,18.4-52.8,23.2c-27.8,7.1-57.2,7.2-85.7,4.8c-10.1-0.8-20.1-2-30.1-3.3
										c-8.9-1.2-15.3-2.2-23-4.2c1.6,0.4-0.3-0.1-0.5-0.1c-0.9-0.3-1.9-0.5-2.8-0.8c-0.7-0.2-1.5-0.4-2.2-0.7
										c-0.3-0.1-2.5-0.8-1.3-0.4c-3.2-1.1-6.4-2.3-9.6-3.6c-5.3-2.2-10.9-5-16.1-7.9c-42.4-24.2-72-65.8-91.9-109.5
										c-11.8-25.9-20.1-53-26-80.8c-0.1-0.5-0.2-0.9-0.2-1.4c-0.5-3-8-4.3-10.4-4.9C153.2,236.2,142.2,234.3,142.6,236.2
										L142.6,236.2z"/>
								</g>
							</g>
							<g>
								<path class="st9" d="M307.4,412.8c0,0-49.4,168.5,2.2,177.5c51.7,9,80.9-173,80.9-173"/>
								<g>
									<path class="st10" d="M297.8,407c-6.1,20.8-10.9,42.1-14.8,63.4c-3.2,17.6-5.8,35.3-6.6,53.2c-0.7,15.1-0.4,30.9,4.9,45.2
										c5.2,14.3,18.5,25.6,33.5,28.3c12.3,2.2,22.5-3.9,30.4-12.8c10-11.2,16.7-25.4,22.4-39.2c6.7-16.3,12-33.1,16.6-50.1
										c4.2-15.3,7.8-30.7,11-46.3c1.7-8.2,4.2-16.9,4.8-25.3c0-0.4,0.1-0.8,0.2-1.2c0.9-5.8-18.6-16-19.6-9.4
										c-3,18.5-7,36.9-11.5,55c-7.7,31.1-16.7,63.8-33.4,91.5c-5.7,9.4-13.1,19.9-23.9,23.6c-2.7,0.9-2.9,0.8-5.8,1
										c-0.3,0-2-0.1-0.9,0c1.1,0.1-0.9-0.2-1.2-0.2c-1.4-0.2-0.9-0.6,0,0.1c-1.7-1.1,0.3,0.2,0.2,0.1c-2.1-1.1,2,1.2,0.4,0.3
										c-1.6-1,2.2,1.6,0.7,0.5c-1.1-0.9,1.7,0.6,0.4,0.4c-0.3,0-1.8-1.9-0.8-0.7c1,1.2-0.4-0.6-0.7-0.9c-0.3-0.5-0.7-0.9-1-1.4
										c0.9,1.3-1-1.9-1.3-2.6c-5.6-11.7-6-26.2-5.8-39.3c0.2-17,2.3-33.9,5.1-50.6c3.9-23.4,9.5-46.5,15.6-69.4
										c0.1-0.4,0.2-0.8,0.3-1.2C318.9,412,299.1,402.5,297.8,407L297.8,407z"/>
								</g>
							</g>
							<g>
								<path class="st9" d="M509.5,385.9c0,0,92.1,123.5,125.8,110.1c33.7-13.5-65.1-164-65.1-164"/>
								<g>
									<path class="st10" d="M501.3,387.9c12.8,17.2,26.6,33.7,40.8,49.7c11.3,12.7,22.9,25.1,35.5,36.6
										c11.4,10.4,23.9,20.8,38.2,27.1c9.7,4.3,24.2,7.7,32.3-1.4c6.3-7.1,4.7-18.8,2.8-27.3c-6.6-29.6-22.3-57.5-36.9-83.7
										c-11-19.6-22.2-39.6-35-58.1c-0.2-0.3-0.4-0.6-0.6-0.9c-2.8-4.2-9.1-7.8-14.2-6.4c-5.3,1.4-4.6,6.9-2.2,10.5
										c9.4,14.3,18.3,29,26.9,43.9c0.9,1.6,1.8,3.2,2.7,4.8c0.5,0.8,0.9,1.6,1.4,2.4c0.1,0.1,1.6,2.8,0.6,1.1
										c1.9,3.3,3.8,6.7,5.6,10.1c3.8,6.9,7.4,13.8,10.9,20.8c6.5,13,12.7,26.2,17.4,39.9c0.5,1.5,1,3,1.5,4.5
										c0.8,2.4,0-0.3,0.6,2.1c0.7,2.8,1.4,5.7,1.9,8.6c0.4,2.1,0.5,4.3,0.7,6.4c0.2,2,0.3-1,0,1.5c-0.1,1.1-0.2,2.1-0.5,3.2
										c-0.1,0.4-0.9,2.8-0.4,1.5c0.5-1.3-0.5,0.8-0.7,1.2c-0.5,0.8-2.2,2-0.3,0.6c-0.7,0.5-1.5,1-2.2,1.5
										c2.1-1.4,0.2-0.2-0.6,0.1c-0.4,0.2-1,0.2-1.4,0.3c2.4-0.5,1.1,0,0.3-0.1c-0.9-0.1-4.3-0.5-1.1,0.1
										c-1.3-0.2-2.6-0.6-3.9-0.9c-2.8-0.7,1.8,0.9-0.9-0.3c-1.2-0.6-2.5-1-3.7-1.6c-0.6-0.3-1.3-0.7-1.9-1c-2.3-1.1,2.3,1.4,0,0
										c-1.4-0.9-2.9-1.7-4.3-2.6c-2.7-1.8-5.3-3.6-7.9-5.6c-0.7-0.5-4.8-3.8-2.6-2c-1.4-1.2-2.9-2.4-4.3-3.6
										c-12.3-10.6-23.6-22.2-34.5-34.2c-3.2-3.5-6.3-7-9.4-10.5c-0.6-0.7-1.3-1.5-1.9-2.2c-2.1-2.4,1.4,1.6-0.7-0.8
										c-1.4-1.7-2.8-3.3-4.3-5c-4.8-5.7-9.5-11.5-14.2-17.3c-4.4-5.5-8.8-11.1-13.1-16.8c-3-4.1-8.9-7.8-14.2-6.4
										C498.5,378.8,498.7,384.4,501.3,387.9L501.3,387.9z"/>
								</g>
							</g>
						</g>
						<polyline class="st9" points="177,195 419,65 624,42 633.6,240.9 536,293 193.8,286.5 						"/>
					</g>
				</g>
				<g>
					<path class="st5" d="M1693.1,1177.7c0,303.1-244.8,548.9-546.8,548.9c-302,0-546.8-245.8-546.8-548.9
						c0-303.2,244.8-548.9,546.8-548.9C1448.3,628.8,1693.1,874.6,1693.1,1177.7z M599.7,1177.7c-302,0-546.8-245.8-546.8-548.9
						C53,325.6,297.8,79.9,599.7,79.9h1093.5c302,0,546.8,245.8,546.8,548.9c0,303.1-244.8,548.9-546.8,548.9H599.7z M1693.3,79.9
						c0,303.1-244.8,548.9-546.8,548.9S599.7,383.1,599.7,79.9S844.5-469,1146.5-469S1693.3-223.2,1693.3,79.9z"/>
				</g>
			</g>
			<g>
				<path class="st15" d="M229.5,740c-16.6,0-29.9-11.3-29.9-28.5v-53.4h15.8v52.8c0,9.3,5.5,14.9,14,14.9s14.1-5.6,14.1-14.9v-52.8
					h15.7v53.4C259.3,728.7,246.1,740,229.5,740z"/>
				<path class="st10" d="M310.4,739.3v-35.9c0-8.1-5.1-10.8-9.8-10.8s-9.9,2.7-9.9,10.8v35.9h-14.8v-59.4h14.5v5.5
					c3.9-4.1,9.3-6.2,14.8-6.2c5.9,0,10.7,1.9,14,5.2c4.8,4.8,6,10.4,6,16.9v38H310.4z"/>
				<path class="st10" d="M396.1,727.4c-5.8,8.1-13.5,11.9-24.5,11.9h-29.3v-81.2h29.3c11.1,0,18.7,3.8,24.5,11.9
					c5,7,5.1,15.3,5.1,28.7S401.1,720.5,396.1,727.4z M382.1,677.3c-2.6-3.3-6.5-5-11.9-5h-12.1v52.9h12.1c5.4,0,9.2-1.7,11.9-5
					c3-3.5,3.3-8.7,3.3-21.4C385.4,685.9,385.1,680.8,382.1,677.3z"/>
				<path class="st15" d="M471.2,727.4c-5.8,8.1-13.5,11.9-24.5,11.9h-29.3v-81.2h29.3c11.1,0,18.7,3.8,24.5,11.9
					c5,7,5.1,15.3,5.1,28.7S476.3,720.5,471.2,727.4z M457.2,677.3c-2.6-3.3-6.5-5-11.9-5h-12.1v52.9h12.1c5.4,0,9.2-1.7,11.9-5
					c3-3.5,3.3-8.7,3.3-21.4C460.5,685.9,460.2,680.8,457.2,677.3z"/>
				<path class="st15" d="M492.6,739.3v-81.2H546v14.1h-37.6v19h32v14.1h-32v19.7H546v14.1H492.6z"/>
				<path class="st15" d="M604.6,739.3l-15.8-32.4h-11.4v32.4h-15.8v-81.2h31.8c16.5,0,26.3,11.3,26.3,24.9c0,11.4-7,18.5-14.8,21.3
					l18.1,35H604.6z M592.3,672.3h-14.9v21.4h14.9c7,0,11.5-4.4,11.5-10.7C603.8,676.7,599.3,672.3,592.3,672.3z"/>
				<path class="st10" d="M252.1,830.7c-6.1,0-11.1-2.2-14.8-5.8c-5.6-5.6-5.9-10.7-5.9-24.2s0.3-18.7,5.9-24.2
					c3.7-3.7,8.6-5.8,14.8-5.8c10.7,0,18.4,6.6,20.5,17.6h-6.5c-1.6-7.3-6.6-12-14-12c-4,0-7.5,1.4-10.2,4.1
					c-3.7,3.8-4.1,8.1-4.1,20.2c0,12.1,0.4,16.4,4.1,20.3c2.7,2.7,6.2,4.1,10.2,4.1c7.4,0,12.6-4.6,14.2-12h6.3
					C270.5,824.1,262.7,830.7,252.1,830.7z"/>
				<path class="st10" d="M318.8,824.9c-3.7,3.7-8.5,5.8-14.7,5.8s-11.1-2.2-14.8-5.8c-5.6-5.6-5.9-10.7-5.9-24.2s0.3-18.7,5.9-24.2
					c3.7-3.7,8.6-5.8,14.8-5.8s11,2.2,14.7,5.8c5.6,5.6,6,10.7,6,24.2S324.4,819.3,318.8,824.9z M314.3,780.4
					c-2.7-2.7-6.2-4.1-10.2-4.1s-7.5,1.4-10.2,4.1c-3.7,3.8-4.1,8.1-4.1,20.2c0,12.1,0.4,16.4,4.1,20.3c2.7,2.7,6.2,4.1,10.2,4.1
					s7.5-1.4,10.2-4.1c3.7-3.8,4.1-8.1,4.1-20.3C318.5,788.5,318.1,784.2,314.3,780.4z"/>
				<path class="st10" d="M377.3,830.2L346,782.8v47.4h-6.3v-59.1h6l31.4,47.2v-47.2h6.3v59.1H377.3z"/>
				<path class="st10" d="M417.8,776.7v53.4h-6.3v-53.4h-17.1v-5.6h40.5v5.6H417.8z"/>
				<path class="st10" d="M479.8,830.2l-13.4-26.2h-14.2v26.2h-6.3v-59.1h22.7c10.3,0,17.5,6.2,17.5,16.4c0,8.6-5.2,14.3-12.9,15.9
					l14,26.8H479.8z M468,776.7h-15.8v21.7H468c6.9,0,11.8-3.6,11.8-10.8S474.9,776.7,468,776.7z"/>
				<path class="st10" d="M533,824.9c-3.7,3.7-8.5,5.8-14.7,5.8s-11.1-2.2-14.8-5.8c-5.6-5.6-5.9-10.7-5.9-24.2s0.3-18.7,5.9-24.2
					c3.7-3.7,8.6-5.8,14.8-5.8s11,2.2,14.7,5.8c5.6,5.6,6,10.7,6,24.2S538.6,819.3,533,824.9z M528.6,780.4
					c-2.7-2.7-6.2-4.1-10.2-4.1s-7.5,1.4-10.2,4.1c-3.7,3.8-4.1,8.1-4.1,20.2c0,12.1,0.4,16.4,4.1,20.3c2.7,2.7,6.2,4.1,10.2,4.1
					s7.5-1.4,10.2-4.1c3.7-3.8,4.1-8.1,4.1-20.3C532.7,788.5,532.3,784.2,528.6,780.4z"/>
				<path class="st10" d="M553.9,830.2v-59.1h6.3v53.4h30.2v5.6H553.9z"/>
			</g>
			<g>
				<path class="st10" d="M230.4,899v-23.3l-8.4,18.4h-2.8l-8.5-18.4V899h-3.3v-30.6h3.3l10,21.7l9.7-21.7h3.3V899H230.4z"/>
				<path class="st10" d="M260.4,899l-2.5-6.9h-13.4l-2.5,6.9h-3.5l11.3-30.6h2.8l11.2,30.6H260.4z M251.3,873.1l-5.8,16.2H257
					L251.3,873.1z"/>
				<path class="st10" d="M288.3,899l-16.3-24.6V899h-3.3v-30.6h3.1l16.3,24.5v-24.5h3.3V899H288.3z"/>
				<path class="st10" d="M318.1,899l-2.5-6.9h-13.4l-2.5,6.9h-3.5l11.3-30.6h2.8l11.2,30.6H318.1z M309,873.1l-5.8,16.2h11.4
					L309,873.1z"/>
				<path class="st10" d="M343.8,895.8c-2.1,2.4-5,3.5-8.2,3.5c-3.2,0-5.8-1.1-7.7-3c-2.9-2.9-3.1-5.5-3.1-12.6s0.2-9.7,3.1-12.6
					c1.9-1.9,4.5-3,7.7-3c5.8,0,9.8,3.9,10.7,9.2h-3.3c-0.9-3.9-3.6-6.2-7.4-6.2c-2.1,0-3.9,0.7-5.3,2.1c-1.9,2-2.2,4.2-2.2,10.5
					s0.2,8.5,2.2,10.5c1.4,1.4,3.2,2.1,5.3,2.1c2.2,0,4.4-0.9,5.8-2.6c1.2-1.5,1.7-3.2,1.7-5.5v-2.4h-7.5V883h10.8v4.9
					C346.5,891.4,345.8,893.6,343.8,895.8z"/>
				<path class="st10" d="M354.1,899v-30.6h3.3V899H354.1z"/>
				<path class="st10" d="M385.7,899l-16.3-24.6V899h-3.3v-30.6h3.1l16.3,24.5v-24.5h3.3V899H385.7z"/>
				<path class="st10" d="M415.4,895.8c-2.1,2.4-5,3.5-8.2,3.5c-3.2,0-5.8-1.1-7.7-3c-2.9-2.9-3.1-5.5-3.1-12.6s0.2-9.7,3.1-12.6
					c1.9-1.9,4.5-3,7.7-3c5.8,0,9.8,3.9,10.7,9.2h-3.3c-0.9-3.9-3.6-6.2-7.4-6.2c-2.1,0-3.9,0.7-5.3,2.1c-1.9,2-2.1,4.2-2.1,10.5
					s0.2,8.5,2.1,10.5c1.4,1.4,3.2,2.1,5.3,2.1c2.2,0,4.4-0.9,5.8-2.6c1.2-1.5,1.7-3.2,1.7-5.5v-2.4h-7.5V883H418v4.9
					C418,891.4,417.4,893.6,415.4,895.8z"/>
				<path class="st10" d="M459.3,899v-23.3l-8.4,18.4h-2.8l-8.5-18.4V899h-3.3v-30.6h3.3l10,21.7l9.7-21.7h3.3V899H459.3z"/>
				<path class="st10" d="M489.3,899l-2.5-6.9h-13.4L471,899h-3.5l11.3-30.6h2.8l11.2,30.6H489.3z M480.2,873.1l-5.8,16.2h11.4
					L480.2,873.1z"/>
				<path class="st10" d="M505.6,899.3c-4.6,0-7.6-1.2-10.4-4l2.2-2.2c2.5,2.5,4.9,3.3,8.3,3.3c4.5,0,7.3-2.1,7.3-5.7
					c0-1.6-0.5-2.9-1.5-3.8c-0.9-0.9-1.8-1.2-4-1.5l-3.6-0.5c-2.4-0.4-4.2-1.1-5.6-2.3c-1.5-1.4-2.4-3.3-2.4-5.8
					c0-5.2,3.7-8.6,9.8-8.6c3.9,0,6.5,1,9.1,3.4l-2.1,2.1c-1.8-1.8-4-2.7-7.1-2.7c-4.1,0-6.5,2.3-6.5,5.7c0,1.5,0.4,2.8,1.4,3.6
					c0.9,0.8,2.4,1.3,4,1.6l3.6,0.6c2.8,0.4,4.2,0.9,5.5,2.2c1.6,1.4,2.6,3.5,2.6,6C516.1,896,512,899.3,505.6,899.3z"/>
				<path class="st10" d="M531.7,871.3V899h-3.3v-27.7h-8.9v-2.9h21v2.9H531.7z"/>
				<path class="st10" d="M546.3,899v-30.6h3.3V899H546.3z"/>
				<path class="st10" d="M567.4,871.3V899h-3.3v-27.7h-8.9v-2.9h21v2.9H567.4z"/>
				<path class="st10" d="M582,899v-30.6h3.3V899H582z"/>
				<path class="st10" d="M602,899.3c-4.6,0-7.6-1.2-10.4-4l2.2-2.2c2.5,2.5,4.9,3.3,8.3,3.3c4.5,0,7.3-2.1,7.3-5.7
					c0-1.6-0.5-2.9-1.5-3.8c-0.9-0.9-1.8-1.2-4-1.5l-3.6-0.5c-2.4-0.4-4.2-1.1-5.6-2.3c-1.5-1.4-2.4-3.3-2.4-5.8
					c0-5.2,3.7-8.6,9.8-8.6c3.9,0,6.5,1,9.1,3.4l-2.1,2.1c-1.8-1.8-4-2.7-7.1-2.7c-4.1,0-6.5,2.3-6.5,5.7c0,1.5,0.4,2.8,1.4,3.6
					c0.9,0.8,2.4,1.3,4,1.6l3.6,0.6c2.8,0.4,4.2,0.9,5.5,2.2c1.6,1.4,2.6,3.5,2.6,6C612.6,896,608.4,899.3,602,899.3z"/>
				<path class="st10" d="M260.8,939.8c-2.1,2.2-4.6,3.2-8,3.2h-10.5v-30.6h10.5c3.4,0,6,1,8,3.2c2.7,2.9,2.7,7.4,2.7,12.1
					S263.6,936.9,260.8,939.8z M258.3,917.6c-1.5-1.7-3.7-2.2-6-2.2h-6.7v24.8h6.7c2.3,0,4.5-0.5,6-2.2c2-2.1,2-5.9,2-10.1
					S260.2,919.7,258.3,917.6z"/>
				<path class="st10" d="M281.5,943.3c-6.2,0-10.7-4.3-10.7-10.4v-20.5h3.3v20.3c0,4.6,2.9,7.7,7.4,7.7s7.4-3.1,7.4-7.7v-20.3h3.3
					v20.5C292.2,939,287.7,943.3,281.5,943.3z"/>
				<path class="st10" d="M318.2,943l-7-13.6h-7.4V943h-3.3v-30.6h11.7c5.3,0,9.1,3.2,9.1,8.5c0,4.5-2.7,7.4-6.7,8.2L322,943H318.2z
					 M312.1,915.3h-8.2v11.2h8.2c3.6,0,6.1-1.8,6.1-5.6S315.6,915.3,312.1,915.3z"/>
				<path class="st10" d="M328.8,943v-30.6h3.3V943H328.8z"/>
				<path class="st10" d="M360.5,943l-16.3-24.6V943H341v-30.6h3.1l16.3,24.5v-24.5h3.3V943H360.5z"/>
				<path class="st10" d="M390.1,939.8c-2.2,2.4-5,3.5-8.2,3.5c-3.2,0-5.8-1.1-7.7-3c-2.9-2.9-3.1-5.5-3.1-12.6s0.2-9.7,3.1-12.6
					c1.9-1.9,4.5-3,7.7-3c5.8,0,9.8,3.9,10.7,9.2h-3.3c-0.9-3.9-3.6-6.2-7.4-6.2c-2.1,0-3.9,0.7-5.3,2.1c-1.9,2-2.1,4.2-2.1,10.5
					s0.2,8.5,2.1,10.5c1.4,1.4,3.2,2.1,5.3,2.1c2.2,0,4.4-0.9,5.8-2.6c1.2-1.5,1.7-3.2,1.7-5.5v-2.4H382V927h10.8v4.9
					C392.8,935.4,392.1,937.6,390.1,939.8z"/>
				<path class="st10" d="M429.6,939.8c-2.1,2.2-4.6,3.2-8,3.2h-10.5v-30.6h10.5c3.4,0,6,1,8,3.2c2.7,2.9,2.7,7.4,2.7,12.1
					S432.3,936.9,429.6,939.8z M427,917.6c-1.5-1.7-3.7-2.2-6-2.2h-6.7v24.8h6.7c2.3,0,4.5-0.5,6-2.2c2-2.1,2-5.9,2-10.1
					S429,919.7,427,917.6z"/>
				<path class="st10" d="M457.6,943l-7-13.6h-7.4V943H440v-30.6h11.7c5.3,0,9.1,3.2,9.1,8.5c0,4.5-2.7,7.4-6.7,8.2l7.3,13.9H457.6z
					 M451.5,915.3h-8.2v11.2h8.2c3.6,0,6.1-1.8,6.1-5.6S455,915.3,451.5,915.3z"/>
				<path class="st10" d="M476.3,930.4V943H473v-12.6l-9.1-18h3.5l7.2,14.7l7.1-14.7h3.5L476.3,930.4z"/>
				<path class="st10" d="M487.2,929.2v-2.9H499v2.9H487.2z"/>
				<path class="st10" d="M523.9,940.3c-1.9,1.9-4.4,3-7.6,3s-5.8-1.1-7.7-3c-2.9-2.9-3.1-5.5-3.1-12.6s0.2-9.7,3.1-12.6
					c1.9-1.9,4.5-3,7.7-3s5.7,1.1,7.6,3c2.9,2.9,3.1,5.5,3.1,12.6S526.8,937.4,523.9,940.3z M521.6,917.2c-1.4-1.4-3.2-2.1-5.3-2.1
					s-3.9,0.7-5.3,2.1c-1.9,2-2.1,4.2-2.1,10.5s0.2,8.5,2.1,10.5c1.4,1.4,3.2,2.1,5.3,2.1s3.9-0.7,5.3-2.1c1.9-2,2.2-4.2,2.2-10.5
					S523.5,919.2,521.6,917.2z"/>
				<path class="st10" d="M537.9,915.3v11.3h13.4v2.9h-13.4V943h-3.3v-30.6h19v2.9H537.9z"/>
				<path class="st10" d="M562.9,915.3v11.3h13.4v2.9h-13.4V943h-3.3v-30.6h19v2.9H562.9z"/>
			</g>
		</g>
	</g>
	<g>
		<g>
			
				<linearGradient id="SVGID_11_" gradientUnits="userSpaceOnUse" x1="2757.9092" y1="993.5745" x2="2757.3967" y2="1310.3052" gradientTransform="matrix(-1 0 0 1 2795.8694 0)">
				<stop  offset="0" style="stop-color:#FFFFFF"/>
				<stop  offset="9.202450e-02" style="stop-color:#FFFFFF"/>
				<stop  offset="0.7607" style="stop-color:#259391"/>
			</linearGradient>
			<path class="st16" d="M0,993.6c46.8,37,76.8,94.4,76.7,158.7c-0.1,64.1-30.1,121.1-76.7,158L0,993.6z"/>
			
				<linearGradient id="SVGID_12_" gradientUnits="userSpaceOnUse" x1="8808.4141" y1="9303.001" x2="8964.8584" y2="9303.001" gradientTransform="matrix(4.489700e-11 -1 -1 -4.489700e-11 9341.3408 10118.7998)">
				<stop  offset="0" style="stop-color:#FFFFFF"/>
				<stop  offset="0.2469" style="stop-color:#EFF0F2"/>
				<stop  offset="0.7295" style="stop-color:#C5C8CE"/>
				<stop  offset="0.7975" style="stop-color:#BEC2C9"/>
			</linearGradient>
			<path class="st17" d="M0,1310.4c0-34.6,0-32.8,0-32.3c0,0,13.1-11.5,19.6-21.8c0.3-0.4,0.9-1.4,0.9-1.5c2-3.4,4-6.9,5.8-10.5
				c6-12,12-28.2,15.8-49.2c13.3-11.4,25-25.3,34.6-41.2C75.9,1225.7,40.1,1278.7,0,1310.4z"/>
		</g>
		<g>
			<path class="st18" d="M116.5,1253.6c0-6.2,5-11.2,11.2-11.2c6.2,0,11.2,5,11.2,11.2H116.5z M116.5,1276.1c0,6.2,5,11.2,11.2,11.2
				c6.2,0,11.2-5,11.2-11.2H116.5z M126.6,1264.8c-5.7-0.5-10.2-5.3-10.2-11.2c-6.2,0-11.2,5-11.2,11.2c0,6.2,5,11.2,11.2,11.2
				C116.5,1270.2,120.9,1265.4,126.6,1264.8L126.6,1264.8z M128.8,1264.9c5.7,0.5,10.2,5.3,10.2,11.2c6.2,0,11.2-5,11.2-11.2
				c0-6.2-5-11.2-11.2-11.2C138.9,1259.4,134.5,1264.2,128.8,1264.9L128.8,1264.9z"/>
			<g>
				<rect x="181.7" y="1285.8" class="st19" width="1.7" height="1.5"/>
				<polygon class="st19" points="173.2,1265.1 168.6,1253.6 161.4,1253.6 161.4,1276 166.2,1276 166.2,1260.1 173.2,1276.3 
					173.2,1276.3 180.1,1260.1 180.1,1276 184.9,1276 184.9,1253.6 177.8,1253.6 				"/>
				<path class="st19" d="M194.8,1288.8c-1.7,0-2.3,1-2.5,1.4c-0.3-0.6-0.8-1.4-2.5-1.4c-0.6,0-1.7,0.1-2.4,1.3v-1.1H186l0,1v6.6
					h1.4v-4.3c0-0.5,0-1.1,0.3-1.5c0.2-0.2,0.7-0.8,1.7-0.8c1.1,0,1.7,0.7,1.7,1.7v5h1.4v-4.2c0-0.3,0-1.2,0.3-1.6
					c0.2-0.3,0.7-0.8,1.6-0.8c0.7,0,1.2,0.3,1.4,0.7c0.1,0.2,0.3,0.5,0.3,1.1v4.9h1.4v-5.1C197.6,1289.3,195.9,1288.8,194.8,1288.8z
					"/>
				<path class="st19" d="M165.1,1285.7l-4.6,10.9h1.6l1.2-2.8h5l1.2,2.8h1.6l-4.4-10.9H165.1z M163.8,1292.6l2.1-5.3l2,5.3H163.8z"
					/>
				<rect x="181.8" y="1289" class="st19" width="1.4" height="7.6"/>
				<path class="st19" d="M176.5,1288.9c-1.7,0-2.3,1.1-2.4,1.4l0-1.2h-1.4l0,0.9v6.7h1.4v-4.4c0-1.5,1-2.3,2-2.3
					c0.5,0,1,0.2,1.3,0.5c0.3,0.3,0.4,0.8,0.4,1.3v4.8h1.4v-5.1C179.2,1289.2,177.2,1288.9,176.5,1288.9z"/>
				<path class="st19" d="M186.7,1269c-0.2,5.6,3.6,7.7,8.1,7.8c5.1,0.1,9.1-2.1,9.1-7c0-5-4.4-5.8-7.9-6.9
					c-1.3-0.4-3.8-0.8-3.8-3.1c0-1.9,1.7-2.8,3.4-2.8c2.2,0,3.3,1.1,3.5,3.3h4.4c0-4.4-3.4-7-7.5-7c-4.1,0-8.5,2.4-8.5,7
					c0,4,4.4,6,6.9,6.7c1.4,0.4,4.9,0.8,4.9,3.2c0,2.4-2.4,3-4.2,3c-2.3,0-3.7-1.6-3.5-4.1H186.7z"/>
				<path class="st19" d="M250,1287l-1.4,0.4v1.6h-1.3v1h1.3v5c0,1.2,0.6,1.6,1.9,1.6c0.5,0,0.9,0,1.2-0.1v-1.1
					c-0.1,0-0.4,0.1-0.7,0.1c-1,0-1-0.6-1-1v-4.5h1.7v-1H250V1287z"/>
				<rect x="244.5" y="1285.7" class="st19" width="1.4" height="10.9"/>
				<path class="st19" d="M242.1,1291.1c0-0.3,0-0.7-0.3-1.2c-0.4-0.8-1.6-1.1-2.7-1.1c-0.8,0-1.9,0.2-2.4,0.8
					c-0.4,0.5-0.5,1-0.5,1.4h1.4c0-0.3,0.1-1.3,1.5-1.3c0.4,0,1,0.1,1.3,0.5c0.3,0.3,0.3,0.7,0.3,1.7c-0.4,0-0.7,0-1,0
					c-0.6,0-1.8,0-2.6,0.5c-1.1,0.6-1.3,1.6-1.3,2.2c0,1.3,0.9,2.2,2.7,2.2c0.6,0,1.7-0.1,2.3-1.4c0,0.4,0,0.7,0.1,1.1h1.3
					c-0.1-0.8-0.1-1.8-0.1-1.9L242.1,1291.1z M240.3,1294.9c-0.3,0.5-0.9,0.8-1.6,0.8c-1.3,0-1.6-0.8-1.6-1.3c0-1.5,2.2-1.5,2.7-1.5
					c0.3,0,0.6,0,0.8,0C240.7,1294,240.7,1294.4,240.3,1294.9z"/>
				<path class="st19" d="M259.7,1290.1c-0.4-0.9-1.6-1.2-2.4-1.2c-1.1,0-2,0.5-2.5,1.2v-4.4h-1.4v10.9h1.4v-4c0-0.5,0-1.2,0.2-1.6
					c0.2-0.4,0.7-1,1.8-1c1.6,0,1.6,1.5,1.6,2.1v4.5h1.4v-4.7C260,1290.8,259.9,1290.4,259.7,1290.1z"/>
				<path class="st19" d="M230.9,1288.8c-0.4,0-1.3,0-2.1,0.6c-1.2,0.8-1.5,2.1-1.5,3.6c0,2.4,1.1,3.9,3.5,3.9c1.5,0,2.3-0.6,2.6-1
					c0.5-0.6,0.6-1.2,0.6-1.6h-1.4c-0.1,1.1-0.9,1.6-1.8,1.6c-1.6,0-2.2-1.2-2.2-2.7h5.4C234.2,1291.9,234.3,1288.8,230.9,1288.8z
					 M228.8,1292.1c0-1.7,1.1-2.2,2.1-2.2c1.7,0,1.9,1.5,1.9,2.2H228.8z"/>
				<path class="st19" d="M225,1264.8c0-7.8-6-11.2-12-11.2h-7.2v22.5h7.2C218.9,1276,225,1272.6,225,1264.8z M212.7,1271.9l-2,0v0
					v-14.2h2c5.5,0,7.4,3.6,7.4,7.1S218.1,1271.9,212.7,1271.9z"/>
				<rect x="208.6" y="1285.7" class="st19" width="1.4" height="10.9"/>
				<polygon class="st19" points="223.7,1290.4 218.5,1290.4 218.5,1285.7 217,1285.7 217,1296.6 218.5,1296.6 218.5,1291.7 
					223.7,1291.7 223.7,1296.6 225.2,1296.6 225.2,1285.7 223.7,1285.7 				"/>
				<path class="st19" d="M206.1,1291.1c0-0.3,0-0.7-0.3-1.2c-0.4-0.8-1.6-1.1-2.7-1.1c-0.8,0-1.9,0.2-2.4,0.8
					c-0.4,0.5-0.5,1-0.5,1.4h1.4c0-0.3,0.1-1.3,1.5-1.3c0.4,0,1,0.1,1.3,0.5c0.3,0.3,0.3,0.7,0.3,1.7c-0.4,0-0.7,0-1,0
					c-0.6,0-1.8,0-2.6,0.5c-1.1,0.6-1.3,1.6-1.3,2.2c0,1.3,0.9,2.2,2.7,2.2c0.6,0,1.7-0.1,2.3-1.4c0,0.4,0,0.7,0.1,1.1h1.3
					c-0.1-0.8-0.1-1.8-0.1-1.9L206.1,1291.1z M204.3,1294.9c-0.3,0.5-0.9,0.8-1.6,0.8c-1.3,0-1.6-0.8-1.6-1.3c0-1.5,2.2-1.5,2.7-1.5
					c0.3,0,0.6,0,0.8,0C204.6,1294,204.6,1294.4,204.3,1294.9z"/>
			</g>
		</g>
	</g>
</g>
<g id="Layer_1">
</g>
</svg>
