<?xml version="1.0" encoding="utf-8"?>
<!-- Generator: Adobe Illustrator 23.0.6, SVG Export Plug-In . SVG Version: 6.00 Build 0)  -->
<svg version="1.1" xmlns="http://www.w3.org/2000/svg" xmlns:xlink="http://www.w3.org/1999/xlink" x="0px" y="0px"
	 viewBox="0 0 224 206" style="enable-background:new 0 0 224 206;" xml:space="preserve">
<style type="text/css">
	.st0{fill:#FFFFFF;}
</style>
<g id="Layer_1">
</g>
<g id="Layer_3">
	<g>
		<path class="st0" d="M224,20c0,11-5,21.7-14.9,32.1l-1.5,1.5l-87,91.5c-18.5,19.4-34.2,34.4-47.2,45c-13,10.6-22.2,15.9-27.5,15.9
			c-5.6,0-12.6-2.7-21-7.9c-8.4-5.3-13.8-10.8-16.2-16.4c-2.1-4.7-4-14.6-5.8-29.8C0.9,136.7,0,120.2,0,102.5
			c0-9.7,4-18.6,12.1-26.8c8.1-8.2,17-12.3,26.8-12.3c9.3,0,14.8,8.5,16.6,25.5c0.2,2,0.3,3.4,0.4,4.4c1.5,13,3.2,22.1,5.2,27.3
			c2,5.2,4.6,7.7,8,7.7c1.4,0,4-1.5,7.9-4.6c3.8-3,8.4-7.2,13.8-12.4l89.4-88.4c7.5-7.5,14.2-13.2,20.1-17
			c5.9-3.8,10.9-5.8,15.1-5.8c3.1,0,5.3,1.2,6.6,3.5c1.3,2.3,2,6.3,2,11.8V20z"/>
	</g>
</g>
</svg>
