<?xml version="1.0" encoding="utf-8"?>
<!-- Generator: Adobe Illustrator 25.0.0, SVG Export Plug-In . SVG Version: 6.00 Build 0)  -->
<svg version="1.1" id="Layer_3" xmlns="http://www.w3.org/2000/svg" xmlns:xlink="http://www.w3.org/1999/xlink" x="0px" y="0px"
	 viewBox="0 0 750 601" style="enable-background:new 0 0 750 601;" xml:space="preserve">
<style type="text/css">
	.st0{clip-path:url(#SVGID_2_);}
	.st1{fill:#2B8E81;}
	.st2{display:none;}
	.st3{display:inline;}
	.st4{display:inline;clip-path:url(#SVGID_4_);}
	.st5{fill:#207167;}
	.st6{fill:#FFFFFF;}
	.st7{fill:none;stroke:#FFFFFF;stroke-width:2.9636;stroke-miterlimit:10;}
	.st8{fill:#DE8C41;}
	.st9{fill:#97CABD;}
	.st10{fill:#199793;}
</style>
<g>
	<defs>
		<rect id="SVGID_1_" width="750" height="1334"/>
	</defs>
	<clipPath id="SVGID_2_">
		<use xlink:href="#SVGID_1_"  style="overflow:visible;"/>
	</clipPath>
	<g class="st0">
		<g>
			<g>
				<path class="st1" d="M347.2-1.3C198.9-15.3,82.9-140.1,82.9-292.1C-78.4-292.1-209.2-161.3-209.2,0
					c0,161.3,130.8,292.1,292.1,292.1c0-152,116-276.8,264.3-290.8V-1.3z"/>
				<path class="st1" d="M82.9,292.1c0,161.3,130.8,292.1,292.1,292.1c161.4,0,292.3-130.8,292.3-292.1H82.9z"/>
				<path class="st1" d="M82.9-292.1c0-161.3,130.8-292.1,292.1-292.1c161.4,0,292.3,130.8,292.3,292.1H82.9z"/>
				<path class="st1" d="M402.8,1.4c148.3,14,264.3,138.8,264.3,290.8c161.3,0,292.1-130.9,292.1-292.1
					c0-161.3-130.8-292.2-292.1-292.2c0,152-116.1,276.9-264.3,290.9V1.4z"/>
			</g>
			<g class="st2">
				<defs>
					<path id="SVGID_3_" d="M167-87c-52-52.8-84.1-125.2-84.1-205.1C-78.4-292.1-209.2-161.3-209.2,0
						c0,161.3,130.8,292.1,292.1,292.1c0-80.6,32.6-153.5,85.3-206.3C168.7,86,168.7-87.4,167-87z"/>
				</defs>
				<clipPath id="SVGID_4_" class="st3">
					<use xlink:href="#SVGID_3_"  style="overflow:visible;"/>
				</clipPath>
				<g class="st4">
					<g>
						<g>
							<path class="st5" d="M-11.8-92.2c0,0,18.6,78.2,43.8,74.6s-3.6-92.3-3.6-92.3"/>
							<g>
								<path class="st6" d="M-17.5-90.2c0.7,3,1.5,6,2.4,8.9c2,7,4.2,13.9,6.6,20.8c2.9,8.1,6.2,16.1,10.2,23.6
									c3.5,6.5,7.6,13.1,13.4,17.8c2.4,1.9,5,3.3,8,3.9c4.4,0.9,9.2-0.3,13.3-2.1c3.3-1.4,6.1-3.5,8-6.5c1.4-2.3,2.2-4.9,2.7-7.5
									c1.3-7.2,0.9-14.7,0.2-21.9c-0.9-8.4-2.4-16.7-4.2-25c-1.6-7.2-3.4-14.4-5.4-21.6c-1.1-3.9-2.2-7.7-3.4-11.5
									c-0.1-0.2-0.1-0.4-0.2-0.5c-0.2-0.6-1.7-0.5-2-0.5c-1.4,0.1-2.9,0.5-4.2,1c-1.3,0.5-2.7,1.1-3.8,1.9c-0.4,0.3-1.5,1-1.3,1.7
									c0.8,2.6,1.6,5.1,2.3,7.7c1.8,6.3,3.5,12.7,5.1,19.1c1.9,8,3.6,16,4.8,24.1c1.1,7.6,2,15.3,1.6,23c-0.2,3-0.4,5.6-1.3,8.7
									c-0.4,1.2-0.8,2.4-1.4,3.6c-0.3,0.5-0.6,1-0.9,1.5c-0.1,0.1-0.2,0.2-0.2,0.3c-0.2,0.4,0.4-0.5,0.1-0.2
									c-0.2,0.2-0.4,0.4-0.5,0.6c-0.2,0.2-0.4,0.4-0.5,0.5c-0.8,0.7,0.7-0.5,0,0c-0.1,0.1-0.2,0.1-0.3,0.2
									c-0.5,0.4,0.9-0.5,0.6-0.4c-0.1,0-0.2,0.1-0.3,0.2c-0.7,0.4,1.4-0.7,0.8-0.4c-0.8,0.4,1.8-0.7,0.7-0.3
									c-0.7,0.2,1.8-0.5,1-0.3c-0.8,0.2,1.1-0.2,0.8-0.2C35-20,34.8-20,34.7-20c-0.8,0.1,1.3-0.1,0.6-0.1c-0.3,0-0.7,0-1,0.1
									c-0.2,0,1,0,0.4,0c-0.2,0-0.3,0-0.5,0c-0.3,0-0.7,0-1-0.1c-0.3,0-0.6-0.1-0.9-0.2c0.9,0.1-0.2-0.1-0.5-0.1
									c-1.3-0.4-2.5-1-3.7-1.7c-5.6-3.4-9.6-9.3-13.1-15.1c-4.2-7.2-7.6-14.9-10.6-22.6C1.8-67-0.6-74.2-2.7-81.5
									c-1.2-4-2.3-8.1-3.3-12.1c0-0.2-0.1-0.4-0.1-0.6c-0.2-0.6-1.7-0.5-2-0.5c-1.4,0.1-2.9,0.5-4.2,1c-1.3,0.5-2.7,1.1-3.8,1.9
									C-16.7-91.5-17.6-90.9-17.5-90.2L-17.5-90.2z"/>
							</g>
						</g>
						<g>
							<path class="st5" d="M-120.5-133.3c0,0-32.1,49.7-28.5,60.5c3.6,10.8,26.3,1.6,58.7-36.4"/>
							<g>
								<path class="st6" d="M-125.3-136.9c-3.3,5.2-6.5,10.4-9.6,15.7c-5.8,9.8-11.4,19.8-15.8,30.3c-1.6,3.8-3.2,7.8-3.7,11.8
									c-0.5,4.1,0.5,8,3.5,11c7.3,7.3,17.6,3.7,25.4-0.8c5.6-3.3,10.7-7.3,15.6-11.5c6.9-6,13.3-12.5,19.4-19.3
									c1.7-1.9,3.4-3.9,5.1-5.8c1.8-2.1-0.7-5.5-2.4-6.8c-1.9-1.4-5.3-2.7-7.2-0.5c-6,7-12.3,13.8-19,20.2
									c-1.4,1.3-2.8,2.6-4.2,3.9c-0.5,0.4,0.5-0.4,0,0c-0.2,0.2-0.4,0.3-0.5,0.5c-0.3,0.3-0.6,0.5-0.9,0.8
									c-0.7,0.6-1.4,1.2-2.2,1.8c-2.4,2-4.9,3.9-7.5,5.6c-2.1,1.4-4.3,2.8-6.5,3.9c-1,0.5-2,1-3,1.4c-0.2,0.1-0.4,0.2-0.6,0.3
									c-0.2,0.1-1.1,0.4-0.3,0.1c0.8-0.3,0,0-0.2,0c-0.2,0.1-0.5,0.2-0.7,0.2c-0.8,0.2-1.6,0.5-2.5,0.6c-0.4,0.1-0.7,0.1-1.1,0.1
									c-0.2,0-0.3,0-0.5,0c0,0,1.4,0,0.5,0c-0.3,0-0.6,0-0.9,0c-0.2,0-0.3,0-0.5-0.1c-0.8-0.1,1.6,0.4,0.7,0.1
									c-0.2-0.1-0.5-0.1-0.7-0.2c-0.8-0.2,1.5,0.7,0.9,0.4c-0.1-0.1-0.3-0.1-0.4-0.2c-0.8-0.4,1.6,1.2,0.6,0.4
									c-1-0.8,1.2,1.3,0.5,0.5c-0.1-0.1-0.2-0.2-0.3-0.3c-0.5-0.5,1,1.5,0.6,0.8c-0.3-0.6-0.5-1.4,0.1,0.4
									c-0.1-0.3-0.2-0.5-0.3-0.8c0-0.1-0.1-0.2-0.1-0.3c-0.1-0.3,0.2,1.5,0.2,0.6c0-0.6-0.1-1.2-0.1-1.8c0-0.5-0.1,1.3,0,0.4
									c0-0.2,0-0.4,0.1-0.6c0.1-0.4,0.1-0.8,0.2-1.2c0.2-0.9,0.4-1.8,0.7-2.7c0.6-2,1.3-4,2.1-6c0.9-2.3,2-4.6,3-6.9
									c0.2-0.5,0.4-0.7,0-0.1c0.2-0.3,0.3-0.6,0.4-0.9c0.3-0.6,0.6-1.2,0.9-1.9c0.6-1.3,1.3-2.5,1.9-3.7c2.5-4.9,5.2-9.7,8-14.4
									c3.5-6,7.1-11.8,10.7-17.6c0.1-0.1,0.1-0.2,0.2-0.3c1.5-2.3-0.4-5.4-2.4-6.8C-119.8-137.6-123.7-139.3-125.3-136.9
									L-125.3-136.9z"/>
							</g>
						</g>
						<g>
							<path class="st5" d="M-155.1-208.2c0,0,16.8,101.9,94.7,113.9s91.1-9.6,118.7-24s55.2-63.6,57.6-93.5"/>
							<g>
								<path class="st6" d="M-161-207.9c0.6,3.7,1.5,7.4,2.5,11.1c2.4,9.3,5.4,18.5,9.1,27.4c4.7,11.5,10.5,22.5,17.6,32.7
									c7.9,11.3,17.4,21.5,28.8,29.4c6.1,4.2,12.7,7.8,19.7,10.5c8.5,3.3,17.1,5.1,26.1,6.4C-38-87.7-18.2-86.3,1.2-89
									c12.3-1.7,24-5.6,35-11.5c8.5-4.6,16.4-10.2,24.9-14.9c7-3.8,13.2-8.4,18.9-13.9c6.7-6.6,12.5-14,17.7-21.8
									c10.1-15,18.5-32,22.5-49.8c0.8-3.7,1.5-7.5,1.8-11.3c0.1-1-1.2-1.9-1.9-2.2c-1.2-0.6-2.9-0.8-4.3-0.7
									c-2.2,0.2-5.6,0.9-5.8,3.6c-0.1,1.8-0.4,3.6-0.7,5.4c-0.1,0.4-0.1,0.8-0.2,1.2c-0.2,1,0.1-0.4,0,0.2c0,0.2-0.1,0.4-0.1,0.6
									c-0.2,1-0.4,2-0.7,3c-1,4-2.2,8-3.5,11.9c-3.1,8.7-7,17-11.4,25.1c-2.3,4-4.7,8-7.3,11.9c-0.8,1.2-0.9,1.3-1.7,2.4
									c-0.7,1-1.4,1.9-2.1,2.9c-1.4,1.9-2.8,3.7-4.3,5.5c-2.8,3.4-5.7,6.6-8.8,9.7c-1.5,1.5-3,2.9-4.6,4.2c-0.4,0.3-0.8,0.7-1.2,1
									c-0.2,0.1-0.3,0.3-0.5,0.4c0.1-0.1,0.8-0.6,0.1-0.1c-0.8,0.6-1.6,1.2-2.4,1.8c-4.7,3.3-9.9,5.8-14.8,8.8c-4,2.4-8,5-12,7.5
									c-2,1.2-4.1,2.4-6.2,3.6c-1.1,0.6-2.1,1.1-3.2,1.7c-1.1,0.5,1.1-0.5,0.1-0.1c-0.3,0.1-0.6,0.3-0.9,0.4
									c-0.6,0.3-1.2,0.5-1.8,0.8c-2.4,1.1-4.9,2.1-7.4,2.9c-0.6,0.2-1.3,0.4-1.9,0.6c-0.3,0.1-0.7,0.2-1,0.3
									c-0.2,0-0.3,0.1-0.5,0.1c-1.1,0.3,1.1-0.3,0.5-0.1c-1.4,0.4-2.9,0.8-4.3,1.1c-3.2,0.8-6.5,1.3-9.8,1.8
									c-1.4,0.2,1.1-0.1,0.1,0c-0.4,0.1-0.9,0.1-1.3,0.2c-1,0.1-1.9,0.2-2.9,0.3c-1.9,0.2-3.8,0.3-5.7,0.4c-2,0.1-4.1,0.2-6.1,0.2
									c-1.1,0-2.2,0-3.3,0c-0.5,0-1,0-1.5,0c-1,0,0.3,0,0.5,0c-0.4-0.1-0.8,0-1.2,0c-5-0.1-10-0.5-15-0.9
									c-5.7-0.5-11.3-1.2-17-2.1c-1.3-0.2-2.6-0.4-3.8-0.6c-0.2,0-0.4-0.1-0.7-0.1c1.5,0.2,0.8,0.1,0.5,0.1
									c-0.5-0.1-1.1-0.2-1.6-0.3c-1.9-0.4-3.8-0.8-5.6-1.3c-1.8-0.5-3.6-1-5.4-1.6c-0.4-0.1-0.8-0.3-1.2-0.4
									c-0.8-0.3,0.3,0.1,0.4,0.1c-0.2-0.1-0.5-0.2-0.7-0.3c-0.9-0.3-1.7-0.7-2.6-1c-3.3-1.3-6.5-2.9-9.6-4.6
									c-0.8-0.4-1.5-0.9-2.3-1.3c-0.3-0.2-0.7-0.4-1-0.6c-0.2-0.1-0.3-0.2-0.5-0.3c-0.8-0.5,0.7,0.5,0,0c-1.5-0.9-2.9-1.9-4.3-2.9
									c-2.8-2-5.4-4.1-7.9-6.4c-2.5-2.2-4.9-4.6-7.2-7c-1.1-1.2-2.3-2.5-3.4-3.7c0.7,0.7-0.1-0.1-0.3-0.3c-0.3-0.3-0.5-0.6-0.8-1
									c-0.6-0.7-1.1-1.4-1.7-2c-7.8-9.8-14.1-20.7-19.3-32c-2.3-5-4.4-10.1-6.2-15.3c-0.8-2.3-1.6-4.6-2.3-6.9
									c-0.3-1.1-0.7-2.2-1-3.3c0.3,1.1,0.1,0.2,0,0c-0.1-0.3-0.2-0.5-0.2-0.8c-0.2-0.5-0.3-1.1-0.5-1.6c-1.4-5-2.7-10.1-3.7-15.3
									c0-0.2-0.1-0.5-0.1-0.7c-0.4-2.6-4-3.1-6.2-3C-156.9-211.4-161.5-210.5-161-207.9L-161-207.9z"/>
							</g>
						</g>
						<g>
							<path class="st5" d="M-72.9-115.3c0,0-26.4,89.9,1.2,94.7s43.2-92.3,43.2-92.3"/>
							<g>
								<path class="st6" d="M-77.9-118.6c-1,3.4-1.9,6.9-2.8,10.3c-1.9,7.7-3.7,15.5-5.1,23.3c-1.7,9.3-3.1,18.6-3.5,28.1
									c-0.4,8-0.3,16.6,2.3,24.3c2.7,7.9,9.8,14.9,18.4,16c3.1,0.4,6.3,0,9.1-1.5c2.8-1.5,5.3-3.8,7.3-6.2
									c5.2-6.1,8.7-13.6,11.7-21c3.6-8.8,6.4-17.9,8.9-27.1c2.2-7.9,4-16,5.7-24c0.9-4.4,1.8-8.8,2.5-13.2c0-0.2,0.1-0.4,0.1-0.6
									c0.1-0.9-0.9-2.2-1.4-2.8c-1-1.1-2.4-2.1-3.7-2.8c-1.3-0.6-4.8-2.1-5.2,0.3c-0.5,3-1,5.9-1.6,8.8c-1.4,7.2-3,14.3-4.7,21.4
									c-1.1,4.3-2.2,8.7-3.5,13c-0.2,0.6,0-0.1-0.1,0.4c-0.1,0.3-0.2,0.5-0.2,0.8c-0.2,0.6-0.4,1.2-0.5,1.8
									c-0.3,1.1-0.7,2.2-1,3.3c-0.7,2.2-1.4,4.3-2.2,6.5c-2.8,8-6,15.9-10.5,23.1c-1.8,2.9-3.8,5.6-6.3,8
									c-0.3,0.3-0.5,0.5-0.8,0.8c-0.1,0.1-0.3,0.2-0.4,0.4c-0.5,0.4,0.2-0.2,0,0c-0.6,0.4-1.1,0.8-1.7,1.2
									c-1.1,0.7-2.3,1.2-3.5,1.6c-0.1,0-0.3,0.1-0.5,0.1c-0.6,0.2,0-0.1,0.3,0c-0.2-0.1-0.7,0.1-1,0.1c-0.6,0.1-1.2,0.1-1.9,0
									c-0.7,0,1,0.1,0.5,0c-0.1,0-0.3,0-0.4-0.1c-0.4-0.1-0.7-0.1-1.1-0.2c-0.8-0.2,1.2,0.4,0.6,0.2c-0.2-0.1-0.3-0.1-0.5-0.2
									c-0.2-0.1-0.3-0.1-0.5-0.2c-0.9-0.3,1.2,0.6,0.7,0.3c-0.3-0.2-1.4-0.8-0.2,0c1.4,0.8,0-0.1-0.2-0.2c0,0,1.5,1.2,0.8,0.6
									c-0.1-0.1-0.2-0.2-0.4-0.3c-0.1,0-0.3-0.3-0.4-0.3c0.2,0,1.2,1.3,0.6,0.5c-0.2-0.2-0.4-0.5-0.7-0.7
									c-0.5-0.5,0.8,1.1,0.4,0.6c-0.1-0.2-0.2-0.3-0.3-0.5c-0.4-0.6-0.7-1.2-1.1-1.8c0.8,1.2,0.1,0.3-0.1-0.2
									c-0.2-0.4-0.3-0.7-0.5-1.1c-0.3-0.7-0.5-1.5-0.8-2.3c-0.2-0.8-0.4-1.6-0.6-2.4c0-0.2-0.1-0.4-0.1-0.6c0-0.1,0-0.2-0.1-0.4
									c0,0,0.1,0.7,0.1,0.4c-0.1-0.5-0.2-1-0.2-1.4c-0.6-3.9-0.8-7.9-0.8-11.9c0.1-9.2,1.2-18.3,2.7-27.3c1.4-8.2,3.1-16.4,5-24.6
									c1.1-4.5,2.2-9,3.5-13.5c0.1-0.3,0.4-1.4,0,0c0.7-2.3-1.8-4.4-3.6-5.5c-1.2-0.8-2.5-1.5-3.9-1.7
									C-76-119.2-77.7-119.5-77.9-118.6L-77.9-118.6z"/>
							</g>
						</g>
						<g>
							<path class="st5" d="M35-129.7c0,0,49.2,65.9,67.1,58.8c18-7.2-34.8-87.5-34.8-87.5"/>
							<g>
								<path class="st6" d="M29.2-129.1c2.1,2.8,4.3,5.6,6.5,8.3c4.7,6,9.6,11.8,14.7,17.6c5.9,6.7,12.1,13.3,18.8,19.4
									c5.7,5.2,11.9,10.5,19,13.7c3.8,1.7,7.7,2.8,11.9,2.7c3.6-0.1,7.3-1,9.8-3.8c3.2-3.7,2.1-9.7,1.1-13.9
									c-1.7-7.3-4.6-14.2-7.7-20.9c-3.6-7.8-7.6-15.3-11.8-22.8c-3.7-6.6-7.5-13-11.4-19.4c-2.1-3.4-4.3-6.8-6.4-10.2
									c-0.1-0.2-0.2-0.3-0.3-0.5c-1.4-2.2-4.9-2.6-7.3-2.4c-1.2,0.1-5.8,1.2-4.3,3.5c1.5,2.3,2.9,4.6,4.4,6.9
									c3.5,5.6,7,11.3,10.3,17.1c4.2,7.2,8.2,14.4,11.9,21.8c3.5,7,6.8,14.1,9.3,21.5c0.5,1.6,1,3.1,1.4,4.7
									c0.1,0.3,0.2,0.7,0.3,1c0.2,0.6-0.1-0.3,0-0.1c0,0.2,0.1,0.4,0.1,0.6c0.1,0.7,0.3,1.4,0.4,2.1c0.4,2.2,0.5,4.6,0,6.8
									c0,0.1-0.1,0.2-0.1,0.3c-0.1,0.5,0-0.3,0.1-0.4c-0.1,0.1-0.2,0.5-0.3,0.7c-0.2,0.4-0.4,0.7-0.6,1.1
									c-0.1,0.2-0.3,0.3-0.4,0.5c-0.2,0.3,0.7-0.6,0.4-0.4c-0.1,0.1-0.2,0.2-0.2,0.2c-0.2,0.1-0.3,0.2-0.5,0.4
									c-0.7,0.5,1.1-0.5,0.3-0.2c-0.2,0.1-0.4,0.2-0.6,0.2c-0.7,0.3,1.3-0.3,0.7-0.2c-0.1,0-0.3,0.1-0.4,0.1
									c-1.1,0.3,1.2-0.1,0.6-0.1c-0.4,0-1.5,0.1-0.1,0c1.4,0,0.3,0,0,0c-1.1,0,1.9,0.3,0.5,0.1c-0.3,0-0.6-0.1-0.8-0.1
									c-1.1-0.2,1.6,0.5,0.4,0.1c-0.6-0.2-1.3-0.4-1.9-0.6c-0.2-0.1-0.3-0.1-0.5-0.2c-0.6-0.2,1.3,0.6,0.5,0.2
									c-0.3-0.2-0.7-0.3-1-0.5c-1.5-0.7-2.9-1.5-4.2-2.4c-0.3-0.2-0.7-0.4-1-0.7c-0.2-0.1-0.3-0.2-0.5-0.3c-0.8-0.6,0.5,0.4,0.1,0
									c-0.8-0.5-1.5-1.1-2.3-1.7c-1.6-1.2-3.1-2.4-4.5-3.7c-6.7-5.7-12.8-12-18.7-18.4c-5.4-5.9-10.6-12.1-15.7-18.3
									c-1-1.2-1.9-2.4-2.9-3.6c-0.1-0.1-0.6-0.7-0.1-0.2c0.4,0.5,0,0-0.1-0.1c-0.2-0.3-0.4-0.5-0.6-0.8c-0.4-0.5-0.8-1-1.1-1.4
									c-1-1.3-1.9-2.5-2.9-3.8c-0.1-0.2-0.3-0.3-0.4-0.5c-1.6-2.1-4.8-2.7-7.3-2.4c-1.2,0.2-2.6,0.4-3.6,1.2
									C29.3-130.9,28.6-129.9,29.2-129.1L29.2-129.1z"/>
							</g>
						</g>
					</g>
					<polyline class="st5" points="-142.5,-231.6 -13.3,-301 96.1,-313.2 101.2,-207.1 49.1,-179.2 -133.6,-182.7 					"/>
				</g>
			</g>
			<g>
				<path class="st7" d="M666.8,293c0,161.8-130.7,293-291.9,293C213.7,586,83.1,454.8,83.1,293C83.1,131.2,213.7,0,374.9,0
					C536.1,0,666.8,131.2,666.8,293z M83.1,293C-78,293-208.7,161.8-208.7,0c0-161.8,130.7-293,291.9-293h583.7
					C828-293,958.7-161.8,958.7,0c0,161.8-130.7,293-291.9,293H83.1z M666.9-293C666.9-131.2,536.2,0,375,0S83.1-131.2,83.1-293
					S213.8-586,375-586S666.9-454.8,666.9-293z"/>
			</g>
		</g>
	</g>
</g>
<g>
	<g>
		<g>
			<path class="st6" d="M494.7,448.1c-0.2,0.1,0.4,0.8,0.6,3.1c0.3,3.2-1.2,8.2-1.2,8.2s-3.5,16.1-6.5,22.1c-3,6-4.6,21-4.6,25.5
				c0.1,4.4-3.3,3.2-7.2,4.4c-3.9,1.2-1.4,6.2-1.4,6.2s-0.6,2.1-7.8,2.8c-7.2,0.8-11.3,0-11.3,0s1.9-1.4,3.2-4.4
				c1.3-3,5.4-5.8,5.4-5.8s2.5-3.1,4.6-6.5c2.1-3.4,6.5-15.2,6.5-15.2s2.6-13.2,3.9-20.6c0.8-4.6,0.2-8.4-0.3-10.6
				C478.6,457.1,484.8,455.8,494.7,448.1z"/>
			<g>
				<path class="st5" d="M493.2,447.6c-0.4,0.6-0.2,1.1,0,1.7c0.3,1.1,0.5,2.2,0.5,3.3c0,1.9-0.4,3.9-0.9,5.7
					c-0.4,1.6-0.8,3.2-1.1,4.8c-0.9,3.6-1.8,7.1-2.9,10.6c-0.6,1.8-1.1,3.6-1.8,5.4c-0.5,1.4-1.2,2.7-1.8,4.1
					c-1.4,3.8-2.1,7.9-2.7,11.9c-0.5,3.5-1,7.1-1.1,10.7c0,1,0.2,2.8-0.7,3.1c-1.7,0.6-3.6,0.5-5.3,1.1c-1.8,0.6-3.2,2-3.4,4
					c-0.1,1.1,0.1,2.8,0.7,3.8c0.3,0.4,0.1-0.1,0.1-0.5c0,0.2,0.1-0.4,0.1-0.2c-0.1,0.3,0.1-0.1,0,0c-0.4,0.4,0.1,0-0.2,0.2
					c-1.5,0.9-3.6,1.3-5.5,1.5c-3.7,0.4-7.6,0.7-11.3,0c0.3,0.7,0.5,1.4,0.8,2.1c2-1.5,2.7-3.8,4.1-5.8c1.2-1.9,3.1-3,4.5-4.4
					c0.6-0.6,1.1-1.4,1.6-2c1.1-1.4,2.1-2.9,3-4.4c1.1-1.9,2-3.9,2.8-5.9c1-2.2,1.9-4.5,2.7-6.8c0.4-1.1,1-2.2,1.3-3.3
					c0.3-1.1,0.5-2.3,0.7-3.4c0.5-2.6,1-5.2,1.5-7.8c1.3-6.8,3-13.7,1.4-20.6c-0.5,0.6-1.1,1.3-1.6,1.9c1.7-0.4,3.3-1.1,4.9-1.8
					c4.4-2.1,8.5-4.8,12.4-7.8c0.6-0.5,0.6-1.5,0-1.9c-0.8-0.5-1.8-0.1-2.4,0.3c-3.4,2.7-7.1,5.2-11.1,7c-1,0.5-2,0.9-3,1.2
					c-0.3,0.1-0.6,0.2-0.8,0.3c-0.5,0.2,0.1,0,0.1,0c-0.9,0.2-1.9,0.9-1.6,1.9c1.4,5.9,0,11.8-1.1,17.7c-0.8,4.2-1.4,8.5-2.4,12.6
					c-0.2,0.7-0.5,1.5-0.8,2.2c-0.8,2.1-1.6,4.2-2.5,6.2c-0.8,2-1.6,4-2.7,6c-1.3,2.4-3,4.6-4.6,6.8c-0.1,0.1-0.2,0.2-0.3,0.4
					c0,0,0.8-0.6,0.5-0.5c-0.4,0.2-0.8,0.6-1.1,0.8c-1.1,0.9-2.2,1.9-3.1,2.9c-1.8,2-2.4,4.9-4.6,6.6c-1.1,0.8-0.3,2,0.8,2.1
					c3.1,0.6,6.3,0.4,9.4,0.2c3.5-0.2,8.4-0.5,11-3.2c0.5-0.5,0.9-1.1,0.7-1.9c-0.3-1.1-0.9-2-0.7-3.1c0.2-1.7,2.5-1.5,3.8-1.7
					c1.8-0.3,3.7-0.7,4.8-2.2c0.9-1.4,0.7-3.1,0.8-4.6c0.1-1.7,0.2-3.4,0.4-5.1c0.4-4.2,1.1-8.3,2-12.4c0.4-1.8,0.9-3.6,1.7-5.3
					c0.6-1.5,1.3-2.9,1.9-4.4c1.4-3.8,2.4-7.6,3.4-11.5c0.6-2.3,1.1-4.7,1.7-7c0.4-1.7,0.9-3.4,1.1-5.2c0.2-1.3,0.2-2.5,0.1-3.8
					c-0.1-0.7-0.2-1.3-0.4-2c0-0.1-0.1-0.3-0.1-0.4c-0.3-0.4,0.1-0.1-0.3,0.5c0.5-0.7,0.1-1.5-0.6-1.8
					C494.7,446.5,493.7,446.9,493.2,447.6z"/>
			</g>
		</g>
	</g>
	<path class="st8" d="M494.7,448.1"/>
	<g>
		<g>
			<g>
				<path class="st9" d="M466.2,458c0,0-4.1,17-9.5,16.2c-5.5-0.8,0.8-20.1,0.8-20.1"/>
				<g>
					<path class="st5" d="M465,458.4c-0.5,2-1.1,4-1.8,5.9c-0.6,1.7-1.2,3.3-2,4.9c-0.7,1.4-1.5,2.8-2.6,3.9
						c-0.1,0.1-0.4,0.3-0.4,0.3c-0.1,0-0.2,0.1-0.2,0.1c0,0,0.2-0.1,0,0c0,0-0.1,0,0,0c-0.3,0-0.7,0-1.1-0.3
						c-0.9-0.6-1.1-1.9-1.2-2.9c-0.3-3.2,0.4-6.6,1.1-9.7c0.5-2.3,1.1-4.6,1.8-6.8c0.2-0.5-0.9-0.3-1.1-0.3c-0.5,0.1-1.1,0.5-1.3,1
						c-0.7,2.1-1.2,4.2-1.7,6.3c-0.8,3.4-1.6,7.1-1.2,10.6c0.1,1.1,0.4,2.5,1.5,3.1c1.2,0.8,3,0.3,4.2-0.3c3.1-1.7,4.7-5.4,5.9-8.5
						c1-2.6,1.9-5.4,2.6-8.1C467.6,457,465.2,457.6,465,458.4L465,458.4z"/>
				</g>
			</g>
			<g>
				<path class="st9" d="M489.8,449.1c0,0,7,10.8,6.2,13.1c-0.8,2.3-5.7,0.3-12.8-7.9"/>
				<g>
					<path class="st5" d="M488.6,449.6c1.9,2.9,3.7,5.9,5.1,9.1c0.4,0.8,0.8,1.7,1,2.6c0.1,0.5,0.3,1.2,0,1.7
						c-0.1,0.1-0.2,0.2-0.2,0.3c0,0,0,0,0,0c0.1,0,0.3-0.2,0.4-0.2c0.3-0.1,0.6-0.2,0.9-0.3c0,0,0,0-0.1,0c0,0,0.1,0,0,0
						c-0.1,0-0.1,0-0.1,0c-0.2,0-0.3,0-0.5-0.1c-0.9-0.2-1.7-0.6-2.5-1.1c-3.2-2-5.8-4.8-8.2-7.6c-0.4-0.4-2.5,0.9-2.4,0.9
						c2.3,2.7,4.9,5.5,7.9,7.5c0.8,0.5,1.8,1.1,2.7,1.3c1,0.2,2,0,3-0.4c0.7-0.3,1.4-0.7,1.6-1.4c0.2-0.7-0.1-1.5-0.4-2.2
						c-0.8-2.3-2-4.4-3.2-6.5c-0.8-1.5-1.7-2.9-2.7-4.4C490.8,448.3,488.5,449.4,488.6,449.6L488.6,449.6z"/>
				</g>
			</g>
			<g>
				<path class="st9" d="M497.3,432.8c0,0-3.6,22.1-20.6,24.7c-16.9,2.6-19.8-2.1-25.8-5.2c-6-3.1-12-13.8-12.5-20.3"/>
				<g>
					<path class="st5" d="M496.1,433c-1.3,7.6-5.1,15.9-11.4,20.5c-2.7,1.9-5.6,2.9-8.9,3.3c-3.8,0.5-7.7,0.9-11.6,0.3
						c-2.4-0.3-4.7-1.1-6.8-2.2c-1.8-1-3.4-2.1-5.2-3.1c-3.6-2-6.2-5.1-8.3-8.5c-2.1-3.5-4-7.4-4.3-11.5c-0.1-1.3-2.5-0.4-2.4,0.7
						c0.3,3.8,1.9,7.4,3.7,10.7c1.9,3.4,4.3,6.8,7.5,9.1c1.9,1.3,4,2.5,6,3.6c2.1,1.2,4.3,2.2,6.6,2.8c3.6,0.8,7.3,0.8,10.9,0.4
						c3.9-0.4,7.8-0.9,11.3-2.8c5.3-2.8,9.2-7.8,11.7-13.2c1.5-3.3,2.8-6.8,3.4-10.4C498.8,431.3,496.3,431.9,496.1,433L496.1,433z"
						/>
				</g>
			</g>
			<g>
				<path class="st9" d="M479.5,453c0,0,5.7,19.5-0.3,20.6c-6,1-9.4-20.1-9.4-20.1"/>
				<g>
					<path class="st5" d="M478.2,452.9c0.6,2.2,1.1,4.4,1.6,6.6c0.7,3.5,1.4,7.4,0.6,10.9c-0.1,0.6-0.3,1.2-0.7,1.7
						c-0.1,0.2-0.3,0.4-0.5,0.5c-0.2,0.1-0.5,0.2-0.5,0.2c-0.2,0-0.2,0-0.2,0c-0.3,0,0.1,0-0.1,0c-0.2-0.1,0.1,0.1-0.1,0
						c-0.1,0-0.1,0-0.3-0.2c-0.4-0.3-0.8-0.8-1.2-1.3c-2.1-2.9-3.1-6.6-4-10c-0.7-2.5-1.2-5.1-1.6-7.6c-0.2-0.9-2.7-1.3-2.5-0.3
						c0.4,2.4,0.9,4.8,1.5,7.2c1,3.7,2,7.8,4.3,10.9c0.9,1.3,2.1,2.4,3.7,2.8c1.5,0.3,3.1,0,4-1.3c0.9-1.3,1.1-3,1.1-4.5
						c0.1-2.1-0.1-4.1-0.5-6.2c-0.5-3.1-1.1-6.1-2-9.1C480.5,452.2,478,451.9,478.2,452.9L478.2,452.9z"/>
				</g>
			</g>
			<g>
				<path class="st9" d="M456.1,449.9c0,0-10.7,14.3-14.6,12.8s7.6-19,7.6-19"/>
				<g>
					<path class="st5" d="M454.8,449.7c-1.3,1.8-2.7,3.4-4.1,5.1c-2.2,2.5-4.6,5.3-7.5,6.9c-0.2,0.1-0.6,0.3-0.7,0.3
						c-0.2,0.1-0.6,0.1-0.3,0.1c-0.2,0,0.1,0,0,0c0.3,0.1,0,0,0,0c0,0,0.1,0.1,0,0c0,0-0.1-0.2-0.1-0.2c-0.4-0.9,0-2.1,0.2-2.9
						c0.9-3.2,2.6-6.2,4.3-9.1c1.2-2,2.4-4,3.7-6c0.5-0.8-2-1.2-2.5-0.4c-1.2,1.8-2.3,3.7-3.4,5.6c-1.8,3.1-3.6,6.4-4.6,9.8
						c-0.3,1-0.6,2.3-0.1,3.3c0.6,1.3,2.4,1.4,3.6,1.1c1.5-0.3,2.9-1.3,4-2.2c1.5-1.2,2.9-2.6,4.3-4.1c2-2.2,4-4.5,5.8-6.9
						C457.8,449.4,455.4,449,454.8,449.7L454.8,449.7z"/>
				</g>
			</g>
		</g>
		<polyline class="st9" points="494.6,427.8 466.6,412.7 442.8,410 441.7,433.1 453,439.1 492.7,438.4 		"/>
	</g>
	<g>
		<path class="st6" d="M532.9,429c5.4,9.1,15.2,29.8,15.2,29.8s-2.6,3.2-1.9,5.4c1.9,6.3-5.5,8.1-6,8c0.3,0,1.1-7.9-8.8-22.6
			c-11-16.2-7.4-20.6-9.5-28.8c-2.1-8.2-3.2-14.6-4.4-22.9c-1.3-8.3-2.9-31.5-3.4-40c-0.1-2.4-1-6.4-2.2-10.7
			c-0.6,3.5-1.5,10.5-1.9,17.6c-0.5,10.1-0.7,23.9-1.3,36.8c-0.6,13,2.4,22.3,3.7,27.4c1.3,5.1,10.7,13.8,10.7,13.8s3.1,2.5,3.8,5.6
			c0.7,3.1-1.5,27.6-1.9,35.7c-0.4,8.1,1.6,22.8,2.9,27.5c1.3,4.7-3.4,5.6-3.9,9.3c-0.4,3.7-2.6,9.6-2.6,9.6s-4.3,1.7-10.6,3.1
			c-6.3,1.5-7.6-3.2-7.6-3.2l3.2-4.4l4.6-6.5c0,0,0.5-2.5,2-4.2c1.4-1.8,1.4-6.2,1.6-11.5c0.3-5.3-0.1-20.1-1.4-24.4
			c-1.3-4.3-2.8-7.8-4.8-14.4c-1.8-6.4-12.8-16.1-13.8-17c0,0-25.9-13.2-35.8-24.3l-20.5,8.7c-4.3,1.7-9.3,3.8-13.3,4.9
			c-6.6,1.9-7.9,4.6-32.9,8.9c-25,4.3-33.4,2.8-45,0.3c-11.5-2.4-26-2.1-26-2.1s1.3,19.6,1.1,29.3c-0.2,9.7,4.5,20.1,6.4,26.3
			c1.9,6.3-0.1,2.8-3,6c-2.9,3.1,1.3,4.3,0.4,8c-0.8,3.7-7.1,5.6-7.1,5.6s-2.4,0.3-7.3,0c-4.9-0.3-1.7-4.7-4.3-2.8
			c-2.6,1.9,0.1,4.8,0.1,4.8l-3.6,8c0,0-4.1,2.9-10.9,3.6c-6.8,0.7-7.6-3.2-7.6-3.2s6.3-5.5,8.3-9.3c2-3.8,0.7-1.3,3.6-3.6
			c3-2.3,1.7-3,3.2-8c1.5-5,0-23.4-1.7-27.2c-1.6-3.9-2-7.8-2.9-12.6c-0.9-4.7-4.1-19.7-4.1-19.7l-6.7-2.5c0,0-12.3-1.5-19.2-6.4
			c-7-4.9-7-13-12.3-24.5c-5.3-11.5-14.5-22.7-19.3-26.6c-4.9-3.9-17.1-13.1-17.1-13.1s-7.5,4.8-13.9,2.3c-6.3-2.6-4.1-0.8-13-0.6
			c-8.9,0.1-4.7,0.9-10.6,3.1c-5.8,2.2-5.2,0.1-11.3-0.4c-6.1-0.6-9.6-3.4-12-10.4c-2.4-7,4.1-6.9,8.4-11.8
			c4.3-4.9,8.4-15.8,10.7-20.5c2.3-4.7,1.1-9,1.1-9s-3.4-2.1-6.2-5c-2.7-2.9-3.6-7.3-3.6-7.3s3.1-1.1,8.3-1.7c5.2-0.5,9,1.5,9,1.5
			s0-0.4,0.9-2.5c1-2.1,7.5-5.6,12.2-6.1c4.8-0.5,14.7,5.3,14.7,5.3s1.6-0.2,3.1-1.5c1.5-1.4,3.5-1.6,3.5-1.6l2.8,8.5
			c0.7,0.2,1.7,0.5,3,1c8.4,2.7,9.9,1.8,19.3,3.2c9.4,1.4,25.2,1.8,25.2,1.8c6.8-0.3,28.7-3,28.7-3s19.3,3.6,33.1,4.6
			c13.8,1,44,1,52.5,0.9c8.5-0.1,62.9-9.1,72.2-9.4c8.3-0.3,7.1-0.6,11.8-0.4c5.9,0.2,13.6,0.1,13.6,0.1s19.5-0.2,22.4,0.7
			c2.9,0.9,7.9,2,11.5,9.3c3.6,7.3,5,24.1,5.3,27.3c0.3,3.2,1.4,29,1.4,36.7c0,7.7,5.5,27.1,5.5,27.1S527.5,419.9,532.9,429"/>
		<g>
			<path class="st5" d="M532.6,429.7c5.6,9.5,10.3,19.5,15,29.4c-0.1-0.6-0.3-1.1-0.4-1.7c-0.9,1.1-1.7,2.4-2,3.8
				c-0.4,2,0.8,3.8-0.1,5.7c-0.7,1.7-3.5,4-5.5,3.8c0.5,1,1,2.1,1.4,3.1c0.8-0.2,0.2-3.4,0.1-3.8c-0.5-3.6-1.9-7.2-3.4-10.5
				c-4.3-9.3-12.3-17.2-13.7-27.6c-0.4-2.8-0.3-5.6-0.8-8.4c-1-5.8-2.6-11.4-3.6-17.2c-1.6-9.2-2.5-18.4-3.2-27.7
				c-0.4-5.1-0.8-10.2-1.1-15.3c-0.3-5.4-1.2-10.4-2.5-15.6c-0.1-0.3-1.6-3-1.8-1.7c-1.4,9.2-2,18.4-2.3,27.7
				c-0.2,5.2-0.3,10.5-0.5,15.7c-0.2,5.4-0.6,10.8-0.5,16.1c0.2,7.4,1.6,14.6,3.5,21.8c1.6,5.9,5.8,10.6,10.1,14.8
				c1.1,1.1,2.3,2.1,3.3,3.2c1.7,1.9,1.6,3.8,1.5,6.2c-0.2,6.3-0.7,12.7-1.2,19c-0.4,6.1-1.1,12.2-0.8,18.3c0.3,7.2,1,14.5,2.7,21.5
				c0.5,1.9,0.3,3.2-0.9,4.7c-0.9,1.2-2.2,2.2-2.7,3.7c-0.6,1.8-0.7,3.9-1.3,5.8c-0.3,1.2-0.7,3.5-1.5,4.5c0,0-0.1,0-0.4,0.2
				c-0.6,0.3-1.2,0.4-1.8,0.6c-2.2,0.7-4.5,1.4-6.8,2c-2,0.5-4.4,1.1-6.4,0c-0.4-0.2-0.7-0.6-1.1-0.9c-0.1-0.1,0,0,0,0.1
				c0,0.3,0,0.6,0.1,0.9c1.6-2.3,3.3-4.5,4.9-6.8c0.9-1.3,2.1-2.6,2.8-4c0.3-0.7,0.5-1.5,0.8-2.2c0.6-1.2,1.5-2.2,1.9-3.5
				c0.9-3,0.8-6.4,0.9-9.4c0.1-2.3,0.1-4.6,0.1-6.9c-0.1-5.3-0.2-10.7-0.9-15.9c-0.7-5.1-3-9.8-4.5-14.7c-0.8-2.7-1.6-5.2-3.1-7.6
				c-1.4-2.3-3.1-4.4-4.9-6.4c-1.6-1.8-3.4-3.6-5.1-5.3c-0.9-0.8-1.7-1.8-2.7-2.5c-1.9-1.2-4-2.1-6-3.2c-5.1-2.8-10.1-5.8-15-9.1
				c-5.1-3.4-10.3-7-14.4-11.6c-0.2-0.2-0.5-0.7-0.9-0.5c-6.2,2.7-12.4,5.3-18.6,8c-6.9,3-14.1,5.2-21.1,8
				c-9.7,3.9-20.3,5.6-30.6,7.3c-11.1,1.8-22.4,2.9-33.6,1.1c-6.2-1-12.2-2.4-18.4-2.9c-5-0.4-10-0.7-15.1-0.6
				c-0.2,0-0.3,0.1-0.3,0.4c0.4,5.9,0.7,11.9,0.9,17.8c0.2,4.2,0.1,8.3,0.2,12.5c0.1,5.6,1.5,11,3.2,16.3c0.8,2.3,1.6,4.6,2.4,6.9
				c0.4,1,0.7,2.1,1,3.1c0.2,0.6,0.8,2,0.5,2.6c-0.3,0.6-2,0.8-2.6,1.2c-1.3,0.9-2.3,2.4-2.1,4c0.2,1.6,1.7,3,1.5,4.7
				c-0.2,2-2.1,3.4-3.8,4.3c-2.4,1.3-3.6,1.5-6.2,1.5c-1.5,0-3.1,0-4.7-0.2c-0.2,0-0.4-0.1-0.7-0.1c-0.8-0.1-0.3-0.5-0.4,0.1
				c-0.1,0.3,0.2,0.5,0.1-0.1c-0.1-0.9-0.8-3-1.9-3.1c-1.6-0.1-2.5,2.2-2.3,3.5c0.2,1.6,1.1,3.2,2.1,4.4c-0.3-0.8-0.6-1.6-0.9-2.4
				c-0.8,1.8-1.6,3.6-2.4,5.4c-0.8,1.7-0.8,2.4-2.2,3.2c-3.2,1.7-6.9,2.8-10.5,2.9c-1.5,0.1-3.3,0-4.6-0.9c-0.1-0.1-0.6-0.6-0.7-0.6
				c0.2,0,0.2,0.4,0.2,0.6c0,0.2-0.1,0.4-0.1,0.6c2.1-1.9,4.1-3.9,5.9-6c1.2-1.4,2.1-2.9,3-4.5c0.5-1,0.7-1.1,1.6-1.5
				c3-1.5,3.5-3.6,4.1-6.6c0.5-3,1.2-5.6,1.2-8.6c0.1-6.6-0.3-13.7-1.8-20.1c-0.3-1.2-0.8-2.4-1.2-3.6c-0.9-2.6-1.3-5.4-1.8-8.1
				c-0.6-3.3-1.3-6.5-1.9-9.8c-0.7-3.2-1.3-6.4-2-9.5c-0.4-1.7-0.5-4.3-2.2-5.2c-1.8-1-4.2-1.6-6.2-2.3c-1.5-0.5-3.2-0.6-4.8-0.9
				c-7.5-1.6-16.1-4-19.5-11.5c-1.7-3.8-2.8-8-4.3-11.9c-1.8-4.9-4.1-9.5-6.8-13.9c-4.7-7.7-10.4-15.1-17.6-20.7
				c-5.1-4-10.2-7.8-15.3-11.7c-0.1-0.1-0.2-0.1-0.4-0.1c-3.1,2-7.2,3.3-10.9,2.9c-2.3-0.2-4.2-1.5-6.5-1.9c-1.1-0.2-2.2,0-3.4,0.1
				c-2.6,0.4-5.2,0.4-7.9,0.5c-1.4,0.1-3.1,0-4.4,0.7c-0.9,0.5-1.7,1.2-2.6,1.7c-2,1-4.4,2-6.7,1.6c-2.2-0.4-4.3-1.1-6.6-1.4
				c-2.3-0.3-4.6-0.9-6.5-2.5c-1.9-1.6-3.2-4.3-3.8-6.7c-0.5-2.3,0.6-3.9,2.4-5.1c1.8-1.3,3.7-2.3,5.3-3.8c1.7-1.6,3-3.6,4.1-5.5
				c2.6-4.6,4.6-9.4,6.8-14.2c1.2-2.7,2.3-5.2,2.3-8.2c0-1.6-0.1-3.7-1.3-4.9c-0.4-0.5-1-0.7-1.5-1.1c-1.2-0.8-2.4-1.8-3.5-2.8
				c-1.9-1.7-3.4-4.4-3.9-6.5c0,0.2-0.1,0.4-0.1,0.6c5.1-1.8,11.9-2.9,16.9-0.3c0.3,0.1,0.5,0.1,0.5-0.3c0-1.2,1.1-2.7,1.9-3.5
				c1.5-1.4,3.5-2.4,5.4-3.2c1.9-0.8,4.2-1.6,6.3-1.6c1.8,0,3.5,0.6,5.2,1.2c1.9,0.7,3.6,1.5,5.4,2.4c1,0.5,2,1.2,3,1.6
				c0.8,0.3,1.4,0.1,2.2-0.3c1.7-0.9,2.8-2.3,4.9-2.6c-0.6-0.7-1.1-1.4-1.7-2.1c0.8,2.4,1.6,4.8,2.4,7.2c0.3,1,0.6,2.4,1.5,3.1
				c0.6,0.5,1.5,0.6,2.2,0.8c1.4,0.4,2.8,0.9,4.2,1.3c4,1.1,8,1.3,12.1,1.7c4.9,0.5,9.8,1.3,14.7,1.6c6.2,0.4,12.4,1,18.5,0.4
				c7.2-0.6,14.5-1.5,21.7-2.4c0.9-0.1,1.9-0.3,2.8-0.3c0.6-0.1,0.2-0.1,0.8,0c2.9,0.5,5.8,1,8.7,1.5c9.3,1.5,18.7,2.8,28.1,3.2
				c16.1,0.8,32.4,1.1,48.5,0.7c4.5-0.1,9.1-0.9,13.6-1.5c7.4-1,14.8-2.1,22.3-3.1c7.5-1.1,14.9-2.2,22.4-3.2
				c4.8-0.7,9.7-1.4,14.6-1.6c12.7-0.5,25.4-0.5,38.1-0.2c6.2,0.1,12.8,0.2,17.2,5.4c2.9,3.5,3.9,8.3,4.7,12.7
				c0.8,4.1,1.3,8.3,1.8,12.5c1.4,12.7,1.6,25.6,1.8,38.4c0.1,7.2,1.6,14.1,3.3,21c0.9,3.6,1.5,7.4,3.1,10.8
				C528.7,423.2,530.7,426.4,532.6,429.7c0.2,0.3,0.8,1.2,1.2,0.7c0.4-0.4-0.4-1.8-0.6-2.1c-1.3-2.1-2.5-4.3-3.7-6.5
				c-0.4-0.8-1.1-2.1-1.3-2.5c-0.1-0.2-0.2-0.4-0.2-0.5c0,0,0.2,0.5,0.1,0.2c-0.2-0.5-0.3-1.1-0.4-1.6c-1.9-6.9-3.7-13.9-4.6-20.9
				c-0.4-2.8-0.3-5.5-0.4-8.3c-0.1-3.7-0.2-7.5-0.3-11.2c-0.2-6.7-0.5-13.4-0.9-20.1c-0.4-6-1.2-12.1-2.3-18
				c-1.5-7.8-4.1-16.8-11.7-20.7c-5.1-2.6-10.9-2.2-16.5-2.3c-4.7-0.1-9.4,0-14.2,0c-4.2,0-8.4-0.3-12.7-0.2
				c-3.1,0.1-6.2,0.3-9.3,0.5c-4.7,0.2-9.3,1-14,1.6c-14.5,2-29,4.2-43.6,6.2c-4.6,0.6-9.2,1.4-13.8,1.5c-6.5,0.2-13,0.1-19.4,0
				c-8.9-0.1-17.8-0.2-26.7-0.5c-9-0.4-18-1.4-26.9-2.7c-3.6-0.6-7.3-1.1-10.9-1.8c-1.1-0.2-1.9-0.4-3-0.3
				c-6.5,0.8-13.1,1.6-19.7,2.2c-2.7,0.3-5.5,0.7-8.2,0.7c-2.7,0-5.3-0.2-8-0.3c-9.1-0.4-18.1-1.6-27.2-2.6
				c-4.2-0.5-8.2-1.8-12.3-3.1c0.5,0.7,1,1.4,1.5,2.1c-0.9-2.8-1.9-5.7-2.8-8.5c-0.2-0.6-0.8-2.2-1.7-2.1c-2,0.3-3.2,1.7-4.9,2.6
				c-0.4,0.2-0.8,0.4-1.3,0.5c-0.4,0.1-0.1,0.1,0,0.1c-0.3-0.1-0.6-0.3-0.8-0.5c-3.1-1.7-6.3-3.3-9.7-4.3c-4.1-1.2-8-0.2-11.8,1.7
				c-2.5,1.2-6.1,3.4-6,6.7c0.2-0.1,0.4-0.2,0.5-0.3c-5.3-2.7-12.3-1.8-17.7,0.2c-0.2,0.1-0.2,0.5-0.1,0.6
				c1.3,6.4,5.7,11.3,11.1,14.6c-0.4-0.7-0.9-1.3-1.3-2c1,3.8-0.9,7.5-2.4,10.9c-1.9,4.3-3.7,8.6-6.1,12.7c-1.1,2-2.3,4-4,5.6
				c-1.4,1.4-3.2,2.4-4.9,3.5c-3.1,2.1-4.1,4.6-3,8.2c1.1,3.8,3.1,7.7,6.3,10.2c3.4,2.6,7.4,2.3,11.3,3.4c1.5,0.4,2.8,0.8,4.4,0.5
				c1.9-0.3,4-1.1,5.6-2.1c0.7-0.4,1.2-1,1.9-1.3c1.5-0.7,3.5-0.5,5.1-0.6c2.1,0,4.2-0.1,6.3-0.4c1.1-0.2,2.2-0.4,3.3-0.3
				c1.7,0.2,3.3,1.1,4.9,1.6c2.1,0.6,4.3,0.6,6.5,0.1c1.9-0.4,3.7-1.1,5.4-1.9c0.4-0.2,0.8-0.5,1.2-0.7c0.3-0.2-0.4-0.3,0,0
				c2.4,1.5,4.6,3.5,6.9,5.2c3.1,2.4,6.2,4.7,9.2,7.1c3.1,2.5,5.8,5.5,8.3,8.7c3.6,4.5,6.8,9.2,9.4,14.3c2.6,5,4.2,10.3,6.1,15.5
				c1.3,3.7,2.9,7.5,5.5,10.4c2.8,3.1,6.5,5,10.4,6.4c3.5,1.3,7.1,2.1,10.7,2.7c1.8,0.3,3.4,1,5.1,1.6c1,0.4,2,0.7,3,1.1
				c-0.5-0.8-1.1-1.6-1.6-2.4c1,4.7,2,9.4,3,14.1c0.7,3.2,1.3,6.5,1.9,9.7c0.4,2,0.7,4,1.3,5.9c0.4,1.4,1,2.8,1.4,4.2
				c1.6,5.9,1.8,12.5,1.8,18.5c0,2.9-0.4,5.5-1,8.3c-0.3,1.2-0.3,2.5-0.7,3.7c-0.4,1.4-1.6,2.3-2.7,3c-0.6,0.4-1.3,0.5-1.8,1.1
				c-1.1,1.2-1.6,3-2.7,4.4c-1.9,2.5-4.3,4.8-6.7,6.9c-0.2,0.2-0.2,0.4-0.1,0.6c1.7,7.6,10.8,6.1,16.3,4c2-0.7,3.7-1.3,4.6-3.2
				c1-2.3,2.1-4.6,3.1-6.9c0.3-0.7-0.5-2-0.9-2.4c-0.4-0.4-0.4-0.7-0.2-1.3c0.3-0.9,1.3-0.9,1.7-1.5c-1.3,1.9-1.4-3.2-1.3-1.6
				c0,0.2,0.1,0.5,0.1,0.8c0.2,0.7,0.5,1.4,0.9,2.1c0.9,1.3,2,1.8,3.6,2c2.1,0.2,4.4,0.2,6.5,0.1c2-0.1,4-1.2,5.5-2.4
				c3.1-2.3,3.1-5.4,1.5-8.7c-0.8-1.6,0.5-3,2-3.8c0.7-0.4,1.8-0.4,2.3-1.1c0.6-1.1-0.2-3-0.5-4c-0.6-2.2-1.4-4.4-2.2-6.6
				c-1.8-5.2-3.6-10.5-4.1-16c-0.4-4.2-0.1-8.6-0.3-12.9c-0.2-6.7-0.5-13.4-1-20.1c-0.1,0.1-0.2,0.2-0.3,0.4
				c4.1-0.1,8.2,0.1,12.3,0.3c6.2,0.4,12.1,1.5,18.2,2.6c10,1.9,20,1.6,30.1,0.3c11.8-1.5,24.1-3.3,35.4-7.5
				c7.2-2.7,14.5-5.1,21.6-8.1c6.7-2.8,13.4-5.7,20.1-8.6c-0.3-0.2-0.6-0.3-0.9-0.5c8.1,9,19.4,15.5,29.8,21.3
				c1.7,0.9,3.3,1.8,5,2.7c0.4,0.2,0.8,0.4,1.2,0.6c0.4,0.3-0.1-0.2,0.5,0.4c3.9,3.6,8,7.4,10.9,12c1.8,2.9,2.4,6.4,3.5,9.6
				c1,2.8,2.2,5.6,2.8,8.6c1.2,5.9,1.1,12.1,1.1,18.1c0,3.1-0.1,6.2-0.3,9.4c-0.1,1.8-0.1,3.7-0.7,5.4c-0.5,1.5-1.7,2.7-2.3,4.3
				c-1,2.9-3.3,5.5-5.1,8c-0.6,0.9-1.3,1.8-2,2.7c-0.4,0.6-1.1,1.2-1.1,1.9c0,1.3,1.2,2.9,2,3.8c1.8,2,4.2,2.4,6.7,2
				c3.5-0.6,7-1.7,10.3-2.9c1.5-0.5,1.6-2.1,2-3.6c0.5-1.5,0.9-3,1.2-4.6c0.3-1.6,0.4-3,1.4-4.3c1.5-2.1,3.3-3.5,3-6.3
				c-0.3-2.6-1.1-5.3-1.5-7.9c-1-6.8-1.8-13.7-1.5-20.6c0.2-5.4,0.7-10.7,1.1-16.1c0.4-5.4,0.9-10.9,0.9-16.4c0-4.5-1.8-8-5.1-11.1
				c-3.2-3-6.6-6.3-8.8-10.2c-1.2-2-1.6-4.6-2.2-6.9c-0.8-3.4-1.5-6.8-1.9-10.2c-1.1-9.3,0-18.8,0.3-28.1c0.3-9,0.4-18,1.2-27
				c0.4-3.6,0.8-7.3,1.4-10.9c-0.6-0.6-1.2-1.1-1.8-1.7c1.2,4.7,2,9.2,2.3,14c0.3,4.2,0.6,8.3,0.9,12.5c0.6,8.5,1.2,17,2.5,25.4
				c1,6.2,2.1,12.4,3.5,18.5c0.8,3.4,1.4,6.7,1.6,10.2c0.6,8.5,4.3,15.8,9,22.8c3.2,4.8,6.3,9.9,7.8,15.6c0.3,1.2,0.6,2.5,0.7,3.8
				c0,0.4,0,0.8,0,1.1c0,0.2-0.1,0.2,0,0.1c-0.8,0.2,0.8,3,1.4,3.1c2.1,0.2,4.8-1.8,5.8-3.4c1-1.6,0.8-3.3,0.5-5.1
				c-0.3-1.9,0.7-3.6,1.9-5c0.3-0.4-0.2-1.4-0.4-1.7c-4.9-10.2-9.7-20.5-15.5-30.2c-0.2-0.3-0.8-1.2-1.2-0.7
				C531.6,428,532.4,429.4,532.6,429.7L532.6,429.7z"/>
		</g>
	</g>
</g>
<g>
	<g>
		<path class="st6" d="M129.8,151.8v-5.8l6.4-4.9v10.7H129.8z"/>
		<path class="st6" d="M154.4,179.7c-6.8,0-12.3-4.6-12.3-11.7v-21.9h6.5v21.7c0,3.8,2.2,6.1,5.8,6.1s5.8-2.3,5.8-6.1v-21.7h6.5V168
			C166.7,175,161.2,179.7,154.4,179.7z"/>
		<path class="st6" d="M187,179.4v-14.7c0-3.3-2.1-4.4-4-4.4c-1.9,0-4.1,1.1-4.1,4.4v14.7h-6.1V155h5.9v2.2c1.6-1.7,3.8-2.5,6.1-2.5
			c2.4,0,4.4,0.8,5.8,2.2c2,2,2.5,4.3,2.5,6.9v15.6H187z"/>
		<path class="st6" d="M221.5,174.5c-2.4,3.3-5.5,4.9-10.1,4.9h-12v-33.3h12c4.5,0,7.7,1.5,10.1,4.9c2.1,2.9,2.1,6.3,2.1,11.8
			C223.6,168.3,223.6,171.7,221.5,174.5z M215.8,153.9c-1.1-1.4-2.7-2.1-4.9-2.1h-5v21.7h5c2.2,0,3.8-0.7,4.9-2.1
			c1.2-1.5,1.4-3.6,1.4-8.8C217.1,157.5,217,155.4,215.8,153.9z"/>
		<path class="st6" d="M251.7,174.5c-2.4,3.3-5.5,4.9-10.1,4.9h-12v-33.3h12c4.5,0,7.7,1.5,10.1,4.9c2.1,2.9,2.1,6.3,2.1,11.8
			C253.8,168.3,253.8,171.7,251.7,174.5z M246,153.9c-1.1-1.4-2.7-2.1-4.9-2.1h-5v21.7h5c2.2,0,3.8-0.7,4.9-2.1
			c1.2-1.5,1.4-3.6,1.4-8.8C247.3,157.5,247.2,155.4,246,153.9z"/>
		<path class="st6" d="M259.8,179.4v-33.3h21.9v5.8h-15.4v7.8h13.2v5.8h-13.2v8.1h15.4v5.8H259.8z"/>
		<path class="st6" d="M305.2,179.4l-6.5-13.3H294v13.3h-6.5v-33.3h13.1c6.8,0,10.8,4.6,10.8,10.2c0,4.7-2.9,7.6-6.1,8.8l7.4,14.4
			H305.2z M300.1,151.9H294v8.8h6.1c2.9,0,4.7-1.8,4.7-4.4C304.8,153.7,303,151.9,300.1,151.9z"/>
		<path class="st6" d="M338.8,179.7c-3.8,0-6.6-1.3-8.9-3.5c-3.3-3.3-3.4-7.1-3.4-13.4c0-6.4,0-10.1,3.4-13.4
			c2.3-2.2,5.1-3.5,8.9-3.5c6.2,0,11,3.6,12.2,10.5h-6.6c-0.7-2.7-2.3-4.7-5.6-4.7c-1.8,0-3.2,0.7-4.2,1.7c-1.2,1.4-1.6,3-1.6,9.4
			c0,6.4,0.4,8,1.6,9.4c0.9,1.1,2.4,1.7,4.2,1.7c3.2,0,5-2,5.6-4.7h6.6C349.8,176.1,345,179.7,338.8,179.7z"/>
		<path class="st6" d="M375.6,176.2c-2.2,2.2-5.1,3.5-8.9,3.5c-3.8,0-6.7-1.3-8.9-3.5c-3.3-3.3-3.4-7.1-3.4-13.4
			c0-6.4,0-10.1,3.4-13.4c2.2-2.2,5.1-3.5,8.9-3.5c3.8,0,6.6,1.3,8.9,3.5c3.3,3.3,3.4,7.1,3.4,13.4
			C379,169.1,378.9,172.8,375.6,176.2z M370.9,153.4c-0.9-1.1-2.4-1.8-4.2-1.8s-3.2,0.7-4.2,1.8c-1.2,1.4-1.6,3-1.6,9.4
			c0,6.4,0.4,7.9,1.6,9.3c1,1.1,2.4,1.8,4.2,1.8s3.2-0.7,4.2-1.8c1.2-1.4,1.6-2.9,1.6-9.3C372.5,156.4,372.1,154.8,370.9,153.4z"/>
		<path class="st6" d="M404.7,179.4l-13.2-20.5v20.5H385v-33.3h5.8l13.2,20.4v-20.4h6.5v33.3H404.7z"/>
		<path class="st6" d="M430.4,151.9v27.5h-6.5v-27.5h-8.7v-5.8h23.9v5.8H430.4z"/>
		<path class="st6" d="M461.4,179.4l-6.5-13.3h-4.7v13.3h-6.5v-33.3h13.1c6.8,0,10.8,4.6,10.8,10.2c0,4.7-2.9,7.6-6.1,8.8l7.4,14.4
			H461.4z M456.3,151.9h-6.1v8.8h6.1c2.9,0,4.7-1.8,4.7-4.4C461.1,153.7,459.2,151.9,456.3,151.9z"/>
		<path class="st6" d="M493.3,176.2c-2.2,2.2-5.1,3.5-8.9,3.5c-3.8,0-6.7-1.3-8.9-3.5c-3.3-3.3-3.4-7.1-3.4-13.4
			c0-6.4,0-10.1,3.4-13.4c2.2-2.2,5.1-3.5,8.9-3.5c3.8,0,6.6,1.3,8.9,3.5c3.3,3.3,3.4,7.1,3.4,13.4
			C496.7,169.1,496.6,172.8,493.3,176.2z M488.5,153.4c-0.9-1.1-2.4-1.8-4.2-1.8s-3.2,0.7-4.2,1.8c-1.2,1.4-1.6,3-1.6,9.4
			c0,6.4,0.4,7.9,1.6,9.3c1,1.1,2.4,1.8,4.2,1.8s3.2-0.7,4.2-1.8c1.2-1.4,1.6-2.9,1.6-9.3C490.2,156.4,489.8,154.8,488.5,153.4z"/>
		<path class="st6" d="M502.7,179.4v-33.3h6.5v27.5h15.1v5.8H502.7z"/>
		<path class="st6" d="M533.9,161.2c-4.2,0-7.6-3.4-7.6-7.6s3.4-7.6,7.6-7.6s7.6,3.4,7.6,7.6S538.1,161.2,533.9,161.2z M533.9,147.7
			c-3.3,0-5.8,2.5-5.8,5.9s2.5,5.9,5.8,5.9s5.8-2.5,5.8-5.9S537.2,147.7,533.9,147.7z M535.3,157.7l-1.5-3.1h-0.9v3.1h-1.8v-8.1h3.3
			c1.6,0,2.7,1.2,2.7,2.5c0,1.1-0.7,1.8-1.5,2.1l1.7,3.4H535.3z M534.2,151.1h-1.3v2.1h1.3c0.7,0,1.1-0.5,1.1-1
			S534.9,151.1,534.2,151.1z"/>
		<path class="st6" d="M578.6,174.5c-2.4,3.3-5.5,4.9-10.1,4.9h-12v-33.3h12c4.5,0,7.7,1.5,10.1,4.9c2.1,2.9,2.1,6.3,2.1,11.8
			C580.7,168.3,580.7,171.7,578.6,174.5z M572.9,153.9c-1.1-1.4-2.7-2.1-4.9-2.1h-5v21.7h5c2.2,0,3.8-0.7,4.9-2.1
			c1.2-1.5,1.4-3.6,1.4-8.8C574.2,157.5,574.1,155.4,572.9,153.9z"/>
		<path class="st6" d="M597.9,179.7c-3.8,0-6.6-1.3-8.9-3.5c-3.3-3.3-3.4-7.1-3.4-13.4c0-6.4,0-10.1,3.4-13.4
			c2.3-2.2,5.1-3.5,8.9-3.5c6.2,0,11,3.6,12.2,10.5h-6.6c-0.7-2.7-2.3-4.7-5.6-4.7c-1.8,0-3.2,0.7-4.2,1.7c-1.2,1.4-1.6,3-1.6,9.4
			c0,6.4,0.4,8,1.6,9.4c0.9,1.1,2.4,1.7,4.2,1.7c3.2,0,5-2,5.6-4.7h6.6C608.9,176.1,604.1,179.7,597.9,179.7z"/>
		<path class="st6" d="M614.4,156.7v-10.6h6.4v5.8L614.4,156.7z"/>
		<path class="st6" d="M157.3,221.3c-2.4,3.3-5.5,4.9-10.1,4.9h-12v-33.3h12c4.5,0,7.7,1.5,10.1,4.9c2.1,2.9,2.1,6.3,2.1,11.8
			C159.4,215.1,159.4,218.5,157.3,221.3z M151.5,200.7c-1.1-1.4-2.7-2.1-4.9-2.1h-5v21.7h5c2.2,0,3.8-0.7,4.9-2.1
			c1.2-1.5,1.4-3.6,1.4-8.8C152.9,204.3,152.8,202.2,151.5,200.7z"/>
		<path class="st6" d="M183.1,226.2l-6.5-13.3h-4.7v13.3h-6.5v-33.3h13.1c6.8,0,10.8,4.6,10.8,10.2c0,4.7-2.9,7.6-6.1,8.8l7.4,14.4
			H183.1z M178,198.7h-6.1v8.8h6.1c2.9,0,4.7-1.8,4.7-4.4C182.8,200.5,180.9,198.7,178,198.7z"/>
		<path class="st6" d="M207.8,212.5v13.7h-6.5v-13.7l-10-19.7h7.1l6.2,13.4l6.1-13.4h7.1L207.8,212.5z"/>
		<path class="st6" d="M242.6,226.5c-3.8,0-6.6-1.3-8.9-3.5c-3.3-3.3-3.4-7.1-3.4-13.4c0-6.4,0-10.1,3.4-13.4
			c2.3-2.2,5.1-3.5,8.9-3.5c6.2,0,11,3.6,12.2,10.5h-6.6c-0.7-2.7-2.3-4.7-5.6-4.7c-1.8,0-3.2,0.7-4.2,1.7c-1.2,1.4-1.6,3-1.6,9.4
			c0,6.4,0.4,8,1.6,9.4c0.9,1.1,2.4,1.7,4.2,1.7c3.2,0,5-2,5.6-4.7h6.6C253.6,222.9,248.8,226.5,242.6,226.5z"/>
		<path class="st6" d="M279.4,223c-2.2,2.2-5.1,3.5-8.9,3.5c-3.8,0-6.7-1.3-8.9-3.5c-3.3-3.3-3.4-7.1-3.4-13.4
			c0-6.4,0-10.1,3.4-13.4c2.2-2.2,5.1-3.5,8.9-3.5c3.8,0,6.6,1.3,8.9,3.5c3.3,3.3,3.4,7.1,3.4,13.4
			C282.8,215.9,282.7,219.6,279.4,223z M274.7,200.2c-0.9-1.1-2.4-1.8-4.2-1.8s-3.2,0.7-4.2,1.8c-1.2,1.4-1.6,3-1.6,9.4
			c0,6.4,0.4,7.9,1.6,9.3c1,1.1,2.4,1.8,4.2,1.8s3.2-0.7,4.2-1.8c1.2-1.4,1.6-2.9,1.6-9.3C276.3,203.2,275.9,201.6,274.7,200.2z"/>
		<path class="st6" d="M316.8,226.2h-5.4l-6.1-20.2l-6.1,20.2h-5.4l-8.9-33.3h6.8l5.1,21l6.1-21h4.9l6.1,21l5.2-21h6.8L316.8,226.2z
			"/>
		<path class="st6" d="M352.1,198.7v27.5h-6.5v-27.5h-8.7v-5.8h23.9v5.8H352.1z"/>
		<path class="st6" d="M383.2,226.2l-6.5-13.3H372v13.3h-6.5v-33.3h13.1c6.8,0,10.8,4.6,10.8,10.2c0,4.7-2.9,7.6-6.1,8.8l7.4,14.4
			H383.2z M378.1,198.7H372v8.8h6.1c2.9,0,4.7-1.8,4.7-4.4C382.8,200.5,381,198.7,378.1,198.7z"/>
		<path class="st6" d="M395.4,226.2v-33.3h21.9v5.8h-15.4v7.8h13.2v5.8h-13.2v8.1h15.4v5.8H395.4z"/>
		<path class="st6" d="M442,226.2l-2-5.9h-11.8l-2,5.9h-6.8l12.1-33.3h5.1l12.2,33.3H442z M434.3,202.7l-4.2,12.1h8.3L434.3,202.7z"
			/>
		<path class="st6" d="M461.7,198.7v27.5h-6.5v-27.5h-8.7v-5.8h23.9v5.8H461.7z"/>
		<path class="st6" d="M498.8,226.2v-19.4l-6.4,12.6H488l-6.4-12.6v19.4h-6.5v-33.3h6.4l8.7,18l8.7-18h6.4v33.3H498.8z"/>
		<path class="st6" d="M512.4,226.2v-33.3h21.9v5.8h-15.4v7.8H532v5.8h-13.2v8.1h15.4v5.8H512.4z"/>
		<path class="st6" d="M559.8,226.2l-13.2-20.5v20.5H540v-33.3h5.8l13.2,20.4v-20.4h6.5v33.3H559.8z"/>
		<path class="st6" d="M585.4,198.7v27.5h-6.5v-27.5h-8.7v-5.8h23.9v5.8H585.4z"/>
		<path class="st6" d="M615.4,207.8l-3.5,4.6c-0.5,0.6-0.8,1.6-0.8,2.4v1H605v-1.4c0-2,0.6-3.3,1.8-4.9l3.5-4.4
			c0.7-1,1.4-2.1,1.4-3.1c0-2.2-1.5-3.8-3.8-3.8c-2.5,0-3.7,1.7-3.7,3.9h-6.1c0-5.8,4.4-9.4,9.8-9.4c5.3,0,9.9,3.4,9.9,9.4
			C617.6,204.3,616.7,206.1,615.4,207.8z M604.8,226.2V220h6.5v6.2H604.8z"/>
	</g>
	<g>
		<path class="st10" d="M316.2,128v-16.9h-17.6V128h-4V91h4v16.6h17.6V91h4v37H316.2z"/>
		<path class="st10" d="M351.6,124.7c-2.3,2.3-5.4,3.6-9.2,3.6c-3.8,0-7-1.4-9.3-3.6c-3.5-3.5-3.7-6.7-3.7-15.2s0.2-11.7,3.7-15.2
			c2.3-2.3,5.4-3.6,9.3-3.6c3.8,0,6.9,1.4,9.2,3.6c3.5,3.5,3.7,6.7,3.7,15.2S355.1,121.2,351.6,124.7z M348.8,96.8
			c-1.7-1.7-3.9-2.6-6.4-2.6s-4.7,0.9-6.4,2.6c-2.3,2.4-2.6,5.1-2.6,12.7s0.3,10.3,2.6,12.7c1.7,1.7,3.9,2.6,6.4,2.6
			s4.7-0.9,6.4-2.6c2.3-2.4,2.6-5.1,2.6-12.7S351.2,99.2,348.8,96.8z"/>
		<path class="st10" d="M392.9,128h-3.7L381,98.3l-8.2,29.6h-3.7l-9.5-37h4.2l7.2,29.8l8.2-29.8h3.5l8.2,29.8l7.2-29.8h4.2
			L392.9,128z"/>
		<path class="st10" d="M421.5,128V91h4v37H421.5z"/>
		<path class="st10" d="M445.7,128.3c-5.5,0-9.2-1.4-12.6-4.9l2.7-2.7c3.1,3.1,5.9,4,10.1,4c5.5,0,8.8-2.5,8.8-6.9
			c0-2-0.6-3.5-1.8-4.6c-1.1-1-2.2-1.4-4.8-1.8l-4.3-0.6c-2.9-0.5-5.1-1.4-6.8-2.8c-1.9-1.7-2.9-4-2.9-7c0-6.3,4.5-10.4,11.9-10.4
			c4.7,0,7.9,1.2,11,4.1l-2.5,2.5c-2.2-2.1-4.8-3.2-8.6-3.2c-5,0-7.9,2.8-7.9,6.9c0,1.8,0.5,3.3,1.7,4.3c1.1,1,2.9,1.6,4.8,1.9
			l4.3,0.7c3.4,0.5,5,1.1,6.7,2.7c2,1.7,3.1,4.2,3.1,7.3C458.5,124.3,453.4,128.3,445.7,128.3z"/>
	</g>
	<g>
		<path class="st10" d="M280.5,280h-3.7l-8.2-29.6l-8.2,29.6h-3.7l-9.5-37h4.2l7.2,29.8l8.2-29.8h3.5l8.2,29.8l7.2-29.8h4.2
			L280.5,280z"/>
		<path class="st10" d="M316.4,276.7c-2.3,2.3-5.4,3.6-9.2,3.6c-3.8,0-7-1.4-9.3-3.6c-3.5-3.5-3.7-6.7-3.7-15.2s0.2-11.7,3.7-15.2
			c2.3-2.3,5.4-3.6,9.3-3.6c3.8,0,6.9,1.4,9.2,3.6c3.5,3.5,3.7,6.7,3.7,15.2S319.9,273.2,316.4,276.7z M313.6,248.8
			c-1.7-1.7-3.9-2.6-6.4-2.6s-4.7,0.9-6.4,2.6c-2.3,2.4-2.6,5.1-2.6,12.7s0.3,10.3,2.6,12.7c1.7,1.7,3.9,2.6,6.4,2.6
			s4.7-0.9,6.4-2.6c2.3-2.4,2.6-5.1,2.6-12.7S315.9,251.2,313.6,248.8z"/>
		<path class="st10" d="M350.7,280l-8.4-16.4h-8.9V280h-4v-37h14.2c6.4,0,11,3.9,11,10.3c0,5.4-3.3,8.9-8.1,9.9l8.8,16.8H350.7z
			 M343.3,246.5h-9.9v13.6h9.9c4.3,0,7.4-2.2,7.4-6.8C350.6,248.8,347.6,246.5,343.3,246.5z"/>
		<path class="st10" d="M386.6,280l-11.3-19.7l-7.8,9.4V280h-4v-37h4v21.3l17.3-21.3h4.8l-11.6,14.3l13.3,22.7H386.6z"/>
		<path class="st10" d="M397.3,280v-37h4v37H397.3z"/>
		<path class="st10" d="M435.6,280L416,250.3V280h-4v-37h3.7l19.7,29.6V243h4v37H435.6z"/>
		<path class="st10" d="M471.5,276c-2.6,2.9-6.1,4.3-9.9,4.3c-3.8,0-7-1.4-9.3-3.6c-3.5-3.5-3.7-6.7-3.7-15.2s0.2-11.7,3.7-15.2
			c2.3-2.3,5.4-3.6,9.3-3.6c7,0,11.9,4.7,12.9,11.1h-4c-1-4.7-4.4-7.5-9-7.5c-2.5,0-4.7,0.9-6.4,2.6c-2.3,2.4-2.6,5.1-2.6,12.7
			s0.3,10.3,2.6,12.7c1.7,1.7,3.8,2.6,6.4,2.6c2.7,0,5.3-1.1,7-3.2c1.5-1.9,2.1-3.9,2.1-6.7V264h-9.1v-3.4h13.1v5.9
			C474.7,270.8,473.9,273.4,471.5,276z"/>
		<path class="st10" d="M499.6,258.4l-4.3,6.1c-0.6,0.9-0.9,2.2-0.9,3v2h-3.7v-2.1c0-2,0.5-3.3,1.6-4.9l4.2-6.1
			c1-1.5,1.7-2.7,1.7-4.4c0-3.5-2.5-6.1-6-6.1c-3.7,0-6,2.9-6,6.2h-3.7c0-5.3,4.2-9.5,9.8-9.5c5.5,0,9.7,3.9,9.7,9.5
			C502,254.6,501,256.4,499.6,258.4z M490.3,280v-4.4h4.5v4.4H490.3z"/>
	</g>
</g>
</svg>
