<?xml version="1.0" encoding="utf-8"?>
<!-- Generator: Adobe Illustrator 25.0.0, SVG Export Plug-In . SVG Version: 6.00 Build 0)  -->
<svg version="1.1" id="Layer_3" xmlns="http://www.w3.org/2000/svg" xmlns:xlink="http://www.w3.org/1999/xlink" x="0px" y="0px"
	 viewBox="0 0 750 601" style="enable-background:new 0 0 750 601;" xml:space="preserve">
<style type="text/css">
	.st0{clip-path:url(#SVGID_2_);}
	.st1{fill:#2B8E81;}
	.st2{display:none;}
	.st3{display:inline;}
	.st4{display:inline;clip-path:url(#SVGID_4_);}
	.st5{fill:#207167;}
	.st6{fill:#FFFFFF;}
	.st7{fill:none;stroke:#FFFFFF;stroke-width:2.9636;stroke-miterlimit:10;}
	.st8{fill:#DE8C41;}
	.st9{fill:#97CABD;}
	.st10{fill:#199793;}
</style>
<g>
	<defs>
		<rect id="SVGID_1_" width="750" height="1334"/>
	</defs>
	<clipPath id="SVGID_2_">
		<use xlink:href="#SVGID_1_"  style="overflow:visible;"/>
	</clipPath>
	<g class="st0">
		<g>
			<g>
				<path class="st1" d="M347.2-1.3C198.9-15.3,82.9-140.1,82.9-292.1C-78.4-292.1-209.2-161.3-209.2,0
					c0,161.3,130.8,292.1,292.1,292.1c0-152,116-276.8,264.3-290.8V-1.3z"/>
				<path class="st1" d="M82.9,292.1c0,161.3,130.8,292.1,292.1,292.1c161.4,0,292.3-130.8,292.3-292.1H82.9z"/>
				<path class="st1" d="M82.9-292.1c0-161.3,130.8-292.1,292.1-292.1c161.4,0,292.3,130.8,292.3,292.1H82.9z"/>
				<path class="st1" d="M402.8,1.4c148.3,14,264.3,138.8,264.3,290.8c161.3,0,292.1-130.9,292.1-292.1
					c0-161.3-130.8-292.2-292.1-292.2c0,152-116.1,276.9-264.3,290.9V1.4z"/>
			</g>
			<g class="st2">
				<defs>
					<path id="SVGID_3_" d="M167-87c-52-52.8-84.1-125.2-84.1-205.1C-78.4-292.1-209.2-161.3-209.2,0
						c0,161.3,130.8,292.1,292.1,292.1c0-80.6,32.6-153.5,85.3-206.3C168.7,86,168.7-87.4,167-87z"/>
				</defs>
				<clipPath id="SVGID_4_" class="st3">
					<use xlink:href="#SVGID_3_"  style="overflow:visible;"/>
				</clipPath>
				<g class="st4">
					<g>
						<g>
							<path class="st5" d="M-11.8-92.2c0,0,18.6,78.2,43.8,74.6s-3.6-92.3-3.6-92.3"/>
							<g>
								<path class="st6" d="M-17.8-91.7c0.8,3.3,1.7,6.6,2.6,10c2,7,4.2,13.9,6.7,20.8c2.9,8.1,6.2,16.1,10.2,23.6
									C5.5-30.2,10-23.2,16.3-18c6,4.9,14.2,6.8,21.4,3.5c5.8-2.6,8.6-8.8,9.7-14.7c1.4-7.5,1-15.2,0.2-22.7
									c-0.9-8.4-2.4-16.7-4.2-25c-1.7-7.6-3.6-15.2-5.7-22.7c-1.1-3.9-2.2-7.7-3.4-11.5c-0.1-0.2-0.1-0.4-0.2-0.5
									c-0.4-1.2-1.9-2.1-3-2.5c-1.4-0.5-3.3-0.5-4.6-0.1c-2.7,0.9-4.6,3.1-3.7,6c0.8,2.6,1.6,5.1,2.3,7.7c0.8,2.8,1.6,5.7,2.4,8.5
									c0.3,1.2-0.3-1.1,0,0.1c0.1,0.4,0.2,0.9,0.3,1.3c0.2,0.9,0.5,1.8,0.7,2.7c0.5,1.8,0.9,3.6,1.3,5.4c1.9,8,3.6,16.1,4.8,24.2
									c1.1,7.5,2,15.2,1.6,22.8c0,0.4,0,0.8-0.1,1.2c0,0.2-0.1,1,0,0.1c0.1-0.9,0-0.1,0,0.1c-0.1,0.8-0.2,1.6-0.3,2.4
									c-0.2,1.4-0.5,2.8-0.9,4.2c-0.2,0.6-0.4,1.2-0.6,1.8c-0.1,0.1-0.1,0.3-0.2,0.4c-0.2,0.6,0.6-1.2,0.3-0.6
									c-0.1,0.3-0.3,0.6-0.4,0.8c-0.3,0.5-0.6,1-0.9,1.5c-0.1,0.2-0.3,0.4-0.5,0.6c-0.2,0.3,1-1.1,0.5-0.6
									c-0.1,0.1-0.2,0.2-0.3,0.3c-0.2,0.2-0.4,0.4-0.5,0.5c-0.1,0.1-0.2,0.2-0.3,0.2c-0.7,0.6,0.5-0.5,0.7-0.4
									c-0.1,0-1.2,0.7-1.3,0.8c-0.5,0.3,1.7-0.6,0.6-0.3c-0.3,0.1-0.5,0.2-0.8,0.2c-1.2,0.4,1.7-0.2,0.6-0.1c-0.3,0-0.7,0.1-1,0.1
									c-0.2,0-0.3,0-0.5,0c-0.9,0.1,0.9,0,1,0c-0.3-0.1-0.7,0-1-0.1c-0.3,0-0.6-0.1-0.9-0.1c-1.1-0.2,1.7,0.5,0.3,0.1
									c-0.6-0.2-1.2-0.4-1.8-0.6c-1.2-0.5,1.1,0.6,0.3,0.1c-0.3-0.2-0.6-0.3-0.9-0.5c-0.6-0.4-1.2-0.8-1.8-1.2
									c-0.3-0.2-0.6-0.4-0.8-0.6c-0.7-0.5,0.7,0.6,0.5,0.4c-0.2-0.1-0.3-0.3-0.5-0.4c-1.2-1.1-2.4-2.3-3.4-3.5
									c-1.2-1.4-2.2-2.8-3.3-4.2c-0.1-0.2-0.2-0.4-0.4-0.5c-0.4-0.6,0-0.1,0.2,0.3c-0.3-0.4-0.5-0.8-0.8-1.2
									c-0.5-0.8-1.1-1.7-1.6-2.5C11-44,7.6-51.7,4.6-59.4C1.9-66.5-0.5-73.7-2.7-81c-0.8-2.6-1.5-5.2-2.2-7.8
									c-0.2-0.7,0.3,1,0.2,0.7c0-0.1-0.1-0.2-0.1-0.3C-4.8-88.8-4.9-89-5-89.2c-0.1-0.4-0.2-0.8-0.3-1.2c-0.1-0.6-0.3-1.1-0.4-1.7
									c0-0.2-0.1-0.4-0.1-0.6c-0.7-2.9-3.5-4.4-6.4-4.1c-1.5,0.2-3,0.6-4.1,1.7C-17.2-94.2-18.1-92.9-17.8-91.7L-17.8-91.7z"/>
							</g>
						</g>
						<g>
							<path class="st5" d="M-120.5-133.3c0,0-32.1,49.7-28.5,60.5c3.6,10.8,26.3,1.6,58.7-36.4"/>
							<g>
								<path class="st6" d="M-126.5-133c-3.3,5.1-6.5,10.3-9.6,15.6c-5.6,9.6-11.2,19.3-15.5,29.6c-1.6,3.8-3.2,7.7-3.7,11.8
									c-0.3,2.6,0.2,5,2.3,6.7c1,0.8,2.4,1.2,3.6,1.4c3.8,0.6,7.8,0.4,11.6-0.1c4.9-0.7,9.5-2.6,13.8-5.1
									c5.5-3.2,10.6-7.2,15.4-11.4c6.7-5.8,12.9-12.2,18.8-18.8c1.7-1.9,3.4-3.9,5.1-5.8c0.4-0.4-0.2-0.5-0.6-0.6
									c-1.1-0.3-2.5-0.3-3.6-0.2c-1.5,0-3.1,0.1-4.6,0.3c-0.7,0.1-2.3,0.1-2.7,0.6c-10.4,12.2-21.7,24.2-35,33.3
									c-2.1,1.5-4.4,2.8-6.7,4c-1,0.5-1.9,1-2.9,1.4c-0.2,0.1-0.5,0.2-0.7,0.3c0.5-0.2-0.1,0-0.3,0.1c-0.4,0.2-0.9,0.3-1.3,0.5
									c-0.4,0.1-0.8,0.2-1.2,0.3c-0.7,0.2,0.8-0.1,0.2-0.1c-0.2,0-0.4,0.1-0.7,0.1c-0.3,0.1,1.4-0.2,0.5-0.1
									c-0.8,0.1,1.5-0.1,0.8-0.1c-0.7,0.1,1.4-0.1,1.2-0.1c-0.7,0,1.5,0,1.2,0c-1,0,1.5,0.1,0.7,0c-0.2,0,1.5,0.1,0.7,0
									c-0.4,0,1.1,0.2,0.4,0.1c-0.1,0-0.3-0.1-0.4-0.1c-0.5-0.1,0.4,0.2,0.1,0c-0.5-0.2-1-0.4-1.5-0.7c-0.8-0.5-1.3-1.2-1.8-2.3
									c-0.5-1.1-0.6-2.3-0.5-3.6c0.3-3.8,1.8-7.6,3.2-11.1c4-9.9,9.3-19.3,14.6-28.5c2.3-3.9,4.6-7.8,7-11.7
									c0.8-1.3,1.6-2.6,2.4-3.9c0.4-0.6,1.1-1.4,1.3-2.1c0-0.1,0.1-0.2,0.2-0.3c0.2-0.3-2.1-0.6-1.8-0.5c-1.4-0.2-2.9-0.1-4.2-0.1
									c-1.4,0.1-2.8,0.2-4.2,0.4C-125.3-133.6-126.2-133.5-126.5-133L-126.5-133z"/>
							</g>
						</g>
						<g>
							<path class="st5" d="M-155.1-208.2c0,0,16.8,101.9,94.7,113.9s91.1-9.6,118.7-24s55.2-63.6,57.6-93.5"/>
							<g>
								<path class="st6" d="M-159.9-211.4c0.6,3.7,1.5,7.4,2.5,11.1c2.4,9.1,5.3,18.1,8.9,26.8c4.7,11.5,10.6,22.6,17.8,32.9
									c8.5,12.2,19.1,22.9,31.3,31.5c6.9,4.9,14.3,9.1,22.2,12.4c7.4,3.1,15.1,5,23,6.2c18.9,2.8,38.3,4.6,57.3,2.1
									c11.6-1.5,22.8-5,33.1-10.4c8.5-4.5,16.4-10.2,24.8-14.8c3-1.6,5.9-3.2,8.7-5.2c3.3-2.4,6.4-5,9.3-7.9
									c6.6-6.4,12.3-13.6,17.4-21.2c10.1-15,18.5-32,22.6-49.8c0.8-3.5,1.4-7.1,1.7-10.7c0-0.6-0.7-1.2-1-1.6
									c-1-1-2.2-1.9-3.3-2.7c-1.2-0.8-2.3-1.6-3.6-2.2c-0.2-0.1-1.8-0.8-1.8-0.5c-0.6,7.8-2.7,15.5-5.3,22.9
									c-3,8.7-6.9,17-11.4,25.1c-4.5,8.1-9.7,16-15.5,23.2c-5.3,6.6-11.3,12.8-18.1,17.8c-4.7,3.5-10,6-15,9
									c-4,2.4-7.9,5-11.9,7.4c-8.9,5.4-18.3,9.9-28.5,12.4c-15.5,3.8-31.8,3.7-47.7,2.4C-52.5-96-62.9-97-72.7-99.4
									c-3.5-0.8-6.9-1.9-10.3-3.2c-0.9-0.3-1.7-0.7-2.5-1c-0.4-0.2-0.7-0.3-1.1-0.5c-0.6-0.3-0.1,0,0,0c-0.3-0.1-0.5-0.2-0.8-0.4
									c-1.6-0.7-3.2-1.6-4.8-2.4c-0.3-0.2-0.5-0.5,0.3,0.2c-0.1-0.1-0.4-0.2-0.5-0.3c-0.4-0.2-0.8-0.4-1.2-0.7
									c-0.4-0.2-0.8-0.4-1.1-0.7c-0.4-0.2-1.9-1.2-0.3-0.2c-0.7-0.4-1.3-0.8-2-1.3c-0.2-0.1-1.6-1.1-0.5-0.4
									c1,0.7-0.4-0.3-0.7-0.5c-0.4-0.2-0.7-0.5-1.1-0.8c-0.4-0.3-1.5-1.2,0.1,0.1c-0.7-0.5-1.4-1-2.1-1.6c-0.3-0.3-0.7-0.5-1-0.8
									c-0.6-0.5,1.1,0.9,0.3,0.3c-0.1-0.1-0.3-0.2-0.4-0.4c-0.7-0.5-1.3-1.1-1.9-1.7c-0.3-0.3-0.6-0.6-1-0.9
									c-0.8-0.7,0.7,0.7-0.2-0.2c-0.6-0.6-1.2-1.2-1.8-1.8c-1.2-1.2-2.4-2.4-3.6-3.6c0.6,0.6-0.1-0.1-0.3-0.3
									c-0.3-0.3-0.6-0.6-0.8-0.9c-0.6-0.6-1.1-1.3-1.7-1.9c-1.1-1.3-2.1-2.5-3.2-3.9c-7.7-9.7-13.9-20.4-19.1-31.8
									c-4.2-9.2-7.7-18.7-10.4-28.5c-1.4-5-2.7-10.1-3.7-15.3c0-0.2-0.1-0.5-0.1-0.7c-0.1-0.6-1.6-1.8-1.9-2.1
									c-1.2-1-2.4-1.9-3.7-2.8c-1-0.6-2-1.3-3.2-1.7C-159.4-211.7-160-212-159.9-211.4L-159.9-211.4z"/>
							</g>
						</g>
						<g>
							<path class="st5" d="M-72.9-115.3c0,0-26.4,89.9,1.2,94.7s43.2-92.3,43.2-92.3"/>
							<g>
								<path class="st6" d="M-78.7-114.5c-0.9,3.2-1.8,6.5-2.6,9.8c-1.9,7.7-3.7,15.5-5.1,23.4c-1.7,9.2-3,18.6-3.5,28
									c-0.4,8-0.4,16.7,2.3,24.4c1,2.9,2.6,6,4.9,8.1c2.8,2.6,6.3,3.9,10.1,4.2c8,0.6,15.5-4.2,20.5-10.1
									c5.4-6.4,9.1-14.1,12.2-21.9c3.6-8.9,6.5-18.1,9-27.4c2.2-7.9,4-15.9,5.7-24c0.9-4.3,1.7-8.7,2.5-13.1
									c0-0.2,0.1-0.4,0.1-0.6c0.4-2.7-3.4-3.1-5.3-2.8c-2.3,0.4-5.9,1.8-6.3,4.5c-0.5,3-1,5.9-1.6,8.8c-1.4,7.2-3,14.4-4.7,21.5
									c-1.1,4.3-2.2,8.7-3.5,13c-0.6,2.2-1.3,4.4-2,6.6c-0.4,1.1-0.7,2.3-1.1,3.4c-0.1,0.2-0.2,0.5-0.2,0.7
									c-0.2,0.5-0.2,0.7,0,0.1c-0.2,0.6-0.4,1.2-0.6,1.7c-2.8,8-6,15.9-10.6,23.1c-0.5,0.8-1,1.6-1.6,2.3
									c-0.1,0.2-0.2,0.3-0.3,0.5c0,0,0.8-1,0.4-0.5c-0.1,0.1-0.1,0.1-0.2,0.2c-0.3,0.4-0.5,0.7-0.8,1.1c-1,1.2-2,2.4-3.2,3.5
									c-0.1,0.1-0.3,0.2-0.4,0.4c-0.2,0.2,1.2-1,0.5-0.4c-0.3,0.2-0.6,0.5-0.9,0.7c-0.3,0.2-0.5,0.4-0.8,0.6
									c-0.1,0.1-0.3,0.2-0.4,0.3c-0.8,0.6,0.8-0.4,0.6-0.4c-0.6,0.3-1.2,0.6-1.8,0.9c-0.8,0.4,1.7-0.6,0.9-0.4
									c-0.2,0-0.3,0.1-0.4,0.2c-0.3,0.1-0.6,0.2-0.9,0.3c1.5-0.5,1.5-0.3,0.5-0.1c-0.2,0-0.3,0-0.5,0.1c-0.9,0.1,0.6-0.1,0.8,0
									c-0.3-0.1-1.8,0.2-1.9-0.1c0,0,1.6,0.3,0.7,0.1c-0.2,0-0.3-0.1-0.5-0.1c-0.3-0.1-0.7-0.2-1-0.3c-1.1-0.3,1.1,0.5,0,0
									c-0.3-0.1-0.6-0.3-0.9-0.4c-0.3-0.1-0.6-0.3-0.8-0.5c-0.1-0.1-0.3-0.2-0.4-0.3c-0.6-0.4,0.8,0.7,0.3,0.2
									c-0.5-0.4-1-0.8-1.4-1.3c-0.5-0.5-0.9-1-1.2-1.6c-0.2-0.3-0.4-0.6-0.6-0.9c-0.1-0.1,0.5,0.9,0.1,0.2
									c-0.1-0.2-0.2-0.4-0.3-0.5c-1.5-2.9-2.3-6.2-2.8-9.5c-0.1-0.9-0.3-1.8-0.4-2.8c-0.1-0.5-0.1-1-0.1-1.4
									c0-0.1-0.1-0.7-0.1-0.7c0,0,0,0.8,0,0.4c0-0.1,0-0.3,0-0.4c-0.1-2.1-0.2-4.2-0.2-6.3c0.1-9.1,1.2-18.2,2.7-27.2
									c1.4-8.2,3.1-16.4,5-24.5c1.1-4.5,2.2-9,3.5-13.5c0.1-0.2,0.1-0.4,0.2-0.6c0.3-1-0.6-2-1.4-2.4c-1.1-0.6-2.7-0.7-3.9-0.5
									C-75-118.5-77.9-117.2-78.7-114.5L-78.7-114.5z"/>
							</g>
						</g>
						<g>
							<path class="st5" d="M35-129.7c0,0,49.2,65.9,67.1,58.8c18-7.2-34.8-87.5-34.8-87.5"/>
							<g>
								<path class="st6" d="M29.2-129.1c2.1,2.8,4.3,5.6,6.5,8.3c4.7,6,9.6,11.8,14.7,17.6c5.9,6.7,12.1,13.3,18.8,19.4
									c5.7,5.2,11.9,10.5,19,13.7c3.8,1.7,7.7,2.8,11.9,2.7c3.6-0.1,7.3-1,9.8-3.8c3.2-3.7,2.1-9.7,1.1-13.9
									c-1.7-7.3-4.6-14.2-7.7-20.9c-3.6-7.8-7.6-15.3-11.8-22.8c-3.7-6.6-7.5-13-11.4-19.4c-2.1-3.4-4.3-6.8-6.4-10.2
									c-0.1-0.2-0.2-0.3-0.3-0.5c-1.4-2.2-4.9-2.6-7.3-2.4c-1.2,0.1-5.8,1.2-4.3,3.5c1.5,2.3,2.9,4.6,4.4,6.9
									c3.5,5.6,7,11.3,10.3,17.1c4.2,7.2,8.2,14.4,11.9,21.8c3.5,7,6.8,14.1,9.3,21.5c0.5,1.6,1,3.1,1.4,4.7
									c0.1,0.3,0.2,0.7,0.3,1c0.2,0.6-0.1-0.3,0-0.1c0,0.2,0.1,0.4,0.1,0.6c0.1,0.7,0.3,1.4,0.4,2.1c0.4,2.2,0.5,4.6,0,6.8
									c0,0.1-0.1,0.2-0.1,0.3c-0.1,0.5,0-0.3,0.1-0.4c-0.1,0.1-0.2,0.5-0.3,0.7c-0.2,0.4-0.4,0.7-0.6,1.1
									c-0.1,0.2-0.3,0.3-0.4,0.5c-0.2,0.3,0.7-0.6,0.4-0.4c-0.1,0.1-0.2,0.2-0.2,0.2c-0.2,0.1-0.3,0.2-0.5,0.4
									c-0.7,0.5,1.1-0.5,0.3-0.2c-0.2,0.1-0.4,0.2-0.6,0.2c-0.7,0.3,1.3-0.3,0.7-0.2c-0.1,0-0.3,0.1-0.4,0.1
									c-1.1,0.3,1.2-0.1,0.6-0.1c-0.4,0-1.5,0.1-0.1,0c1.4,0,0.3,0,0,0c-1.1,0,1.9,0.3,0.5,0.1c-0.3,0-0.6-0.1-0.8-0.1
									c-1.1-0.2,1.6,0.5,0.4,0.1c-0.6-0.2-1.3-0.4-1.9-0.6c-0.2-0.1-0.3-0.1-0.5-0.2c-0.6-0.2,1.3,0.6,0.5,0.2
									c-0.3-0.2-0.7-0.3-1-0.5c-1.5-0.7-2.9-1.5-4.2-2.4c-0.3-0.2-0.7-0.4-1-0.7c-0.2-0.1-0.3-0.2-0.5-0.3c-0.8-0.6,0.5,0.4,0.1,0
									c-0.8-0.5-1.5-1.1-2.3-1.7c-1.6-1.2-3.1-2.4-4.5-3.7c-6.7-5.7-12.8-12-18.7-18.4c-5.4-5.9-10.6-12.1-15.7-18.3
									c-1-1.2-1.9-2.4-2.9-3.6c-0.1-0.1-0.6-0.7-0.1-0.2c0.4,0.5,0,0-0.1-0.1c-0.2-0.3-0.4-0.5-0.6-0.8c-0.4-0.5-0.8-1-1.1-1.4
									c-1-1.3-1.9-2.5-2.9-3.8c-0.1-0.2-0.3-0.3-0.4-0.5c-1.6-2.1-4.8-2.7-7.3-2.4c-1.2,0.2-2.6,0.4-3.6,1.2
									C29.3-130.9,28.6-129.9,29.2-129.1L29.2-129.1z"/>
							</g>
						</g>
					</g>
					<polyline class="st5" points="-142.5,-231.6 -13.3,-301 96.1,-313.2 101.2,-207.1 49.1,-179.2 -133.6,-182.7 					"/>
				</g>
			</g>
			<g>
				<path class="st7" d="M666.8,293c0,161.8-130.7,293-291.9,293C213.7,586,83.1,454.8,83.1,293C83.1,131.2,213.7,0,374.9,0
					C536.1,0,666.8,131.2,666.8,293z M83.1,293C-78,293-208.7,161.8-208.7,0c0-161.8,130.7-293,291.9-293h583.7
					C828-293,958.7-161.8,958.7,0c0,161.8-130.7,293-291.9,293H83.1z M666.9-293C666.9-131.2,536.2,0,375,0S83.1-131.2,83.1-293
					S213.8-586,375-586S666.9-454.8,666.9-293z"/>
			</g>
		</g>
	</g>
</g>
<g>
	<g>
		<g>
			<path class="st6" d="M240.6,448.1c0.2,0.1-0.4,0.8-0.6,3.1c-0.3,3.2,1.2,8.2,1.2,8.2s3.5,16.1,6.5,22.1c3,6,4.6,21,4.6,25.5
				c-0.1,4.4,3.3,3.2,7.2,4.4c3.9,1.2,1.4,6.2,1.4,6.2s0.6,2.1,7.8,2.8c7.2,0.8,11.3,0,11.3,0s-1.9-1.4-3.2-4.4
				c-1.3-3-5.4-5.8-5.4-5.8s-2.5-3.1-4.6-6.5c-2.1-3.4-6.5-15.2-6.5-15.2s-2.6-13.2-3.9-20.6c-0.8-4.6-0.2-8.4,0.3-10.6
				C256.6,457.1,250.4,455.8,240.6,448.1z"/>
			<g>
				<path class="st5" d="M239.1,447.9c-0.2-0.3-0.2,0.2-0.3,0.4c-0.1,0.5-0.3,1-0.4,1.4c-0.2,1.1-0.2,2.2-0.1,3.3
					c0.2,1.9,0.6,3.7,1.1,5.6c0.5,1.7,0.8,3.5,1.2,5.2c0.9,3.8,2,7.7,3.2,11.4c1.1,3.2,2.7,6.3,3.6,9.5c1.2,4.1,1.9,8.4,2.4,12.6
					c0.2,1.9,0.4,3.8,0.6,5.7c0.1,1.4,0,2.9,0.2,4.3c0.2,1.9,1.7,2.9,3.4,3.4c0.9,0.3,1.8,0.4,2.7,0.6c0.7,0.1,2.1,0.2,2.4,0.4
					c1.2,0.9,0.8,2.9,0.4,4.1c-0.2,0.5-0.5,0.9-0.3,1.4c0.4,1,1.9,1.7,2.8,2c2.4,1.1,5.1,1.5,7.7,1.8c3.7,0.4,7.7,0.6,11.5-0.1
					c0.6-0.1,0.2-0.5-0.1-0.7c-0.1-0.1,0,0,0,0c-0.1-0.1-0.2-0.2-0.3-0.3c-0.4-0.4-0.8-0.8-1.1-1.3c-1-1.3-1.5-2.8-2.4-4.1
					c-1.3-1.8-3.1-3-4.7-4.4c0.4,0.3,0-0.1-0.2-0.3c-0.4-0.5-0.7-0.9-1-1.4c-1.1-1.5-2.1-2.9-3-4.5c-1-1.8-1.8-3.6-2.6-5.5
					c-0.9-2.1-1.8-4.3-2.6-6.5c-0.4-1.1-0.9-2.1-1.2-3.2c-0.3-1.1-0.4-2.2-0.7-3.3c-0.5-2.5-1-5-1.4-7.4c-1.3-6.7-3-13.5-1.4-20.3
					c0.1-0.6-1.6-1.1-1.9-1.2c-0.4-0.1,0.3,0.1,0.1,0c-0.3-0.1-0.5-0.2-0.8-0.2c-0.1,0-0.2-0.1-0.2-0.1c-0.3-0.1,0.2,0.1,0,0
					c-0.2-0.1-0.5-0.2-0.7-0.3c-0.5-0.2-1.1-0.4-1.6-0.7c-4-1.9-7.7-4.4-11.2-7.1c-0.6-0.5-1.6-0.8-2.3-0.7c-0.6,0-0.8,0.4-0.2,0.8
					c3.9,3,8,5.7,12.4,7.8c1.7,0.8,3.4,1.5,5.2,1.9c-0.6-0.4-1.3-0.8-1.9-1.2c-1.4,6.1-0.1,12,1,18.1c0.8,4.3,1.5,8.8,2.5,13.1
					c0.2,0.8,0.5,1.5,0.8,2.2c0.8,2.1,1.7,4.2,2.5,6.3c2,4.8,4.3,9.1,7.5,13.2c0.4,0.5,0.8,0.7,1.2,1.1c1.1,0.9,2.2,1.9,3.2,3
					c1.1,1.4,1.7,3.1,2.7,4.5c0.6,0.8,1.2,1.5,2,2.1c0-0.2,0-0.5-0.1-0.7c-2.9,0.5-6,0.4-9,0.2c-2-0.2-4.4-0.3-6.2-1.1
					c-0.4-0.2-0.9-0.5-0.9-0.8c0,0.3,0.1-0.2,0.2-0.3c0.3-0.5,0.4-1.2,0.5-1.8c0.3-1.5,0-2.9-1.2-3.9c-1.6-1.3-4-1.7-6-1.9
					c-0.4-0.1-0.8-0.1-1.2-0.2c-0.5-0.1-0.2,0-0.2,0c-0.7-0.5-0.7-1.7-0.7-2.5c-0.1-7.2-1.1-14.6-3.1-21.5c-0.9-3.1-2.5-6-3.5-9.1
					c-1.2-3.7-2.2-7.4-3.1-11.1c-0.5-2-0.9-4.1-1.4-6.1c-0.5-1.9-1-3.9-1.1-5.9c-0.1-1.3,0-2.6,0.4-3.8c0.1-0.5,0.5-1.1,0.2-1.6
					c-0.4-0.6-1.5-0.8-2.2-0.9C239.5,447.3,238.6,447.3,239.1,447.9z"/>
			</g>
		</g>
	</g>
	<path class="st8" d="M240.6,448.1"/>
	<g>
		<g>
			<g>
				<path class="st9" d="M269,458c0,0,4.1,17,9.5,16.2c5.5-0.8-0.8-20.1-0.8-20.1"/>
				<g>
					<path class="st5" d="M267.7,458.1c0.5,2.3,1.3,4.5,2.1,6.7c0.7,1.8,1.4,3.5,2.3,5.2c0.8,1.4,1.7,2.8,3,3.8
						c1.3,0.9,3,1.1,4.5,0.7c1.2-0.4,1.9-1.3,2.2-2.5c0.9-3.2,0-7-0.7-10.2c-0.6-2.6-1.2-5.2-2-7.7c-0.2-0.7-2.7-0.2-2.6,0.2
						c0.6,1.8,1.1,3.7,1.5,5.5c0.8,3.2,1.5,6.6,1.5,10c0,1.2-0.1,2.5-0.8,3.5c-0.1,0.2-0.2,0.3-0.4,0.5c-0.2,0.2-0.3,0.1-0.2,0.1
						c0.5,0,0.4,0,0.1-0.1c-0.3-0.1-0.5-0.2-0.8-0.4c-2.5-1.8-3.9-5.4-4.9-8.2c-0.9-2.3-1.7-4.8-2.2-7.2
						C270.1,457.3,267.6,457.6,267.7,458.1L267.7,458.1z"/>
				</g>
			</g>
			<g>
				<path class="st9" d="M245.4,449.1c0,0-7,10.8-6.2,13.1s5.7,0.3,12.8-7.9"/>
				<g>
					<path class="st5" d="M244.3,448.8c-2.1,3.3-4.2,6.7-5.7,10.3c-0.5,1.3-1.5,3.5,0,4.6c1.5,1.2,3.9,0.1,5.3-0.7
						c3.5-2,6.4-5.1,9.1-8.2c0.4-0.4,0.2-1-0.4-1.2c-0.6-0.2-1.4,0-1.8,0.5c-2.2,2.5-4.5,5.1-7.3,7c-0.4,0.3-0.7,0.5-1.2,0.7
						c-0.2,0.1-0.4,0.2-0.6,0.3c-0.1,0.1-0.3,0.1,0,0c-0.1,0-0.2,0.1-0.3,0.1c-0.1,0-0.2,0.1-0.3,0.1c-0.2,0.1-0.2,0,0,0
						c-0.1,0-0.2,0-0.2,0c-0.2,0.1,0,0,0,0c0,0-0.2,0-0.2,0c-0.1,0.1,0,0,0.1,0c0,0-0.1,0-0.2-0.1c0,0,0.2,0.1,0,0
						c0,0-0.1-0.1-0.1-0.1c0.1,0.1,0.1,0.1,0,0c0,0-0.1-0.1-0.1-0.1c-0.1-0.1,0,0.2,0,0c0-0.1-0.1-0.4-0.1-0.2c0,0.1,0-0.1,0-0.1
						c0-0.1,0-0.2,0-0.2c0.1-0.8,0.4-1.4,0.7-2.3c0.9-2.1,2-4.1,3.1-6c0.5-0.9,1.1-1.8,1.6-2.7c0.1-0.2,0.2-0.3,0.3-0.5
						c0-0.1,0.1-0.1,0.1-0.2c0.1-0.2-0.1,0.2,0,0c0.1-0.1,0.1-0.2,0.2-0.3C247.3,448.1,245,447.8,244.3,448.8L244.3,448.8z"/>
				</g>
			</g>
			<g>
				<path class="st9" d="M237.9,432.8c0,0,3.6,22.1,20.6,24.7c16.9,2.6,19.8-2.1,25.8-5.2c6-3.1,12-13.8,12.5-20.3"/>
				<g>
					<path class="st5" d="M236.9,432.1c1.4,8.5,5.9,17.3,13,22.4c2.6,1.9,5.7,3.2,8.9,3.8c4.2,0.7,8.6,1.1,12.9,0.7
						c2.6-0.3,5.2-1,7.5-2.2c1.9-1,3.6-2.2,5.5-3.3c3.7-2,6.4-5.1,8.6-8.6c2.3-3.6,4.2-7.9,4.6-12.2c0.1-0.7-2-2-2.1-1.4
						c-0.3,3.7-1.8,7.2-3.6,10.4c-1.8,3.2-4.1,6.4-7,8.7c-1.8,1.4-3.9,2.4-5.8,3.6c-1.9,1.1-3.8,2.1-5.9,2.7
						c-3.2,0.9-6.6,0.9-9.9,0.7c-3.7-0.3-7.6-0.6-11-2.3c-4.9-2.5-8.2-7.2-10.4-12.1c-1.3-2.9-2.5-6.3-3-9.4c-0.1-0.5-0.6-1-1-1.3
						C237.8,432.2,236.8,431.7,236.9,432.1L236.9,432.1z"/>
				</g>
			</g>
			<g>
				<path class="st9" d="M255.7,453c0,0-5.7,19.5,0.3,20.6s9.4-20.1,9.4-20.1"/>
				<g>
					<path class="st5" d="M254.6,453.5c-0.7,2.5-1.3,5-1.7,7.5c-0.4,2-0.7,4.1-0.7,6.2c-0.1,1.7-0.1,3.6,0.6,5.1
						c1.4,3.3,5.4,1.5,7.2-0.5c2.5-2.7,3.7-6.9,4.6-10.4c0.8-2.8,1.4-5.7,1.9-8.6c0-0.1-1.2,0.4-1.2,0.4c-0.3,0.1-1,0.4-1.1,0.8
						c-0.3,2.1-0.8,4.3-1.3,6.4c-0.9,3.5-1.9,7.2-3.7,10.4c-0.4,0.6-0.8,1.3-1.3,1.8c-0.1,0.1-0.6,0.5-0.6,0.6
						c0-0.1,0.7-0.4,0.7-0.4c0,0-0.3,0-0.4,0c-1.3-0.1-2.1-0.7-2.5-1.9c-0.6-1.5-0.7-3.1-0.6-4.7c0-1.9,0.3-3.9,0.6-5.8
						c0.5-2.7,1.1-5.5,1.8-8.1c0.1-0.3-0.8,0.2-0.9,0.2C255.6,452.8,254.7,453.2,254.6,453.5L254.6,453.5z"/>
				</g>
			</g>
			<g>
				<path class="st9" d="M279.2,449.9c0,0,10.7,14.3,14.6,12.8s-7.6-19-7.6-19"/>
				<g>
					<path class="st5" d="M277.9,450c1.5,2,3.1,3.9,4.7,5.8c2.3,2.7,5.1,5.8,8.4,7.2c1.2,0.5,3,0.8,4.1-0.1c0.8-0.7,0.7-1.9,0.6-2.8
						c-0.6-3.4-2.5-6.6-4.1-9.6c-1.3-2.3-2.7-4.6-4.1-6.9c-0.5-0.7-3-0.5-2.5,0.2c2.9,4.4,5.8,9.1,7.6,14.1c0.4,1.1,0.8,2.3,0.7,3.5
						c0,0.4-0.2,0.6-0.3,0.8c-0.1,0.1,0,0,0,0c0.1,0,0.1,0-0.1,0c-1.2-0.4-2.4-1.4-3.4-2.3c-1.4-1.2-2.7-2.6-4-4
						c-1.8-1.9-3.5-4-5-6.1c-0.3-0.5-1-0.6-1.6-0.5C278.6,449.3,277.6,449.5,277.9,450L277.9,450z"/>
				</g>
			</g>
		</g>
		<polyline class="st9" points="240.6,427.8 268.7,412.7 292.4,410 293.6,433.1 282.2,439.1 242.6,438.4 		"/>
	</g>
	<g>
		<path class="st6" d="M202.4,429c-5.4,9.1-15.2,29.8-15.2,29.8s2.6,3.2,1.9,5.4c-1.9,6.3,5.5,8.1,6,8c-0.3,0-1.1-7.9,8.8-22.6
			c11-16.2,7.4-20.6,9.5-28.8c2.1-8.2,3.2-14.6,4.4-22.9c1.3-8.3,2.9-31.5,3.4-40c0.1-2.4,1-6.4,2.2-10.7c0.6,3.5,1.5,10.5,1.9,17.6
			c0.5,10.1,0.7,23.9,1.3,36.8c0.6,13-2.4,22.3-3.7,27.4c-1.3,5.1-10.7,13.8-10.7,13.8s-3.1,2.5-3.8,5.6c-0.7,3.1,1.5,27.6,1.9,35.7
			c0.4,8.1-1.6,22.8-2.9,27.5c-1.3,4.7,3.4,5.6,3.9,9.3c0.4,3.7,2.6,9.6,2.6,9.6s4.3,1.7,10.6,3.1c6.3,1.5,7.6-3.2,7.6-3.2l-3.2-4.4
			l-4.6-6.5c0,0-0.5-2.5-2-4.2c-1.4-1.8-1.4-6.2-1.6-11.5c-0.3-5.3,0.1-20.1,1.4-24.4c1.3-4.3,2.8-7.8,4.8-14.4
			c1.8-6.4,12.8-16.1,13.8-17c0,0,25.9-13.2,35.8-24.3l20.5,8.7c4.3,1.7,9.3,3.8,13.3,4.9c6.6,1.9,7.9,4.6,32.9,8.9
			c25,4.3,33.4,2.8,45,0.3c11.5-2.4,26-2.1,26-2.1s-1.3,19.6-1.1,29.3c0.2,9.7-4.5,20.1-6.4,26.3c-1.9,6.3,0.1,2.8,3,6
			c2.9,3.1-1.3,4.3-0.4,8c0.8,3.7,7.1,5.6,7.1,5.6s2.4,0.3,7.3,0c4.9-0.3,1.7-4.7,4.3-2.8c2.6,1.9-0.1,4.8-0.1,4.8l3.6,8
			c0,0,4.1,2.9,10.9,3.6c6.8,0.7,7.6-3.2,7.6-3.2s-6.3-5.5-8.3-9.3c-2-3.8-0.7-1.3-3.6-3.6c-3-2.3-1.7-3-3.2-8
			c-1.5-5,0-23.4,1.7-27.2c1.6-3.9,2-7.8,2.9-12.6c0.9-4.7,4.1-19.7,4.1-19.7l6.7-2.5c0,0,12.3-1.5,19.2-6.4c7-4.9,7-13,12.3-24.5
			c5.3-11.5,14.5-22.7,19.3-26.6c4.9-3.9,17.1-13.1,17.1-13.1s7.5,4.8,13.9,2.3c6.3-2.6,4.1-0.8,13-0.6c8.9,0.1,4.7,0.9,10.6,3.1
			c5.8,2.2,5.2,0.1,11.3-0.4c6.1-0.6,9.6-3.4,12-10.4c2.4-7-4.1-6.9-8.4-11.8c-4.3-4.9-8.4-15.8-10.7-20.5c-2.3-4.7-1.1-9-1.1-9
			s3.4-2.1,6.2-5c2.7-2.9,3.6-7.3,3.6-7.3s-3.1-1.1-8.3-1.7c-5.2-0.5-9,1.5-9,1.5s0-0.4-0.9-2.5c-1-2.1-7.5-5.6-12.2-6.1
			c-4.8-0.5-14.7,5.3-14.7,5.3s-1.6-0.2-3.1-1.5c-1.5-1.4-3.5-1.6-3.5-1.6l-2.8,8.5c-0.7,0.2-1.7,0.5-3,1c-8.4,2.7-9.9,1.8-19.3,3.2
			c-9.4,1.4-25.2,1.8-25.2,1.8c-6.8-0.3-28.7-3-28.7-3s-19.3,3.6-33.1,4.6c-13.8,1-44,1-52.5,0.9c-8.5-0.1-62.9-9.1-72.2-9.4
			c-8.3-0.3-7.1-0.6-11.8-0.4c-5.9,0.2-13.6,0.1-13.6,0.1s-19.5-0.2-22.4,0.7c-2.9,0.9-7.9,2-11.5,9.3c-3.6,7.3-5,24.1-5.3,27.3
			c-0.3,3.2-1.4,29-1.4,36.7c0,7.7-5.5,27.1-5.5,27.1S207.8,419.9,202.4,429"/>
		<g>
			<path class="st5" d="M201.4,427.6c-5.7,9.6-10.5,19.8-15.2,29.8c-0.3,0.7,0.5,1.9,0.9,2.4c0.4,0.5,0.7,1,0.9,1.6
				c0.4,1.2-0.2,2.3-0.2,3.5c-0.1,1.9,0.7,3.7,1.8,5.2c1.2,1.6,3.9,3.9,6.1,3.7c1-0.1-0.6-2.9-1.3-3.1c0.4,0.1,1.4,2.2,1.5,2.1
				c0.1-0.1,0-0.1,0-0.1c0.1-0.3,0-0.8,0-1.1c0.1-1.2,0.3-2.5,0.6-3.6c1.1-4.4,3.2-8.6,5.5-12.5c3-5,6.5-9.6,8.8-15
				c1.3-3.1,2.1-6.3,2.4-9.6c0.3-2.7,0.3-5.5,0.9-8.2c1.4-5.9,2.7-11.7,3.6-17.7c1.4-8.7,2.3-17.4,3-26.2c0.4-4.9,0.7-9.7,1.1-14.6
				c0.1-1.8,0.2-3.7,0.4-5.5c0.3-3.3,1.2-6.6,2.1-9.9c-0.6-0.8-1.2-1.5-1.9-2.3c1.9,12.3,2.2,24.7,2.6,37.2
				c0.4,12.7,1.6,25.3-1.4,37.8c-0.8,3.5-1.5,7.1-3.5,10.1c-2.2,3.3-5,6.3-7.8,9c-2,1.9-4.2,3.9-4.8,6.7c-0.5,2.5-0.1,5.3,0,7.8
				c0.4,8.5,1.2,16.9,1.7,25.4c0.5,9-0.4,18.3-2.1,27.2c-0.3,1.7-1.1,3.5-0.8,5.3c0.3,1.9,1.3,3.5,2.5,4.9c0.5,0.6,1.2,1.2,1.5,2
				c0.4,1,0.4,2.4,0.7,3.5c0.5,2,1.1,4,1.8,6c0.4,1.1,0.7,2.2,1.8,2.8c1.4,0.8,3.3,1.1,4.8,1.6c3.7,1.1,9.5,3.5,12.5-0.2
				c1.8-2.1,0.4-3.7-1-5.6c-1.5-2.1-3-4.1-4.4-6.2c-0.4-0.6-0.8-1.2-1.3-1.8c-0.2-0.2-0.3-0.5-0.5-0.7c-0.6-0.7,0.4,0.6,0.3,0.9
				c0.1-0.6-0.6-1.9-0.9-2.5c-0.5-1.1-1.3-2-1.7-3c-0.5-1-0.5-2.5-0.6-3.6c-0.1-1.8-0.2-3.7-0.3-5.5c-0.1-1.8-0.1-3.6-0.1-5.4
				c0-4.6,0.2-9.3,0.6-13.9c0.4-4.1,1.6-7.8,2.9-11.7c1.7-4.7,2.6-9.5,5.6-13.6c2.6-3.5,5.6-6.7,8.8-9.6c3.2-3,7.5-4.7,11.4-6.9
				c8-4.6,16.1-9.6,23-15.8c0.8-0.7,1.5-1.4,2.2-2.1c0.3-0.3,0.9-1.2,0.9-1.2c0.5-0.1,1.9,0.8,2.3,1c3.1,1.3,6.1,2.6,9.2,3.9
				c6.6,2.8,13.1,5.8,19.9,8c4.4,1.5,8.7,3.3,13.1,4.7c10,3.2,20.7,4.9,31.1,6.3c8.7,1.2,17.6,1.8,26.4,0.7c3.3-0.4,6.6-1.1,9.9-1.8
				c5.7-1.2,11.6-1.7,17.4-1.9c2.8-0.1,5.6-0.2,8.4-0.1c-0.5-0.9-1.1-1.8-1.6-2.7c-0.4,5.8-0.7,11.5-0.9,17.3
				c-0.1,3.9-0.3,7.9-0.2,11.8c0.1,5.8-1.4,11.4-3.2,16.9c-0.8,2.3-1.6,4.6-2.4,6.9c-0.6,1.8-1.4,3.8-1.6,5.7
				c-0.1,1.2,0.4,2.8,1.4,3.6c0.7,0.6,1.8,0.7,2.6,1.2c0.8,0.5,0.7,0.8,0.3,1.7c-0.3,0.7-0.8,1.4-1,2.2c-0.5,1.6-0.1,3.3,0.7,4.8
				c1.5,2.8,4.4,4.8,7.4,5.7c0.7,0.2,1.4,0.2,2.2,0.3c2.2,0.1,5.1,0.4,7.2-0.4c0.7-0.2,1.2-0.7,1.5-1.3c0.2-0.4,0.1-1,0.3-1.4
				c0.2-0.4,0.4,0,0.4,0.2c0,0.6-0.6,1.4-1,1.8c-0.3,0.4-0.1,1,0.1,1.4c1,2.3,2,4.5,3,6.8c0.4,0.9,0.8,2,1.5,2.7
				c0.6,0.6,1.5,0.9,2.3,1.3c3.7,1.8,8.4,3.2,12.6,2.5c1.8-0.3,4-1.4,4.4-3.3c0.2-0.9-0.5-2.1-1.1-2.7c-1.6-1.4-3.1-2.9-4.5-4.4
				c-1-1.1-2.1-2.3-2.8-3.6c-0.6-1.1-1.1-2.3-1.9-3.3c-0.4-0.5-0.8-0.6-1.3-0.8c-0.5-0.2-1-0.6-1.4-0.9c-0.3-0.2-0.6-0.5-0.9-0.8
				c-0.3-0.4,0.1,0.4-0.1-0.1c-0.4-1.1-0.4-2.4-0.6-3.5c-0.3-1.1-0.6-2.2-0.7-3.4c-0.7-5.5-0.1-11.2,0.5-16.7c0.3-2.3,0.5-4.7,1.2-7
				c0.9-3.1,1.9-5.9,2.5-9.1c1-5.7,2.2-11.4,3.4-17c0.4-2.1,0.9-4.2,1.3-6.3c0.3-1.3,0.8-1.1,2.4-1.7c1.5-0.5,3-1.3,4.5-1.7
				c1.6-0.4,3.3-0.5,5-0.9c5.9-1.3,12.7-3.2,16.8-7.9c4.2-4.7,5.5-11.5,7.7-17.2c3-7.9,7.3-15.3,12.5-22c3.7-4.7,7.7-8.7,12.4-12.4
				c4.2-3.2,8.4-6.4,12.6-9.6c0.3-0.2,0.6-0.6,1-0.7c-0.4,0.1-0.4-0.2,0.1,0.2c0.4,0.3,0.8,0.4,1.2,0.6c2.6,1.3,5.6,2.3,8.6,2.2
				c2.9,0,5.2-1.7,8-2.1c1.8-0.2,3.7,0.4,5.5,0.5c2.8,0.2,6.3-0.4,9,0.6c1.3,0.5,2.4,1.6,3.8,2.2c2.6,1.1,4.9,1.8,7.7,1
				c3-0.8,6.2-0.8,9.1-1.9c2.5-0.9,4.4-2.7,5.8-5c1.5-2.4,3.1-5.8,2.6-8.7c-0.9-5.8-7.5-7.1-10.6-11.3c-4-5.4-6.2-12-9.1-18
				c-0.9-1.8-1.3-3.6-1.3-5.7c0-0.5,0.1-2,0.3-2.2c0.5-0.7,2.1-1.4,2.8-2c1.4-1.1,2.8-2.3,4-3.8c1.5-1.9,2.5-4.2,3-6.6
				c0.2-1-0.6-2.6-1.6-3c-5.3-1.9-12.3-2.9-17.5-0.2c0.6,0.9,1.2,1.8,1.8,2.7c0-1.4-0.8-3-1.5-4.2c-0.9-1.6-2.4-2.8-3.9-3.7
				c-3.5-2.2-8-4.1-12.1-3.2c-3.8,0.7-7.4,2.5-10.7,4.4c-1.2,0.7-1.3,1-2.6,0.3c-1.8-0.9-3-2.4-5.1-2.7c-0.1,0-0.2,0-0.3,0.1
				c-0.8,2.4-1.6,4.8-2.4,7.2c-0.1,0.3-0.2,1-0.4,1.2c-0.4,0.4-2.3,0.7-2.9,0.9c-2.2,0.7-4.5,1.4-6.8,1.8c-4.4,0.7-8.8,0.9-13.2,1.5
				c-4.8,0.7-9.6,1-14.5,1.3c-5.8,0.3-11.3,0.4-17.1-0.2c-6.8-0.7-13.6-1.5-20.4-2.3c-1.1-0.1-2,0-3.1,0.2c-3.7,0.7-7.3,1.3-11,1.8
				c-9.3,1.4-18.6,2.4-27.9,2.8c-9.1,0.3-18.2,0.4-27.4,0.5c-6.1,0-12.3,0.3-18.4-0.1c-5.2-0.3-10.4-1.1-15.5-1.8
				c-7.6-1-15.2-2.2-22.9-3.3c-12.5-1.8-24.9-3.7-37.5-4.4c-6.8-0.4-13.7,0-20.5-0.1c-5.4,0-10.9-0.1-16.3,0.2
				c-6.3,0.2-12.1,1.5-16,6.9c-2.6,3.6-3.7,7.9-4.6,12.2c-0.9,4.2-1.5,8.4-2,12.6c-1.4,12.7-1.7,25.5-1.9,38.3
				c-0.1,2.9,0,5.8-0.4,8.6c-0.6,4.1-1.5,8.2-2.4,12.2c-0.9,3.6-1.5,7.7-3,11.1C205.3,421.3,203.3,424.4,201.4,427.6
				c-0.5,0.8,1.4,3.5,1.8,2.8c2.5-4.2,5.1-8.2,6.4-12.9c2-7.6,4.3-15.5,4.9-23.4c0.5-7.5,0.4-15.1,0.7-22.6c0.2-6,0.4-11.9,1-17.9
				c0.4-4.3,0.9-8.5,1.7-12.7c0.8-4.5,1.7-9.3,4-13.4c2.3-4.1,5.8-6.4,10.2-7.8c2.7-0.8,5.7-0.7,8.5-0.8c5.5-0.1,11-0.1,16.5-0.1
				c8,0,15.9-0.2,23.9,0.3c5.7,0.3,11.3,1.3,16.9,2.1c8.3,1.2,16.7,2.4,25,3.6c7.4,1.1,14.8,2.1,22.2,3c4.9,0.6,9.7,0.7,14.7,0.7
				c19.1,0,38.3,0.3,57.3-2.2c5-0.6,10-1.4,15-2.2c1.6-0.3,3.2-0.5,4.7-0.8c0.4-0.1,0.8-0.2,1.2-0.2c0.3,0,0.2,0,0.2,0
				c2.3,0,4.8,0.6,7.1,0.8c4.3,0.5,8.5,1,12.8,1.4c3,0.3,6,0.7,9,0.8c3.4,0,6.8-0.2,10.1-0.4c4.9-0.3,9.9-0.6,14.8-1.3
				c4.7-0.7,9.5-0.8,14.1-1.7c2.6-0.6,5.4-1.3,7.9-2.3c1.1-0.4,1.1-1.5,1.5-2.6c0.5-1.6,1.1-3.2,1.6-4.8c0.1-0.3,0.2-1.1,0.4-1.3
				c0,0-0.3,0.1,0.1,0.1c0.6,0.1,1.2,0.3,1.7,0.6c1.3,0.7,2.9,2.7,4.6,2.4c0.9-0.2,2-1.1,2.8-1.5c3.5-1.8,8.1-4.2,12.2-3.7
				c2.6,0.4,5.2,1.4,7.5,2.7c0.9,0.5,1.9,1,2.6,1.8c0.4,0.4,0.4,0.6,0.7,1.1c0.1,0.2,0.2,0.9,0.2,0.3c0,0.5,0.9,3.2,1.8,2.7
				c5.1-2.6,11.9-1.6,17.2,0.2c-0.5-1-1-2-1.6-3c-1,4.9-4.3,8.5-8.3,11.3c-1,0.7-1.4,0.8-1.6,2c-0.4,2.4-0.1,4.9,0.7,7.2
				c0.8,2.3,2,4.5,2.9,6.6c1.1,2.4,2.2,4.9,3.3,7.3c2.2,4.5,4.6,9.2,8.7,12.2c0.9,0.6,1.8,1.2,2.6,1.8c0.7,0.5,2.1,1.1,2.6,2
				c0.9,1.8-1.2,5.6-2.1,7.2c-1.1,2-2.6,3.7-4.6,4.7c-2.3,1.2-4.7,1.3-7.1,1.7c-2,0.3-4,1.4-6.1,1.1c-2.1-0.2-4.4-1.1-6.2-2.3
				c-0.8-0.6-1.4-1.1-2.4-1.4c-2.4-0.6-5-0.3-7.5-0.5c-1.9-0.1-3.8-0.6-5.8-0.7c-1.7-0.1-3.3,0.6-4.9,1.2c-4.6,1.8-9.9,0.6-14-2
				c-0.1-0.1-0.2-0.1-0.4-0.1c-4.5,3.4-9,6.7-13.4,10.2c-6,4.7-11,10.1-15.4,16.3c-3,4.2-5.6,8.6-7.8,13.3c-2,4.5-3.5,9.2-5.1,13.8
				c-1.2,3.4-2.8,6.9-5.5,9.4c-3.1,2.8-7.2,4.3-11.1,5.5c-2.9,0.9-5.8,1.5-8.8,2c-1.6,0.2-3.1,0.9-4.6,1.5c-0.7,0.3-2.4,0.5-3,1.1
				c-0.3,0.3-0.3,0.9-0.4,1.3c-0.6,2.8-1.2,5.7-1.8,8.5c-0.7,3.1-1.3,6.2-1.9,9.3c-0.9,4.6-1.6,9.1-3.2,13.5c-0.9,2.4-1.1,5-1.4,7.4
				c-0.5,3.7-0.7,7.5-0.8,11.3c-0.1,3.1-0.1,6.2,0.7,9.2c0.9,3.3,0.9,6.8,3.6,9.2c1,0.9,2.1,1.4,3.2,2c-0.6-0.3-0.3-0.5-0.1,0.1
				c0.2,0.6,0.6,1.2,1,1.8c0.5,0.8,1,1.5,1.6,2.3c2.1,2.7,4.5,5.1,7,7.3c-0.4-0.9-0.7-1.8-1.1-2.7c-0.7,2.9-4.7,3.3-7,3.1
				c-3.7-0.3-7.9-1.4-11-3.5c0.4,0.5,0.8,1.1,1.2,1.6c-1.2-2.7-2.4-5.4-3.6-8c0,0.5,0.1,0.9,0.1,1.4c2.2-2.4,1.5-5.8-1-7.7
				c-0.7-0.5-1.4-1-1.8-0.1c-0.5,1.2-0.2,2-1.8,2.5c-2.1,0.6-4.8,0.4-7,0.3c-0.7,0-1.2-0.1-1.8-0.3c-1.4-0.5-3-1.3-4.1-2.2
				c-1.8-1.5-0.3-3.2,0.4-4.9c1.1-2.9-1.4-6.5-4.1-7.6c-0.2-0.1-1.2-0.5-1.3-0.4c0.5-0.4,0.5,2.6,1,1.3c0.2-0.6,0.3-1.3,0.4-1.9
				c0.6-2.2,1.4-4.4,2.2-6.6c1.8-5.1,3.5-10.3,4.2-15.6c0.6-4.3,0.3-8.8,0.4-13.2c0.2-7.1,0.6-14.1,1-21.1c0-0.7-0.7-2.7-1.6-2.7
				c-10.3-0.2-20.3,1-30.4,2.9c-10.2,1.9-20.2,1.6-30.5,0.3c-11.7-1.5-23.9-3.3-35-7.4c-7.2-2.6-14.4-5.1-21.5-8
				c-6.7-2.8-13.3-5.7-20-8.6c-0.1-0.1-0.2-0.1-0.4-0.1c-7.2,8-17,13.8-26.2,19.1c-2.9,1.7-5.9,3.4-8.9,4.9
				c-2.1,1.1-3.9,3.3-5.5,4.9c-3.4,3.4-7.2,7.3-8.9,11.9c-1.2,3.1-2,6.4-3.1,9.5c-0.8,2.2-1.7,4.5-2.2,6.8c-1,4.9-1,10.1-1.1,15.1
				c-0.1,5.4-0.2,11.1,0.5,16.5c0.2,1.4,0.5,2.7,1.1,4c0.7,1.4,1.5,2.5,2,4c0.5,1.6,1.6,2.9,2.6,4.2c1.9,2.7,3.8,5.4,5.8,8.1
				c-0.2-0.7-0.4-1.4-0.6-2.1c-0.8,2.6-3.7,3.6-6.2,3.3c-3.9-0.5-8-1.9-11.7-3.3c0.5,0.6,0.9,1.1,1.4,1.7c-0.9-2.4-1.7-4.9-2.2-7.4
				c-0.5-2.8-1.3-4.8-3.2-7c-1.1-1.3-1.2-2-0.8-3.7c0.3-1.1,0.5-2.3,0.7-3.4c0.6-3.2,1-6.4,1.4-9.6c0.7-6,0.9-12,0.5-18
				c-0.4-5.9-0.8-11.7-1.2-17.6c-0.2-2.9-0.4-5.8-0.5-8.7c-0.1-1.7-0.2-3.4,0-5.1c0.5-3.8,4.7-6.6,7.1-9.2c2-2.1,4-4.3,5.6-6.8
				c1.3-2,2-4.1,2.6-6.4c1.8-6.8,3-13.6,3.1-20.6c0.1-5.4-0.4-10.8-0.6-16.2c-0.2-5.2-0.3-10.4-0.5-15.6c-0.3-9.2-0.9-18.2-2.3-27.3
				c-0.1-0.4-1.6-3.1-1.9-2.3c-1.3,4.8-2.1,9.4-2.4,14.3c-0.3,4.4-0.6,8.9-0.9,13.3c-0.7,9.2-1.4,18.3-2.9,27.4
				c-1.1,6.6-2.5,13-4,19.5c-0.6,2.8-0.6,5.6-0.9,8.5c-1.1,10.6-8.4,18.3-13.1,27.5c-1.9,3.8-3.6,7.9-4.2,12.1
				c-0.2,1.5-0.4,5,1.6,5.5c-0.4-1-0.9-2.1-1.3-3.1c-0.7,0.1-1.7-0.4-2.3-0.7c-1.3-0.7-2.4-1.3-2.3-2.9c0-1,0.4-1.8,0.4-2.8
				c0-0.9-0.3-1.8-0.6-2.6c-0.6-1.4-1.4-2.7-2.3-3.9c0.3,0.8,0.6,1.6,0.9,2.4c4.8-10.1,9.6-20.2,15.2-29.8
				C203.7,429.6,201.9,426.9,201.4,427.6L201.4,427.6z"/>
		</g>
	</g>
</g>
<g>
	<path class="st6" d="M250.9,59.9v-7.7l8.5-6.6v14.3H250.9z"/>
	<path class="st6" d="M284.8,97.2c-9.2,0-16.4-6.2-16.4-15.7V52.2h8.7v29c0,5.1,3,8.2,7.7,8.2c4.7,0,7.8-3.1,7.8-8.2v-29h8.7v29.4
		C301.2,91,293.9,97.2,284.8,97.2z"/>
	<path class="st6" d="M329.3,96.8V77.1c0-4.5-2.8-6-5.4-6s-5.5,1.5-5.5,6v19.8h-8.2V64.2h8v3c2.1-2.3,5.1-3.4,8.2-3.4
		c3.3,0,5.9,1.1,7.7,2.9c2.6,2.6,3.3,5.7,3.3,9.3v20.9H329.3z"/>
	<path class="st6" d="M376.5,90.3c-3.2,4.5-7.4,6.5-13.5,6.5h-16.1V52.2H363c6.1,0,10.3,2.1,13.5,6.5c2.8,3.8,2.8,8.4,2.8,15.8
		S379.2,86.5,376.5,90.3z M368.8,62.7c-1.4-1.8-3.6-2.8-6.5-2.8h-6.6v29.1h6.6c2.9,0,5.1-0.9,6.5-2.8c1.6-1.9,1.8-4.8,1.8-11.8
		C370.6,67.5,370.4,64.7,368.8,62.7z"/>
	<path class="st6" d="M417.8,90.3c-3.2,4.5-7.4,6.5-13.5,6.5h-16.1V52.2h16.1c6.1,0,10.3,2.1,13.5,6.5c2.8,3.8,2.8,8.4,2.8,15.8
		S420.6,86.5,417.8,90.3z M410.1,62.7c-1.4-1.8-3.6-2.8-6.5-2.8h-6.6v29.1h6.6c2.9,0,5.1-0.9,6.5-2.8c1.6-1.9,1.8-4.8,1.8-11.8
		C411.9,67.5,411.7,64.7,410.1,62.7z"/>
	<path class="st6" d="M429.5,96.8V52.2H459V60h-20.7v10.5h17.6v7.8h-17.6v10.9H459v7.8H429.5z"/>
	<path class="st6" d="M491.2,96.8L482.5,79h-6.3v17.8h-8.7V52.2H485c9.1,0,14.5,6.2,14.5,13.7c0,6.3-3.8,10.2-8.2,11.7l10,19.3
		H491.2z M484.4,60h-8.2v11.8h8.2c3.8,0,6.3-2.4,6.3-5.9C490.8,62.4,488.3,60,484.4,60z"/>
	<path class="st6" d="M195.6,165.9c-5.1,0-8.9-1.7-12-4.7c-4.5-4.5-4.5-9.5-4.5-18s0.1-13.5,4.5-18c3.1-3,6.8-4.7,12-4.7
		c8.3,0,14.7,4.8,16.4,14.1h-8.9c-0.9-3.6-3.1-6.3-7.5-6.3c-2.4,0-4.3,0.9-5.6,2.3c-1.6,1.9-2.2,4.1-2.2,12.6s0.6,10.7,2.2,12.6
		c1.3,1.4,3.2,2.3,5.6,2.3c4.3,0,6.6-2.7,7.5-6.3h8.8C210.4,161.1,203.9,165.9,195.6,165.9z"/>
	<path class="st6" d="M245.8,161.2c-3,3-6.8,4.7-11.9,4.7c-5.1,0-9-1.7-12-4.7c-4.5-4.5-4.5-9.5-4.5-18s0.1-13.5,4.5-18
		c3-3,6.8-4.7,12-4.7c5.1,0,8.9,1.7,11.9,4.7c4.5,4.5,4.6,9.5,4.6,18S250.3,156.7,245.8,161.2z M239.5,130.7
		c-1.3-1.4-3.2-2.4-5.6-2.4s-4.3,0.9-5.6,2.4c-1.6,1.9-2.1,4-2.1,12.5s0.5,10.6,2.1,12.5c1.3,1.4,3.3,2.4,5.6,2.4s4.3-1,5.6-2.4
		c1.6-1.9,2.2-4,2.2-12.5S241.1,132.5,239.5,130.7z"/>
	<path class="st6" d="M285.7,165.5L268,138.1v27.4h-8.7v-44.7h7.8l17.7,27.4v-27.4h8.7v44.7H285.7z"/>
	<path class="st6" d="M321,128.6v36.9h-8.7v-36.9h-11.7v-7.8h32.1v7.8H321z"/>
	<path class="st6" d="M363.4,165.5l-8.7-17.8h-6.3v17.8h-8.7v-44.7h17.5c9.1,0,14.5,6.2,14.5,13.7c0,6.3-3.8,10.2-8.2,11.7l10,19.3
		H363.4z M356.7,128.6h-8.2v11.8h8.2c3.8,0,6.3-2.4,6.3-5.9C363,131.1,360.5,128.6,356.7,128.6z"/>
	<path class="st6" d="M407,161.2c-3,3-6.8,4.7-11.9,4.7c-5.1,0-9-1.7-12-4.7c-4.5-4.5-4.5-9.5-4.5-18s0.1-13.5,4.5-18
		c3-3,6.8-4.7,12-4.7c5.1,0,8.9,1.7,11.9,4.7c4.5,4.5,4.6,9.5,4.6,18S411.5,156.7,407,161.2z M400.7,130.7c-1.3-1.4-3.2-2.4-5.6-2.4
		c-2.4,0-4.3,0.9-5.6,2.4c-1.6,1.9-2.1,4-2.1,12.5s0.5,10.6,2.1,12.5c1.3,1.4,3.3,2.4,5.6,2.4c2.4,0,4.3-1,5.6-2.4
		c1.6-1.9,2.2-4,2.2-12.5S402.3,132.5,400.7,130.7z"/>
	<path class="st6" d="M420.5,165.5v-44.7h8.7v36.9h20.3v7.8H420.5z"/>
	<path class="st6" d="M461.5,137.7c-4.8,0-8.7-3.9-8.7-8.7c0-4.8,3.9-8.7,8.7-8.7s8.7,3.9,8.7,8.7
		C470.2,133.8,466.3,137.7,461.5,137.7z M461.5,122.2c-3.7,0-6.6,2.9-6.6,6.7c0,3.9,2.9,6.7,6.6,6.7s6.6-2.9,6.6-6.7
		C468.1,125.1,465.3,122.2,461.5,122.2z M463.1,133.6l-1.7-3.6h-1v3.6h-2.1v-9.2h3.8c1.9,0,3.1,1.4,3.1,2.9c0,1.3-0.8,2.1-1.7,2.4
		l1.9,3.9H463.1z M461.9,126.1h-1.4v2.4h1.4c0.8,0,1.3-0.6,1.3-1.2S462.6,126.1,461.9,126.1z"/>
	<path class="st6" d="M512,159c-3.2,4.5-7.4,6.5-13.5,6.5h-16.1v-44.7h16.1c6.1,0,10.3,2.1,13.5,6.5c2.8,3.8,2.8,8.4,2.8,15.8
		S514.8,155.2,512,159z M504.3,131.4c-1.4-1.8-3.6-2.8-6.5-2.8h-6.6v29.1h6.6c2.9,0,5.1-0.9,6.5-2.8c1.6-1.9,1.8-4.8,1.8-11.8
		C506.1,136.2,505.9,133.4,504.3,131.4z"/>
	<path class="st6" d="M538.8,165.9c-5.1,0-8.9-1.7-12-4.7c-4.5-4.5-4.5-9.5-4.5-18s0.1-13.5,4.5-18c3.1-3,6.8-4.7,12-4.7
		c8.3,0,14.7,4.8,16.4,14.1h-8.9c-0.9-3.6-3.1-6.3-7.5-6.3c-2.4,0-4.3,0.9-5.6,2.3c-1.6,1.9-2.2,4.1-2.2,12.6s0.6,10.7,2.2,12.6
		c1.3,1.4,3.2,2.3,5.6,2.3c4.3,0,6.6-2.7,7.5-6.3h8.8C553.5,161.1,547,165.9,538.8,165.9z"/>
	<path class="st6" d="M561.7,135.1v-14.2h8.5v7.8L561.7,135.1z"/>
</g>
<g>
	<path class="st10" d="M185.8,221c-2.1,2.6-4.7,3.8-8.5,3.8h-10.5v-29.9h10.5c3.7,0,6.4,1.2,8.5,3.8c2.2,2.7,2.3,6.4,2.3,11.2
		S188,218.4,185.8,221z M182,201c-1.3-1.5-3-2.1-5.1-2.1h-5.5v21.8h5.5c2.1,0,3.9-0.6,5.1-2.1c1.5-1.6,1.6-4.4,1.6-8.9
		C183.6,205.4,183.4,202.7,182,201z"/>
	<path class="st10" d="M211.3,224.8l-6.3-12.6h-5.7v12.6h-4.5v-29.9h11.6c5.7,0,9.3,3.7,9.3,8.7c0,4.3-2.6,7-6,7.9l6.9,13.2H211.3z
		 M206.1,199h-6.7v9.4h6.7c3,0,5.1-1.7,5.1-4.7C211.1,200.8,209.1,199,206.1,199z"/>
	<path class="st10" d="M231.9,212.5v12.3h-4.5v-12.3l-8.9-17.6h5l6.3,13.1l6.3-13.1h5L231.9,212.5z"/>
	<path class="st10" d="M264.6,225.1c-3.3,0-5.8-1.1-7.7-3c-2.9-2.9-3-5.9-3-12.2c0-6.3,0.1-9.2,3-12.2c1.9-1.9,4.4-3,7.7-3
		c5.5,0,9.6,3.3,10.7,9.2h-4.6c-0.7-3.1-2.7-5.2-6-5.2c-1.8,0-3.3,0.7-4.4,1.8c-1.5,1.6-1.8,3.4-1.8,9.3s0.3,7.7,1.8,9.3
		c1.1,1.2,2.6,1.8,4.4,1.8c3.3,0,5.4-2.1,6.1-5.2h4.5C274.3,221.8,270.1,225.1,264.6,225.1z"/>
	<path class="st10" d="M298.3,222c-1.9,1.9-4.4,3-7.7,3c-3.3,0-5.8-1.1-7.7-3c-2.9-2.9-3-5.9-3-12.2c0-6.3,0.1-9.2,3-12.2
		c1.9-1.9,4.4-3,7.7-3c3.3,0,5.8,1.1,7.7,3c2.9,2.9,3,5.9,3,12.2C301.3,216.1,301.2,219.1,298.3,222z M295,200.6
		c-1.1-1.2-2.6-1.8-4.4-1.8s-3.3,0.7-4.4,1.8c-1.5,1.6-1.8,3.4-1.8,9.3s0.3,7.7,1.8,9.3c1.1,1.2,2.6,1.9,4.4,1.9s3.3-0.7,4.4-1.9
		c1.5-1.6,1.8-3.4,1.8-9.3S296.5,202.1,295,200.6z"/>
	<path class="st10" d="M332,224.8H328l-6.1-20.9l-6,20.9H312l-7.8-29.9h4.8l5.2,21.4l6-21.4h3.7l6,21.4l5.2-21.4h4.8L332,224.8z"/>
	<path class="st10" d="M364.3,199v25.8h-4.5V199h-8.2v-4.1h21v4.1H364.3z"/>
	<path class="st10" d="M394.2,224.8l-6.3-12.6h-5.7v12.6h-4.5v-29.9h11.6c5.7,0,9.3,3.7,9.3,8.7c0,4.3-2.6,7-6,7.9l6.9,13.2H394.2z
		 M389,199h-6.7v9.4h6.7c3,0,5.1-1.7,5.1-4.7C394.1,200.8,392,199,389,199z"/>
	<path class="st10" d="M405.2,224.8v-29.9h19.1v4.1h-14.6v8.7h12.4v4h-12.4v9h14.6v4.1H405.2z"/>
	<path class="st10" d="M447.7,224.8l-2.1-6h-11.8l-2.1,6h-4.8l11-29.9h3.7l11,29.9H447.7z M439.8,201.7l-4.7,13.3h9.2L439.8,201.7z"
		/>
	<path class="st10" d="M464.3,199v25.8h-4.5V199h-8.2v-4.1h21v4.1H464.3z"/>
	<path class="st10" d="M499.5,224.8v-20l-6.9,14.6h-3.4l-7-14.6v20h-4.5v-29.9h4.5l8.7,18.6l8.6-18.6h4.5v29.9H499.5z"/>
	<path class="st10" d="M511.8,224.8v-29.9h19.1v4.1h-14.6v8.7h12.4v4h-12.4v9h14.6v4.1H511.8z"/>
	<path class="st10" d="M555.5,224.8l-13.8-21v21h-4.5v-29.9h4.2l13.8,21v-21h4.5v29.9H555.5z"/>
	<path class="st10" d="M577.5,199v25.8H573V199h-8.2v-4.1h21v4.1H577.5z"/>
	<path class="st10" d="M207.7,270.8l-2.1-6h-11.8l-2.1,6H187l11-29.9h3.7l11,29.9H207.7z M199.9,247.6l-4.7,13.3h9.2L199.9,247.6z"
		/>
	<path class="st10" d="M235.1,270.8l-13.8-21v21h-4.5v-29.9h4.2l13.8,21v-21h4.5v29.9H235.1z"/>
	<path class="st10" d="M266,267c-2.1,2.6-4.7,3.8-8.5,3.8h-10.5v-29.9h10.5c3.7,0,6.4,1.2,8.5,3.8c2.2,2.7,2.3,6.4,2.3,11.2
		S268.2,264.3,266,267z M262.2,247c-1.3-1.5-3-2.1-5.1-2.1h-5.5v21.8h5.5c2.1,0,3.9-0.6,5.1-2.1c1.5-1.6,1.6-4.4,1.6-8.9
		C263.8,251.4,263.6,248.6,262.2,247z"/>
	<path class="st10" d="M306.9,270.8v-20l-6.9,14.6h-3.4l-7-14.6v20h-4.5v-29.9h4.5l8.7,18.6l8.6-18.6h4.5v29.9H306.9z"/>
	<path class="st10" d="M336.4,270.8l-2.1-6h-11.8l-2.1,6h-4.8l11-29.9h3.7l11,29.9H336.4z M328.5,247.6l-4.7,13.3h9.2L328.5,247.6z"
		/>
	<path class="st10" d="M363.8,270.8l-13.8-21v21h-4.5v-29.9h4.2l13.8,21v-21h4.5v29.9H363.8z"/>
	<path class="st10" d="M392.9,270.8l-2.1-6H379l-2.1,6h-4.8l11-29.9h3.7l11,29.9H392.9z M385,247.6l-4.7,13.3h9.2L385,247.6z"/>
	<path class="st10" d="M419.4,267.6c-2.2,2.3-5.1,3.4-8.2,3.4c-3.3,0-5.8-1.1-7.7-3c-2.9-2.9-3-5.9-3-12.2c0-6.3,0.1-9.2,3-12.2
		c1.9-1.9,4.4-3,7.7-3c6.3,0,10,4.2,10.8,9.2h-4.5c-0.8-3.3-2.9-5.2-6.3-5.2c-1.8,0-3.3,0.7-4.4,1.8c-1.5,1.6-1.8,3.4-1.8,9.3
		s0.3,7.7,1.8,9.3c1.1,1.2,2.6,1.8,4.4,1.8c2,0,3.7-0.8,4.9-2.1c1.1-1.3,1.5-2.8,1.5-4.7v-1.7h-6.4v-3.9h10.9v4.6
		C422.1,263.1,421.4,265.5,419.4,267.6z"/>
	<path class="st10" d="M428.8,270.8v-29.9h19.1v4.1h-14.6v8.7h12.4v4h-12.4v9h14.6v4.1H428.8z"/>
	<path class="st10" d="M475.9,270.8v-20l-6.9,14.6h-3.4l-7-14.6v20h-4.5v-29.9h4.5l8.7,18.6l8.6-18.6h4.5v29.9H475.9z"/>
	<path class="st10" d="M488.2,270.8v-29.9h19.1v4.1h-14.6v8.7h12.4v4h-12.4v9h14.6v4.1H488.2z"/>
	<path class="st10" d="M531.8,270.8l-13.8-21v21h-4.5v-29.9h4.2l13.8,21v-21h4.5v29.9H531.8z"/>
	<path class="st10" d="M553.9,245v25.8h-4.5V245h-8.2v-4.1h21v4.1H553.9z"/>
</g>
</svg>
